<?xml version="1.0" standalone="no"?>
<!DOCTYPE svg PUBLIC "-//W3C//DTD SVG 1.1//EN" "http://www.w3.org/Graphics/SVG/1.1/DTD/svg11.dtd" >
<svg xmlns="http://www.w3.org/2000/svg" xmlns:xlink="http://www.w3.org/1999/xlink" version="1.1">
<metadata></metadata>
<defs>
<font id="neo_sans_trregular" horiz-adv-x="1239" >
<font-face units-per-em="2048" ascent="1638" descent="-410" />
<missing-glyph horiz-adv-x="505" />
<glyph horiz-adv-x="0" />
<glyph horiz-adv-x="682" />
<glyph unicode=" "  horiz-adv-x="505" />
<glyph unicode="&#x09;" horiz-adv-x="505" />
<glyph unicode="&#xa0;" horiz-adv-x="505" />
<glyph unicode="!" horiz-adv-x="444" d="M131 1501q0 17 12 28t29 11h102q17 0 29 -11t12 -28l-16 -1065q0 -17 -11 -28t-28 -11h-74q-17 0 -29 11t-12 28zM135 39v192q0 17 11 28t28 11h98q17 0 28 -11t11 -28v-192q0 -39 -39 -39h-98q-17 0 -28 11t-11 28z" />
<glyph unicode="&#x22;" horiz-adv-x="741" d="M59 1096q0 14 2 18l95 387q9 39 41 39h114q23 0 23 -22q0 -13 -2 -17l-119 -387q-9 -39 -39 -39h-96q-19 0 -19 21zM408 1096q0 14 2 18l94 387q9 39 41 39h114q23 0 23 -22q0 -13 -2 -17l-119 -387q-9 -39 -39 -39h-96q-18 0 -18 21z" />
<glyph unicode="#" horiz-adv-x="1351" d="M94 461v4l4 43q3 39 41 39h191l37 414h-193q-33 0 -33 38v5l4 45q3 38 41 38h191l35 396q2 18 12 28.5t27 10.5h92q13 0 21.5 -10.5t8.5 -24.5v-4l-34 -396h317l35 396q2 18 12 28.5t27 10.5h90q31 0 31 -35v-4l-35 -396h201q32 0 32 -38v-5l-4 -45q-3 -38 -41 -38h-198 l-37 -414h200q33 0 33 -39v-4l-4 -43q-3 -39 -41 -39h-201l-32 -383q-3 -39 -37 -39h-90q-16 0 -24.5 10t-8.5 25v4l33 383h-318l-33 -383q-3 -39 -36 -39h-93q-13 0 -22.5 10.5t-9.5 24.5v4l32 383h-190q-33 0 -33 39zM492 547h317l37 414h-318z" />
<glyph unicode="$" d="M160 1174q0 308 368 356v176q0 17 12 29t29 12h97q17 0 29 -12t12 -29v-170q181 -10 299 -27q34 -6 34 -34v-89q0 -32 -34 -32h-5q-270 18 -352 18q-163 0 -232 -43.5t-69 -154.5q0 -70 49 -121.5t174 -126.5l189 -113q177 -105 249 -199.5t72 -218.5q0 -55 -10.5 -104.5 t-36.5 -99t-67.5 -88t-107.5 -68t-152 -41.5v-193q0 -17 -12 -29t-29 -12h-97q-17 0 -29 12t-12 29v185q-146 2 -292 28q-25 4 -32 11.5t-7 25.5v84q0 33 34 33h7q276 -18 337 -18q173 0 242.5 64t69.5 181q0 76 -51 131t-195 144l-199 121q-147 90 -214.5 177t-67.5 206z " />
<glyph unicode="%" horiz-adv-x="1626" d="M92 1016v190q0 166 72 248t205 82q132 0 203 -81.5t71 -248.5v-190q0 -165 -71.5 -248.5t-202.5 -83.5q-132 0 -204.5 84t-72.5 248zM219 1016q0 -215 150 -215q147 0 147 215v190q0 215 -147 215q-150 0 -150 -215v-190zM299 8q0 17 8 25l856 1450q14 25 22.5 32t24.5 7 h105q16 0 16 -13q0 -3 -10 -26l-856 -1450q-13 -25 -21 -33t-24 -8h-101q-20 0 -20 16zM983 317v191q0 166 72.5 249t204.5 83t203 -82.5t71 -249.5v-191q0 -164 -71.5 -247.5t-202.5 -83.5q-132 0 -204.5 83.5t-72.5 247.5zM1110 317q0 -215 150 -215q147 0 147 215v191 q0 215 -147 215q-150 0 -150 -215v-191z" />
<glyph unicode="&#x26;" horiz-adv-x="1388" d="M109 360v17q0 123 68 213t226 190l-14 17q-134 156 -173.5 237t-39.5 160v16q0 161 113.5 243.5t316.5 82.5q116 0 206.5 -35.5t146 -110.5t55.5 -180v-16q0 -72 -24.5 -128.5t-93 -123.5t-196.5 -154l-57 -38l371 -400q80 143 80 361v28q0 33 32 33h88q35 0 35 -33v-28 q0 -282 -129 -471l183 -195q10 -10 10 -22q0 -10 -7.5 -16.5t-15.5 -6.5h-141q-19 0 -33 14l-102 111q-158 -139 -404 -139q-100 0 -185.5 20t-158.5 62t-115 116.5t-42 175.5zM297 360q0 -117 88.5 -175t224.5 -58q183 0 305 104l-407 437q-124 -78 -167.5 -138t-43.5 -153 v-17zM344 1194q0 -43 8.5 -73.5t47.5 -89t118 -144.5l21 -23l69 43q149 94 192.5 147t43.5 140v16q0 189 -238 189q-262 0 -262 -189v-16z" />
<glyph unicode="'" horiz-adv-x="393" d="M59 1096q0 14 2 18l95 387q9 39 41 39h114q23 0 23 -22q0 -13 -2 -17l-119 -387q-9 -39 -39 -39h-96q-19 0 -19 21z" />
<glyph unicode="(" horiz-adv-x="624" d="M123 543v26q0 272 77 529.5t210 419.5q11 16 19 19t28 3h96q20 0 20 -16q0 -12 -6 -21q-264 -388 -264 -934v-26q0 -546 264 -934q6 -9 6 -21q0 -16 -20 -16h-96q-14 0 -19.5 0.5t-12.5 5.5t-15 16q-133 162 -210 419.5t-77 529.5z" />
<glyph unicode=")" horiz-adv-x="624" d="M80 -412q0 12 6 21q264 388 264 934v26q0 546 -264 934q-6 9 -6 21q0 16 20 16h97q14 0 19.5 -0.5t12.5 -5.5t15 -16q133 -162 209.5 -419.5t76.5 -529.5v-26q0 -272 -76.5 -529.5t-209.5 -419.5q-11 -16 -19 -19t-28 -3h-97q-20 0 -20 16z" />
<glyph unicode="*" horiz-adv-x="952" d="M96 1225q0 3 1 5t1 5l19 59q6 21 26 21q3 0 19 -4l254 -84v268q0 39 30 39h62q31 0 31 -39l-2 -268l256 84q16 4 18 4q21 0 27 -21l18 -59q2 -2 2 -10q0 -21 -29 -31l-256 -80l158 -217q10 -17 10 -27q0 -13 -12 -22l-49 -37q-9 -6 -16 -6q-17 0 -31 20l-156 217 l-155 -217q-14 -20 -31 -20q-8 0 -17 6l-51 37q-12 9 -12 22q0 10 10 27l160 217l-254 80q-31 12 -31 31z" />
<glyph unicode="+" d="M154 760v82q0 32 41 32h350v353q0 41 33 41h81q33 0 33 -41v-353h352q41 0 41 -32v-82q0 -33 -41 -33h-352v-350q0 -41 -33 -41h-81q-33 0 -33 41v350h-350q-41 0 -41 33z" />
<glyph unicode="," horiz-adv-x="438" d="M41 -176q0 12 2 14l117 387q12 39 41 39h118q27 0 27 -22q0 -1 -4 -17l-154 -387q-6 -16 -9.5 -23t-10.5 -11.5t-18 -4.5h-84q-25 0 -25 25z" />
<glyph unicode="-" horiz-adv-x="681" d="M98 559v80q0 17 11 27t28 10h408q39 0 39 -37v-80q0 -35 -39 -35h-408q-39 0 -39 35z" />
<glyph unicode="." horiz-adv-x="438" d="M131 43v190q0 17 11 28t28 11h98q17 0 28 -11t11 -28v-190q0 -17 -11 -29t-28 -12h-98q-17 0 -28 12t-11 29z" />
<glyph unicode="/" horiz-adv-x="727" d="M47 29q0 10 2 12l465 1440q5 21 12 31t23 10h104q13 0 21 -9t8 -20q0 -10 -2 -12l-463 -1440q-11 -41 -37 -41h-104q-13 0 -21 9t-8 20z" />
<glyph unicode="0" d="M117 623v276q0 637 504 637q501 0 501 -637v-276q0 -637 -501 -637q-504 0 -504 637zM305 623q0 -248 83 -364t233 -116q149 0 232 116t83 364v276q0 479 -315 479q-150 0 -233 -115.5t-83 -363.5v-276z" />
<glyph unicode="1" d="M268 1231v104q0 15 21 27l309 147q26 13 43 13h84q17 0 28 -11t11 -28v-1442q0 -18 -10 -29.5t-27 -11.5h-113q-17 0 -26.5 11.5t-9.5 29.5v1288l-265 -115q-15 -6 -26 -6q-19 0 -19 23z" />
<glyph unicode="2" d="M164 39v166q0 164 74.5 296t238.5 242l207 140q130 88 170.5 141.5t40.5 144.5q0 111 -71.5 161t-235.5 50q-147 0 -363 -30h-8q-33 0 -33 36v72q0 27 39 37q158 41 365 41q251 0 370 -88.5t119 -278.5q0 -120 -60.5 -208.5t-205.5 -186.5l-197 -133 q-167 -112 -226.5 -205.5t-59.5 -230.5v-43h690q18 0 29.5 -9t11.5 -26v-90q0 -17 -11.5 -27t-29.5 -10h-813q-17 0 -29 11t-12 28z" />
<glyph unicode="3" d="M172 66v69q0 35 35 35h6q223 -29 344 -29q167 0 243.5 67.5t76.5 215.5v43q0 44 -12 85.5t-38 80t-75 61.5t-115 23h-373q-39 0 -39 37v71q0 39 39 39h373q70 0 120 22t74.5 60t35 77t10.5 85v29q0 129 -74 186t-246 57q-35 0 -66.5 -1t-71.5 -5t-59 -6t-74.5 -9 t-72.5 -9h-6q-35 0 -35 34v72q0 29 39 39q175 41 346 41q119 0 209 -20t159.5 -65.5t105.5 -124t36 -189.5v-29q0 -106 -50 -189.5t-145 -130.5q101 -49 148 -136t47 -185v-43q0 -220 -137.5 -329t-372.5 -109q-171 0 -346 41q-39 10 -39 39z" />
<glyph unicode="4" d="M80 485v78q0 41 24 76l607 850q21 33 59 33h121q53 0 53 -45v-916h178q17 0 28 -10t11 -27v-82q0 -36 -39 -36h-178v-365q0 -18 -9 -29.5t-26 -11.5h-118q-17 0 -26 11.5t-9 29.5v365h-592q-47 0 -65.5 17.5t-18.5 61.5zM252 573q0 -12 16 -12h490v701q0 12 -8 12h-2 q-8 0 -17 -12l-473 -672q-6 -9 -6 -17z" />
<glyph unicode="5" d="M160 63v76q0 31 30 31h11q165 -29 358 -29q171 0 252.5 81t81.5 241v31q0 151 -99 212.5t-329 61.5h-246q-13 0 -23 10.5t-10 24.5v2l58 682q3 35 41 35h704q18 0 29.5 -9t11.5 -26v-90q0 -33 -41 -33h-588l-32 -442h96q118 0 210.5 -13t170.5 -43.5t128.5 -79t78.5 -122 t28 -170.5v-31q0 -229 -136 -353t-386 -124q-206 0 -360 37q-20 5 -29.5 13t-9.5 27z" />
<glyph unicode="6" d="M123 567v359q0 321 132 465.5t402 144.5q190 0 353 -35q47 -11 47 -39v-80q0 -36 -37 -36q-3 0 -6 1t-6 1q-145 32 -351 32q-78 0 -136 -14t-96 -44.5t-62 -67t-36 -92.5t-16 -108.5t-4 -127.5v-23q4 1 25 5.5t27.5 6t26.5 5.5t29 5.5t29 4.5t32 4.5t31.5 4t35.5 3 t35 1.5t38 1q106 0 192.5 -21t158 -68.5t111.5 -133.5t40 -205v-12q0 -246 -126.5 -382t-373.5 -136q-236 0 -365.5 144t-129.5 437zM307 567q0 -123 20 -207.5t61.5 -133t96.5 -69t133 -20.5q152 0 234 85t82 282v12q0 80 -26 137t-73 88t-100.5 44.5t-118.5 13.5 q-133 0 -309 -37v-195z" />
<glyph unicode="7" d="M150 1397v86q0 17 11.5 28t28.5 11h748q154 0 154 -129q0 -49 -27 -107l-590 -1255q-15 -31 -45 -31h-123q-31 0 -31 31q0 8 7 22l618 1286q2 2 2 9q0 14 -14 14h-699q-40 0 -40 35z" />
<glyph unicode="8" d="M113 424v39q0 97 52.5 189t145.5 143q-96 49 -145 131.5t-49 187.5v19q0 103 37 181.5t104.5 126.5t155.5 71.5t196 23.5h21q108 0 196 -23.5t155.5 -71.5t104.5 -126.5t37 -181.5v-19q0 -105 -49 -187.5t-145 -131.5q93 -51 145.5 -143t52.5 -189v-39q0 -109 -39.5 -194 t-108 -137.5t-157.5 -79.5t-192 -27h-21q-103 0 -192 27t-157.5 79.5t-108 137.5t-39.5 194zM297 1114q0 -105 64 -175.5t196 -70.5h127q132 0 196 70.5t64 175.5v19q0 123 -79.5 187t-233.5 64h-21q-154 0 -233.5 -64t-79.5 -187v-19zM299 424q0 -135 79.5 -209t231.5 -74 h21q152 0 231.5 74t79.5 209v39q0 47 -14 90.5t-43 82t-81 62t-120 23.5h-127q-67 0 -118.5 -23.5t-81 -62t-44 -82.5t-14.5 -90v-39z" />
<glyph unicode="9" d="M102 1006v12q0 249 126 383.5t374 134.5q238 0 368 -144t130 -438v-358q0 -321 -132.5 -465.5t-402.5 -144.5q-193 0 -352 34q-24 5 -36.5 13.5t-12.5 25.5v80q0 37 37 37q3 0 6 -1t6 -1q149 -33 350 -33q67 0 119.5 11.5t89 31t63 52.5t42 68t24 85t11.5 97t3 110v22 q-2 0 -28.5 -5.5t-32 -6.5t-30 -6t-34.5 -6.5t-32 -5t-36.5 -4.5t-35.5 -3t-40.5 -2.5t-39.5 -0.5q-84 0 -155.5 12.5t-137 43.5t-111.5 78.5t-73 122.5t-27 171zM287 1006q0 -80 26 -137t72.5 -88t100 -44.5t118.5 -13.5q142 0 309 37l2 194q0 123 -20 207.5t-61.5 133 t-96.5 69t-133 20.5q-152 0 -234.5 -84.5t-82.5 -281.5v-12z" />
<glyph unicode=":" horiz-adv-x="448" d="M135 39v192q0 17 12 28t29 11h96q17 0 29 -11t12 -28v-192q0 -17 -12 -28t-29 -11h-96q-17 0 -29 11t-12 28zM135 895v190q0 17 12 29t29 12h96q17 0 29 -12t12 -29v-190q0 -17 -12 -28t-29 -11h-96q-17 0 -29 11t-12 28z" />
<glyph unicode=";" horiz-adv-x="448" d="M18 -178q0 12 2 14l117 387q12 39 41 39h117q27 0 27 -22q0 -1 -1 -3.5t-2 -6.5t-2 -7l-153 -387q-6 -16 -9.5 -23.5t-11 -12.5t-18.5 -5h-82q-25 0 -25 27zM135 895v190q0 17 11 29t28 12h100q17 0 28 -12t11 -29v-190q0 -39 -39 -39h-100q-17 0 -28 11t-11 28z" />
<glyph unicode="&#x3c;" d="M250 801q0 39 37 69l493 418q29 27 64 27h119q24 0 24 -21q0 -17 -20 -34l-537 -459l537 -459q20 -17 20 -35q0 -20 -24 -20h-119q-36 0 -64 26l-493 418q-37 30 -37 70z" />
<glyph unicode="=" d="M184 535v81q0 33 41 33h789q41 0 41 -33v-81q0 -33 -41 -33h-789q-41 0 -41 33zM184 987v82q0 33 41 33h789q41 0 41 -33v-82q0 -33 -41 -33h-789q-41 0 -41 33z" />
<glyph unicode="&#x3e;" d="M252 307q0 18 20 35l537 459l-537 459q-20 17 -20 34q0 21 24 21h119q35 0 64 -27l493 -418q37 -30 37 -69q0 -40 -37 -70l-493 -418q-33 -26 -64 -26h-119q-24 0 -24 20z" />
<glyph unicode="?" horiz-adv-x="913" d="M68 1391v71q0 22 5.5 32.5t28.5 14.5q142 27 279 27q74 0 134 -9.5t112 -31.5t87.5 -57t56 -88.5t20.5 -122.5v-25q0 -78 -37.5 -150t-149.5 -200l-92 -104q-39 -44 -51 -58.5t-30.5 -43t-23 -52t-4.5 -57.5v-101q0 -17 -12 -28t-29 -11h-90q-17 0 -28 11t-11 28v101 q0 97 27.5 158.5t108.5 150.5l94 104q76 85 101.5 136.5t25.5 115.5v25q0 80 -50 113.5t-159 33.5q-111 0 -277 -18h-6q-30 0 -30 35zM227 39v190q0 17 12 29t29 12h99q17 0 28 -12t11 -29v-190q0 -39 -39 -39h-99q-17 0 -29 11t-12 28z" />
<glyph unicode="@" horiz-adv-x="1570" d="M84 330q0 40 2 63l31 320q25 284 222.5 457t518.5 173q122 0 226.5 -32.5t178.5 -89t126 -132t77 -161.5t25 -178q0 -360 -193 -508q-176 -131 -553 -131q-154 0 -241.5 75t-87.5 209q0 23 2 37l22 240q17 159 112.5 242t260.5 83q112 0 262 -30q23 -5 33 -13.5t10 -29.5 v-9l-61 -641q75 11 129 40.5t87 69.5t51.5 100t25 121.5t6.5 144.5q0 98 -32 183t-93 151t-158.5 103.5t-220.5 37.5q-264 0 -420.5 -140.5t-181.5 -379.5l-31 -312q-4 -46 -4 -65q0 -194 132 -315.5t384 -121.5q111 0 295 15h2q13 0 16 -8q3 -3 3 -7v-65q0 -16 -7 -21.5 t-26 -7.5q-147 -16 -285 -16q-293 0 -469 151t-176 398zM586 399q0 -73 39.5 -107t128.5 -34h43q67 0 88 4l51 576q-86 12 -139 12q-90 0 -133 -43.5t-54 -138.5l-22 -234q-2 -14 -2 -35z" />
<glyph unicode="A" horiz-adv-x="1296" d="M59 33q0 12 2 14l379 1333q15 58 52 94.5t75.5 49t81.5 12.5q31 0 59.5 -7t58.5 -23t53.5 -47.5t35.5 -76.5l379 -1335q2 -2 2 -14q0 -33 -35 -33h-121q-22 0 -34 31l-134 471h-530l-131 -471q-12 -31 -37 -31h-121q-35 0 -35 33zM422 664h452l-186 673q-9 37 -39 37 q-32 0 -41 -37z" />
<glyph unicode="B" horiz-adv-x="1261" d="M160 80v1364q0 70 65 76q136 16 326 16q600 0 600 -395v-33q0 -115 -57 -197.5t-162 -124.5q106 -37 166.5 -125t60.5 -206v-35q0 -434 -598 -434q-231 0 -334 18q-36 5 -51.5 21.5t-15.5 54.5zM348 152q24 -1 98 -5t115 -4q101 0 172.5 12.5t127.5 43t84 85.5t28 136v35 q0 260 -309 260h-316v-563zM348 864h316q301 0 301 244v33q0 58 -19.5 100t-53.5 68.5t-88 42t-113.5 21t-139.5 5.5q-32 0 -203 -6v-508z" />
<glyph unicode="C" horiz-adv-x="1116" d="M123 618v285q0 144 32.5 257t85 182.5t125 114t145 62t153.5 17.5q132 0 344 -33q32 -3 32 -26v-105q0 -12 -4 -17t-20 -5h-6q-222 18 -344 18q-79 0 -141.5 -24t-112 -76.5t-76.5 -145t-27 -219.5v-285q0 -125 27 -217t76.5 -145t112.5 -77.5t141 -24.5q146 0 338 16h8 q32 0 32 -33v-84q0 -31 -40 -41q-143 -26 -340 -26q-81 0 -153.5 17.5t-145 62.5t-125 114t-85 181.5t-32.5 256.5z" />
<glyph unicode="D" horiz-adv-x="1312" d="M160 57v1407q0 46 43 52q114 20 372 20q143 0 256 -38t195.5 -114.5t126 -199t43.5 -285.5v-276q0 -318 -164.5 -477.5t-456.5 -159.5q-258 0 -372 20q-43 6 -43 51zM348 150q55 -5 227 -5q98 0 173.5 23.5t136 76.5t93 148.5t32.5 229.5v276q0 109 -22 192t-59.5 136.5 t-93.5 87.5t-119 47.5t-141 13.5q-159 0 -227 -6v-1220z" />
<glyph unicode="E" horiz-adv-x="1128" d="M160 367v788q0 200 107.5 290.5t328.5 90.5q296 0 399 -12q21 -3 21 -29v-102q0 -25 -23 -25h-395q-108 0 -162.5 -22t-72 -64.5t-17.5 -126.5v-285h629q17 0 29 -12t12 -29v-77q0 -17 -12 -29t-29 -12h-629v-344q0 -84 17.5 -126.5t72 -64.5t162.5 -22h395q23 0 23 -25 v-104q0 -26 -21 -29q-76 -10 -399 -10q-221 0 -328.5 90.5t-107.5 290.5z" />
<glyph unicode="F" horiz-adv-x="1128" d="M160 41v1114q0 200 107.5 290.5t328.5 90.5q296 0 399 -12q21 -3 21 -29v-102q0 -25 -23 -25h-395q-108 0 -162.5 -22t-72 -64.5t-17.5 -126.5v-285h629q17 0 29 -12t12 -29v-77q0 -17 -12 -29t-29 -12h-629v-670q0 -17 -12 -29t-29 -12h-104q-17 0 -29 12t-12 29z" />
<glyph unicode="G" horiz-adv-x="1253" d="M119 623v274q0 144 32.5 257t85 183.5t125.5 116.5t148 64t158 18q223 0 389 -29q35 -4 35 -30v-103q0 -20 -27 -20h-8q-169 14 -389 14q-60 0 -111 -13t-98.5 -46.5t-80.5 -86t-53 -135.5t-20 -190v-274q0 -123 26.5 -215.5t74.5 -147.5t109 -81.5t134 -26.5 q160 0 258 12v586q0 18 10 29.5t27 11.5h111q17 0 28 -12t11 -29v-689q0 -39 -37 -45q-187 -30 -408 -30q-80 0 -153.5 20.5t-143 69t-120.5 120t-82 181.5t-31 246z" />
<glyph unicode="H" horiz-adv-x="1392" d="M160 41v1440q0 17 12 29t29 12h104q17 0 29 -12t12 -29v-594h701v594q0 17 11.5 29t28.5 12h105q17 0 29 -12t12 -29v-1440q0 -17 -12 -29t-29 -12h-105q-17 0 -28.5 12t-11.5 29v680h-701v-680q0 -17 -12 -29t-29 -12h-104q-17 0 -29 12t-12 29z" />
<glyph unicode="I" horiz-adv-x="546" d="M180 41v1442q0 17 10 28t27 11h113q17 0 27 -11t10 -28v-1442q0 -18 -10 -29.5t-27 -11.5h-113q-17 0 -27 11.5t-10 29.5z" />
<glyph unicode="J" horiz-adv-x="526" d="M-72 -254q0 17 11.5 26t29.5 9h80q78 0 104.5 32t26.5 111v1559q0 17 11 28t28 11h109q17 0 28 -11t11 -28v-1559q0 -150 -75 -221.5t-243 -71.5q-68 0 -108 17q-13 6 -13 22v76z" />
<glyph unicode="K" horiz-adv-x="1243" d="M160 41v1442q0 17 11 28t28 11h108q17 0 28 -11t11 -28v-662l590 682q7 7 9.5 9t7.5 5.5t10 4t14 0.5h147q29 0 29 -23q0 -12 -8 -20l-617 -697l617 -737q10 -10 10 -25q0 -20 -27 -20h-159q-28 0 -45 20l-578 703v-682q0 -18 -10 -29.5t-27 -11.5h-112q-17 0 -27 11.5 t-10 29.5z" />
<glyph unicode="L" horiz-adv-x="1052" d="M160 367v1114q0 17 12 29t29 12h104q17 0 29 -12t12 -29v-1114q0 -84 17.5 -126.5t72 -64.5t162.5 -22h395q23 0 23 -25v-96q0 -26 -21 -29q-124 -18 -399 -18q-75 0 -131.5 7t-116.5 30.5t-99 64t-64 111.5t-25 168z" />
<glyph unicode="M" horiz-adv-x="1558" d="M160 41v1421q0 25 17 42.5t42 17.5h133q29 0 42 -7t24 -28l338 -703q9 -22 24 -22q16 0 25 22l338 703q11 21 23.5 28t41.5 7h133q25 0 42.5 -17.5t17.5 -42.5v-1421q0 -17 -12 -29t-29 -12h-100q-17 0 -29 12t-12 29v1214q0 7 -2 7l-5 -5l-292 -606q-18 -33 -37.5 -46 t-55.5 -13h-94q-36 0 -55 13t-37 46l-293 606q-1 1 -2 3q0 1 -0.5 1.5t-1.5 0.5q-2 0 -2 -7v-1214q0 -17 -12 -29t-29 -12h-100q-17 0 -29 12t-12 29z" />
<glyph unicode="N" horiz-adv-x="1392" d="M160 25v1439q0 25 17 41.5t42 16.5h113q41 0 56 -8t28 -33l628 -1196l5 -6q2 0 2 6v1198q0 18 9.5 28.5t26.5 10.5h109q17 0 27 -11t10 -28v-1424q0 -25 -17 -42t-42 -17h-127q-52 0 -66 33l-633 1202q-3 6 -6 6q-2 0 -2 -6v-1196q0 -17 -10 -28t-27 -11h-106 q-20 0 -28.5 4.5t-8.5 20.5z" />
<glyph unicode="O" horiz-adv-x="1353" d="M123 629v264q0 166 41.5 291t117 201t175 113.5t221.5 37.5q123 0 222.5 -37.5t174.5 -113.5t115.5 -201t40.5 -291v-264q0 -166 -40.5 -291t-115.5 -201t-174.5 -113.5t-222.5 -37.5q-122 0 -221.5 37.5t-175 113.5t-117 201t-41.5 291zM311 629q0 -475 367 -475 q364 0 364 475v264q0 475 -364 475q-367 0 -367 -475v-264z" />
<glyph unicode="P" horiz-adv-x="1214" d="M160 41v1427q0 46 49 52q141 16 340 16q102 0 187 -14.5t157.5 -47.5t122.5 -84t78 -126.5t28 -171.5v-27q0 -459 -573 -459q-113 0 -205 10v-575q0 -18 -10 -29.5t-27 -11.5h-110q-17 0 -27 11.5t-10 29.5zM344 770q24 0 100.5 -4t104.5 -4q209 0 298 71t89 232v27 q0 153 -93 219.5t-294 66.5q-140 0 -205 -8v-600z" />
<glyph unicode="Q" horiz-adv-x="1353" d="M123 629v264q0 166 41.5 291t117 201t175 113.5t221.5 37.5q123 0 222.5 -37.5t174.5 -113.5t115.5 -201t40.5 -291v-264q0 -297 -124.5 -455t-340.5 -184v-88q0 -77 23.5 -98t103.5 -21h121q45 0 45 -33v-69q0 -50 -166 -50q-80 0 -134.5 12t-94.5 42t-59 82.5 t-19 132.5v92q-214 26 -338.5 184.5t-124.5 452.5zM311 629q0 -475 367 -475q364 0 364 475v264q0 475 -364 475q-367 0 -367 -475v-264z" />
<glyph unicode="R" horiz-adv-x="1280" d="M160 41v1434q0 23 9.5 31.5t39.5 13.5q141 16 360 16q574 0 574 -440v-15q0 -165 -87 -269.5t-235 -143.5l373 -623q6 -9 6 -18q0 -27 -26 -27h-132q-22 0 -32 4t-21 23l-366 610h-19h-35q-116 0 -225 6v-602q0 -18 -10 -29.5t-27 -11.5h-110q-17 0 -27 11.5t-10 29.5z M344 801q180 -4 225 -4q199 0 294 62.5t95 221.5v15q0 149 -95 210.5t-294 61.5q-176 0 -225 -6v-561z" />
<glyph unicode="S" horiz-adv-x="1126" d="M102 1174q0 362 490 362q161 0 356 -25q35 -6 35 -34v-88q0 -33 -35 -33h-4q-180 12 -352 12q-164 0 -232.5 -42t-68.5 -152q0 -70 49 -121.5t174 -126.5l188 -113q177 -105 249.5 -199.5t72.5 -218.5q0 -63 -13.5 -118t-49 -110t-91 -94t-145.5 -63t-207 -24 q-160 0 -340 28q-25 4 -32 11.5t-7 25.5v82q0 16 10 24.5t25 8.5h6q184 -12 338 -12q174 0 242.5 62t68.5 179q0 76 -50.5 131t-194.5 144l-199 121q-148 90 -215.5 177.5t-67.5 205.5z" />
<glyph unicode="T" horiz-adv-x="1208" d="M72 1395v90q0 17 11.5 27t29.5 10h985q39 0 39 -37v-90q0 -33 -39 -33h-400v-1321q0 -18 -9.5 -29.5t-26.5 -11.5h-113q-17 0 -27 11.5t-10 29.5v1321h-399q-41 0 -41 33z" />
<glyph unicode="U" horiz-adv-x="1355" d="M154 553v930q0 17 11 28t28 11h110q17 0 28 -11t11 -28v-930q0 -207 76 -307.5t260 -100.5t260 100t76 308v930q0 17 11 28t28 11h110q17 0 28 -11t11 -28v-930q0 -567 -524 -567q-253 0 -388.5 140t-135.5 427z" />
<glyph unicode="V" horiz-adv-x="1316" d="M70 1487q0 35 36 35h119q25 0 37 -31l356 -1305q12 -43 41 -43q27 0 39 43l359 1305q12 31 35 31h120q35 0 35 -35q0 -10 -2 -12l-377 -1334q-44 -155 -209 -155q-164 0 -208 155l-379 1334q-2 2 -2 12z" />
<glyph unicode="W" horiz-adv-x="1689" d="M72 1481v6q0 35 34 35h119q29 0 35 -35l199 -1305q2 -6 3 -12t1 -9t0.5 -5t2 -3t3.5 -1q8 0 14 30l201 758q21 82 96 82h131q76 0 97 -82l200 -758q6 -30 15 -30q2 0 3.5 1t2 3t0.5 5t1 9t3 12l199 1305q6 35 34 35h119q35 0 35 -35v-6l-227 -1385q-10 -59 -41.5 -81.5 t-85.5 -22.5h-88q-43 0 -74 27.5t-43 74.5l-201 758q-4 14 -6 16t-6 2h-2h-2q-5 0 -7 -2.5t-6 -15.5l-202 -758q-12 -47 -43 -74.5t-74 -27.5h-86q-54 0 -85.5 22.5t-41.5 81.5z" />
<glyph unicode="X" horiz-adv-x="1323" d="M94 31q0 11 6 20l455 723l-451 699q-6 9 -6 20q0 29 31 29h133q25 0 37 -21l369 -583l356 583q16 21 39 21h121q16 0 24.5 -9t8.5 -22q0 -7 -7 -18l-440 -703l461 -719q6 -9 6 -22q0 -12 -8.5 -20.5t-24.5 -8.5h-129q-16 0 -24 6t-19 25l-375 596l-366 -596 q-22 -31 -43 -31h-121q-16 0 -24.5 9t-8.5 22z" />
<glyph unicode="Y" horiz-adv-x="1193" d="M72 1493q0 29 34 29h125q10 0 21 -9t16 -20l283 -664q16 -33 25.5 -43t21.5 -10t21.5 10t25.5 43l285 664q12 29 35 29h125q34 0 34 -29q0 -11 -6 -23l-317 -712q-53 -111 -111 -135v-582q0 -18 -10 -29.5t-27 -11.5h-112q-17 0 -27 11.5t-10 29.5v582q-56 20 -111 135 l-315 712q-6 12 -6 23z" />
<glyph unicode="Z" horiz-adv-x="1222" d="M115 139q0 79 30 119l734 1067q6 9 6 16q0 15 -21 15h-680q-18 0 -29.5 9t-11.5 26v96q0 17 11.5 26t29.5 9h729q93 0 133.5 -28t40.5 -108q0 -77 -32 -120l-731 -1067q-7 -11 -7 -19q0 -12 21 -12h735q18 0 29.5 -9t11.5 -26v-96q0 -17 -11.5 -27t-29.5 -10h-788 q-99 0 -134.5 29t-35.5 110z" />
<glyph unicode="[" horiz-adv-x="669" d="M164 -358v1841q0 39 35 39h381q17 0 29 -12t12 -29v-68q0 -17 -12 -29t-29 -12h-234v-1620h234q17 0 29 -12t12 -29v-67q0 -17 -12 -29t-29 -12h-381q-35 0 -35 39z" />
<glyph unicode="\" horiz-adv-x="727" d="M47 1493q0 11 8 20t21 9h104q16 0 23 -10t12 -31l465 -1440q2 -2 2 -12q0 -11 -8 -20t-21 -9h-104q-26 0 -37 41l-463 1440q-2 2 -2 12z" />
<glyph unicode="]" horiz-adv-x="669" d="M49 -289q0 17 12 29t29 12h234v1620h-234q-17 0 -29 12t-12 29v68q0 17 12 29t29 12h381q35 0 35 -39v-1841q0 -39 -35 -39h-381q-17 0 -29 12t-12 29v67z" />
<glyph unicode="^" d="M207 1171q0 15 8 23l236 305q18 24 28 30.5t33 6.5h217q23 0 33.5 -6.5t28.5 -30.5l235 -305q8 -8 8 -23q0 -18 -22 -18h-123q-9 0 -15.5 1t-12.5 5.5t-8.5 6.5t-10 11t-11.5 13l-210 246l-211 -246q-4 -4 -11.5 -13t-10 -11t-8.5 -6.5t-12.5 -5.5t-15.5 -1h-123 q-22 0 -22 18z" />
<glyph unicode="_" horiz-adv-x="1011" d="M-61 -133q0 33 41 33h1054q41 0 41 -33v-51q0 -33 -41 -33h-1054q-41 0 -41 33v51z" />
<glyph unicode="`" horiz-adv-x="761" d="M82 1581q0 14 22 14h136q18 0 27.5 -6t23.5 -24l198 -254q9 -9 9 -21q0 -14 -19 -14h-110q-16 0 -24 6t-23 25l-232 258q-8 8 -8 16z" />
<glyph unicode="a" horiz-adv-x="1062" d="M98 317v25q0 171 113 251.5t381 80.5h151v82q0 129 -48.5 180t-170.5 51q-149 0 -313 -16h-10q-37 0 -37 33v71q0 33 43 39q162 27 317 27q208 0 304 -98t96 -287v-715q0 -17 -12 -29t-29 -12h-95q-17 0 -28.5 12t-11.5 29v45q-172 -100 -316 -100q-69 0 -126 16.5 t-105.5 52.5t-75.5 103t-27 159zM279 319q0 -105 46 -145.5t142 -40.5q130 0 276 82v330h-151q-182 0 -247.5 -44.5t-65.5 -156.5v-25z" />
<glyph unicode="b" horiz-adv-x="1107" d="M139 68v1433q0 17 10 28t27 11h105q17 0 27.5 -11t10.5 -28v-381q120 21 240 21q221 0 334 -129t113 -373v-147q0 -236 -112.5 -371t-334.5 -135q-202 0 -377 34q-28 4 -35.5 13.5t-7.5 34.5zM319 156q156 -13 240 -13q146 0 206 86.5t60 262.5v147q0 174 -60 259 t-206 85q-145 0 -240 -14v-813z" />
<glyph unicode="c" horiz-adv-x="925" d="M102 483v160q0 229 114.5 363.5t322.5 134.5q144 0 256 -23q25 -5 33 -13.5t8 -31.5v-74q0 -30 -35 -30h-8q-126 14 -254 14q-256 0 -256 -340v-160q0 -340 256 -340q119 0 254 15h8q35 0 35 -31v-74q0 -21 -8.5 -31t-32.5 -14q-107 -22 -256 -22q-207 0 -322 134 t-115 363z" />
<glyph unicode="d" horiz-adv-x="1107" d="M102 492v147q0 245 112 373.5t335 128.5q119 0 239 -21v381q0 17 11 28t28 11h105q17 0 27 -11t10 -28v-1433q0 -23 -8 -33.5t-35 -14.5q-175 -34 -377 -34q-222 0 -334.5 135t-112.5 371zM283 492q0 -176 60 -262.5t206 -86.5q83 0 239 13v813q-68 14 -239 14 q-144 0 -205 -86t-61 -258v-147z" />
<glyph unicode="e" horiz-adv-x="1114" d="M102 477v185q0 224 118 351.5t337 127.5q220 0 335.5 -128t115.5 -351v-111q0 -45 -39 -45h-686v-29q0 -179 69.5 -256.5t214.5 -77.5q207 0 365 23h10q33 0 33 -29v-69q0 -21 -8.5 -32.5t-32.5 -15.5q-173 -34 -367 -34q-75 0 -139.5 14t-125.5 49.5t-104.5 90 t-69.5 140.5t-26 197zM283 643h542v19q0 170 -65 245.5t-203 75.5q-274 0 -274 -321v-19z" />
<glyph unicode="f" horiz-adv-x="780" d="M51 1034v56q0 17 10.5 26.5t28.5 9.5h199v148q0 158 71 221.5t215 63.5q57 0 115 -13q39 -9 39 -33v-67q0 -31 -37 -31h-98q-73 0 -99 -28.5t-26 -112.5v-148h215q18 0 28.5 -9.5t10.5 -26.5v-80q0 -35 -39 -35h-215v-934q0 -17 -11 -29t-28 -12h-100q-17 0 -29 12 t-12 29v934l-199 22q-39 3 -39 37z" />
<glyph unicode="g" horiz-adv-x="1144" d="M111 -66q0 81 37 150.5t92 110.5l-15 6q-47 22 -70.5 65t-23.5 94v2q0 44 21.5 84t62.5 64q-94 88 -94 238v16q0 58 13 108t45.5 97.5t83 81.5t130.5 54.5t182 20.5h449q19 0 33 -13t14 -32v-53q0 -19 -8.5 -26.5t-28.5 -12.5l-73 -14q69 -69 69 -211v-16 q0 -174 -110.5 -262.5t-344.5 -88.5q-140 0 -237 41q-51 -23 -51 -69q0 -26 14 -41t49 -25l305 -78q71 -17 120 -32t105 -40.5t90 -55t56.5 -74t22.5 -99.5v-16q0 -318 -467 -318q-239 0 -355 84.5t-116 241.5v18zM287 -66v-18q0 -92 66.5 -139t228.5 -47q86 0 143 11.5 t88 35.5t43 55t12 76v16q0 59 -52 90t-198 70l-231 59q-50 -43 -75 -89t-25 -120zM299 748q0 -38 10.5 -70.5t38 -66t85.5 -53t142 -19.5q81 0 136.5 15t85.5 44t42.5 65t12.5 85v16q0 103 -61.5 161t-215.5 58q-83 0 -139.5 -17.5t-85 -49.5t-40 -68.5t-11.5 -83.5v-16z " />
<glyph unicode="h" horiz-adv-x="1140" d="M139 41v1458q0 17 11 29t28 12h103q17 0 27.5 -11.5t10.5 -29.5v-422q70 31 156.5 47.5t157.5 16.5q172 0 270 -104.5t98 -321.5v-674q0 -17 -11.5 -29t-28.5 -12h-99q-17 0 -29 12t-12 29v674q0 146 -56 207t-163 61q-59 0 -140.5 -14t-142.5 -43v-885q0 -17 -11.5 -29 t-28.5 -12h-101q-17 0 -28 12t-11 29z" />
<glyph unicode="i" horiz-adv-x="505" d="M160 1348v163q0 17 12 29t29 12h104q17 0 29 -12t12 -29v-163q0 -17 -12 -29t-29 -12h-104q-17 0 -29 12t-12 29zM162 41v1044q0 17 12 29t29 12h98q17 0 29 -12t12 -29v-1044q0 -17 -12 -29t-29 -12h-98q-17 0 -29 12t-12 29z" />
<glyph unicode="j" horiz-adv-x="505" d="M-61 -287q0 29 43 29h84q60 0 78 24.5t18 102.5v1216q0 18 10 29.5t27 11.5h106q17 0 27 -11.5t10 -29.5v-1216q0 -153 -63 -212.5t-193 -59.5q-56 0 -111 8q-36 6 -36 33v75zM160 1346v165q0 17 12 29t29 12h104q17 0 29 -12t12 -29v-165q0 -17 -12 -28t-29 -11h-104 q-17 0 -29 11t-12 28z" />
<glyph unicode="k" horiz-adv-x="1015" d="M139 41v1458q0 17 12 29t29 12h99q17 0 28.5 -12t11.5 -29v-852l410 461q8 8 12 11t11 5t18 2h143q31 0 31 -22q0 -13 -10 -23l-451 -487l455 -549q6 -6 6 -18q0 -27 -22 -27h-148q-17 0 -26 5t-21 22l-408 503v-489q0 -17 -11.5 -29t-28.5 -12h-99q-17 0 -29 12t-12 29z " />
<glyph unicode="l" horiz-adv-x="499" d="M160 41v1460q0 17 10 28t27 11h106q17 0 27 -11t10 -28v-1460q0 -18 -10 -29.5t-27 -11.5h-106q-17 0 -27 11.5t-10 29.5z" />
<glyph unicode="m" horiz-adv-x="1634" d="M139 41v1044q0 17 11 29t28 12h103q17 0 27.5 -11.5t10.5 -29.5v-38q154 96 299 96q132 0 205 -84q176 84 340 84q332 0 332 -377v-725q0 -17 -12 -29t-29 -12h-98q-17 0 -29 12t-12 29v725q0 121 -49.5 170t-137.5 49q-97 0 -239 -55q18 -68 18 -160v-729 q0 -18 -10 -29.5t-27 -11.5h-108q-17 0 -26 11.5t-9 29.5v729q0 88 -18.5 135.5t-50.5 63.5t-89 16q-86 0 -250 -80v-864q0 -18 -9.5 -29.5t-26.5 -11.5h-109q-17 0 -26 11.5t-9 29.5z" />
<glyph unicode="n" horiz-adv-x="1140" d="M139 41v1044q0 17 11 29t28 12h103q17 0 27.5 -11.5t10.5 -29.5v-38q91 50 164 72t162 22q356 0 356 -426v-674q0 -17 -11.5 -29t-28.5 -12h-99q-17 0 -29 12t-12 29v674q0 151 -52.5 210.5t-172.5 59.5q-114 0 -277 -80v-864q0 -17 -11.5 -29t-28.5 -12h-101 q-17 0 -28 12t-11 29z" />
<glyph unicode="o" horiz-adv-x="1116" d="M102 485v156q0 231 117 365.5t338 134.5q222 0 339.5 -134.5t117.5 -365.5v-156q0 -231 -117.5 -365t-339.5 -134q-221 0 -338 134t-117 365zM283 485q0 -342 274 -342q139 0 208 89t69 253v156q0 342 -277 342q-139 0 -206.5 -89t-67.5 -253v-156z" />
<glyph unicode="p" horiz-adv-x="1107" d="M139 -362v1409q0 22 7.5 31.5t35.5 15.5q190 47 377 47q223 0 335 -134t112 -372v-148q0 -244 -112 -372.5t-335 -128.5q-114 0 -240 22v-370q0 -17 -10.5 -28t-27.5 -11h-105q-17 0 -27 11t-10 28zM319 158q102 -21 240 -21q146 0 206 87.5t60 262.5v148 q0 171 -60.5 262.5t-205.5 91.5q-126 0 -240 -20v-811z" />
<glyph unicode="q" horiz-adv-x="1107" d="M102 487v148q0 238 112 372t335 134q187 0 377 -47q28 -6 35.5 -14.5t7.5 -32.5v-1409q0 -17 -10 -28t-27 -11h-105q-17 0 -28 11t-11 28v370q-126 -22 -239 -22q-221 0 -334 128.5t-113 372.5zM283 487q0 -175 60 -262.5t206 -87.5q96 0 239 21v811q-110 20 -239 20 q-145 0 -205.5 -89.5t-60.5 -264.5v-148z" />
<glyph unicode="r" horiz-adv-x="700" d="M139 41v1044q0 17 11 29t28 12h96q17 0 28 -12t11 -29v-43q143 99 289 99q43 0 43 -37v-84q0 -35 -43 -35q-141 0 -283 -86v-858q0 -17 -11.5 -29t-28.5 -12h-101q-17 0 -28 12t-11 29z" />
<glyph unicode="s" horiz-adv-x="954" d="M102 57v72q0 14 10 22.5t27 8.5h8q221 -23 322 -23q105 0 154 32t49 114q0 46 -32 80t-122 90l-207 122q-102 62 -155.5 131t-53.5 162q0 77 27.5 132t79.5 85t116 43t148 13q158 0 320 -27q38 -6 38 -41v-67q0 -35 -34 -35h-6q-192 16 -318 16q-98 0 -144 -23.5 t-46 -95.5q0 -45 32 -78t109 -77l203 -121q124 -73 174.5 -144.5t50.5 -164.5q0 -150 -102 -223.5t-281 -73.5q-194 0 -324 30q-43 9 -43 41z" />
<glyph unicode="t" horiz-adv-x="788" d="M51 1034v56q0 36 39 36h199v201q0 35 37 41l106 16h6q13 0 22 -9t9 -25v-224h221q17 0 29 -12t12 -29v-69q0 -17 -12 -29t-29 -12h-221v-715q0 -81 23 -105t88 -24h114q43 0 43 -29v-71q0 -29 -37 -35q-68 -10 -133 -10q-74 0 -123 11.5t-85.5 41.5t-53 84t-16.5 137v715 l-199 22q-39 3 -39 37z" />
<glyph unicode="u" horiz-adv-x="1140" d="M139 412v673q0 17 12 29t29 12h99q17 0 28.5 -12t11.5 -29v-673q0 -151 53 -211t173 -60q113 0 276 80v864q0 17 12 29t29 12h101q17 0 27.5 -11.5t10.5 -29.5v-1044q0 -18 -10.5 -29.5t-27.5 -11.5h-103q-17 0 -28 12t-11 29v39q-91 -50 -164 -72t-161 -22 q-357 0 -357 426z" />
<glyph unicode="v" horiz-adv-x="1085" d="M80 1092q0 34 33 34h112q27 0 39 -39l236 -892q11 -38 18.5 -49t24.5 -11q14 0 23.5 12.5t19.5 47.5l235 892q12 39 39 39h113q33 0 33 -34q0 -11 -2 -15l-277 -975q-19 -65 -65.5 -90.5t-118.5 -25.5q-73 0 -119.5 25.5t-65.5 90.5l-276 975q-2 4 -2 15z" />
<glyph unicode="w" horiz-adv-x="1609" d="M78 1077v8q0 17 11 29t28 12h110q13 0 23 -10t12 -22l170 -934q4 -17 7.5 -21t9.5 -4q10 0 16 25l201 786q10 34 29.5 48t52.5 14h114q33 0 52.5 -14t29.5 -48l201 -786q6 -25 16 -25q4 0 6 1t5 6.5t6 17.5l170 934q2 13 11.5 22.5t22.5 9.5h111q17 0 28 -12t11 -29v-8 l-199 -950q-20 -96 -48.5 -118.5t-123.5 -22.5q-80 0 -112 26.5t-56 120.5l-178 696q-9 15 -10 15q-4 0 -6 -6q-2 -5 -4 -9l-179 -696q-25 -92 -55.5 -119.5t-111.5 -27.5q-94 0 -122.5 23t-50.5 118z" />
<glyph unicode="x" horiz-adv-x="1120" d="M82 20q0 14 10 27l369 526l-348 502q-11 18 -11 27q0 24 31 24h133q24 0 41 -28l260 -385l262 385q13 19 20.5 23.5t22.5 4.5h119q27 0 27 -24q0 -10 -10 -27l-344 -489l374 -539q9 -9 9 -24q0 -23 -27 -23h-141q-19 0 -29 16l-293 428l-293 -424q-11 -14 -16.5 -17 t-18.5 -3h-123q-24 0 -24 20z" />
<glyph unicode="y" horiz-adv-x="1093" d="M80 1092q0 34 37 34h112q23 0 35 -32l242 -889q7 -28 16.5 -36.5t22.5 -8.5h33l249 936q11 30 39 30h115q33 0 33 -34q0 -13 -2 -15l-338 -1179q-35 -117 -75 -179t-111 -93.5t-189 -31.5q-90 0 -172 19q-16 4 -23 6.5t-13.5 9t-6.5 17.5v75q0 33 39 33h6q94 -12 182 -12 q90 0 134.5 36t68.5 138l21 84h-29q-54 0 -89.5 27t-62.5 114l-272 936q-2 2 -2 15z" />
<glyph unicode="z" horiz-adv-x="987" d="M100 113v39q0 42 10 69.5t37 63.5l529 657q8 11 8 19q0 14 -20 14h-498q-17 0 -29 12t-12 29v69q0 17 12 29t29 12h602q115 0 115 -100v-49q0 -57 -47 -113l-539 -674q-10 -10 -10 -22q0 -16 16 -16h541q17 0 29 -12t12 -29v-70q0 -17 -12 -29t-29 -12h-619 q-62 0 -93.5 33t-31.5 80z" />
<glyph unicode="{" horiz-adv-x="677" d="M41 502v119q71 49 97 103.5t26 149.5v365q0 166 63.5 224.5t249.5 58.5h103q17 0 29 -12t12 -29v-68q0 -17 -12 -29t-29 -12h-93q-90 0 -115.5 -25t-25.5 -108v-365q0 -114 -31.5 -187t-113.5 -128q80 -56 112.5 -128.5t32.5 -184.5v-361q0 -83 25.5 -108t115.5 -25h95 q17 0 29 -12t12 -29v-67q0 -17 -12 -29t-29 -12h-105q-186 0 -249.5 58t-63.5 224v361q0 96 -26 151.5t-97 104.5z" />
<glyph unicode="|" horiz-adv-x="509" d="M164 -358v1841q0 17 11 28t28 11h106q17 0 27 -11t10 -28v-1841q0 -17 -10 -28t-27 -11h-106q-17 0 -28 11t-11 28z" />
<glyph unicode="}" horiz-adv-x="677" d="M55 -289q0 17 12 29t29 12h94q90 0 116 25t26 108v361q0 112 32.5 184.5t112.5 128.5q-82 55 -113.5 128t-31.5 187v365q0 83 -26 108t-116 25h-92q-17 0 -29 12t-12 29v68q0 17 12 29t29 12h103q97 0 156 -13t95 -47t49 -86t13 -137v-365q0 -95 26 -149.5t97 -103.5 v-119q-71 -49 -97 -104.5t-26 -151.5v-361q0 -85 -13 -137t-49.5 -86t-95 -46.5t-155.5 -12.5h-105q-17 0 -29 12t-12 29v67z" />
<glyph unicode="~" d="M188 760v53q0 132 58.5 199t169.5 67q83 0 153 -57l174 -139q19 -17 44 -29t42 -12q54 0 68 23.5t14 90.5v58q0 17 12 29t29 12h60q17 0 29 -12t12 -29v-58q0 -133 -52 -197.5t-172 -64.5q-77 0 -155 58l-150 118q-65 52 -81 59q-13 5 -27 5q-55 0 -70.5 -28t-15.5 -93 v-53q0 -17 -12 -29t-29 -12h-60q-17 0 -29 12t-12 29z" />
<glyph unicode="&#xa2;" d="M254 483v160q0 199 87 327t247 160v191q0 17 12 29t29 12h84q17 0 29 -12t12 -29v-182q124 -10 192 -21q25 -5 33 -13.5t8 -31.5v-74q0 -30 -35 -30h-8q-144 16 -254 16q-125 0 -190.5 -85.5t-65.5 -256.5v-160q0 -342 256 -342q101 0 254 17h8q35 0 35 -31v-74 q0 -21 -8.5 -31t-32.5 -14q-54 -9 -192 -20v-185q0 -17 -12 -29t-29 -12h-84q-17 0 -29 12t-12 29v193q-160 32 -247 160t-87 327z" />
<glyph unicode="&#xa3;" d="M143 748v86q0 17 11.5 26.5t29.5 9.5h103v134q0 132 21.5 224.5t73 160t139.5 99.5t218 32q147 0 318 -27q25 -4 32 -11t7 -24v-84q0 -35 -31 -35h-10q-207 23 -316 23q-158 0 -212 -74.5t-54 -283.5v-134h440q18 0 28.5 -9.5t10.5 -26.5v-86q0 -17 -11.5 -27t-29.5 -10 h-438v-312q0 -113 -72 -243h654q41 0 41 -31v-90q0 -17 -11.5 -26t-29.5 -9h-817q-17 0 -26 9.5t-9 21.5v80q0 8 2 15.5t4.5 11.5t7 10.5t6.5 9.5q36 62 50 112.5t14 128.5v312h-107q-37 0 -37 37z" />
<glyph unicode="&#xa5;" d="M74 473v62q0 17 12 28.5t29 11.5h411v43l-112 226h-299q-17 0 -29 12t-12 29v61q0 17 12 29t29 12h227l-244 483q-6 15 -6 25q0 27 33 27h129q10 0 20 -9t15 -20l332 -694l331 694q12 29 35 29h127q35 0 35 -29q0 -11 -6 -23l-244 -483h225q17 0 29 -12t12 -29v-61 q0 -17 -12 -29t-29 -12h-297l-112 -226v-43h409q17 0 29 -11.5t12 -28.5v-62q0 -17 -12 -29t-29 -12h-409v-391q0 -18 -10 -29.5t-27 -11.5h-117q-17 0 -26 11.5t-9 29.5v391h-411q-17 0 -29 12t-12 29z" />
<glyph unicode="&#xa8;" horiz-adv-x="763" d="M123 1352v166q0 17 12 29t29 12h80q17 0 29 -12t12 -29v-166q0 -17 -12 -28t-29 -11h-80q-17 0 -29 11t-12 28zM481 1352v166q0 17 12 29t29 12h80q17 0 29 -12t12 -29v-166q0 -17 -12 -28t-29 -11h-80q-17 0 -29 11t-12 28z" />
<glyph unicode="&#xa9;" horiz-adv-x="1536" d="M102 766q0 135 52.5 259t141.5 214t212 143.5t258 53.5q180 0 334 -90.5t244 -244.5t90 -335q0 -180 -90 -333t-243.5 -242t-334.5 -89t-333.5 89t-241.5 241.5t-89 333.5zM190 766q0 -157 77 -289t209.5 -208t289.5 -76q118 0 224.5 45t184 121.5t123 183t45.5 223.5 q0 157 -77 290.5t-210 211.5t-290 78t-289.5 -78t-209.5 -211.5t-77 -290.5zM444 705v135q0 193 86.5 285t227.5 92q98 0 186 -17q31 -4 31 -29v-57q0 -11 -4.5 -16.5t-9 -6.5t-13.5 -1h-6q-72 10 -184 10q-83 0 -135 -60.5t-52 -199.5v-135q0 -139 52 -199t135 -60 q105 0 184 11h4q29 0 29 -27v-55q0 -27 -31 -31q-72 -14 -186 -14q-141 0 -227.5 91t-86.5 284z" />
<glyph unicode="&#xab;" horiz-adv-x="1257" d="M61 567q0 35 23 58l346 346q20 20 43 20h119q22 0 22 -18q0 -15 -12 -27l-364 -379l364 -379q12 -12 12 -26q0 -19 -22 -19h-119q-22 0 -43 21l-346 346q-23 23 -23 57zM594 567q0 36 22 58l347 346q20 20 43 20h118q23 0 23 -18q0 -15 -12 -27l-365 -379l365 -379 q12 -12 12 -26q0 -19 -23 -19h-118q-22 0 -43 21l-347 346q-22 22 -22 57z" />
<glyph unicode="&#xad;" horiz-adv-x="681" d="M98 559v80q0 17 11 27t28 10h408q39 0 39 -37v-80q0 -35 -39 -35h-408q-39 0 -39 35z" />
<glyph unicode="&#xae;" horiz-adv-x="1224" d="M61 991q0 112 43.5 214t117.5 176t176 117.5t214 43.5t214.5 -43.5t176.5 -117t118 -176t44 -214.5t-44 -214t-118 -175.5t-176.5 -116.5t-214.5 -43t-214 43t-176 116.5t-117.5 175.5t-43.5 214zM147 991q0 -192 136.5 -328.5t328.5 -136.5q127 0 235 62.5t171 169.5 t63 233q0 127 -63 235t-171 171t-235 63q-126 0 -233 -63t-169.5 -171t-62.5 -235zM385 682v618q0 43 37 46q33 6 156 6q135 0 201.5 -47t66.5 -160v-8q0 -146 -137 -185l157 -256q4 -12 4 -18q0 -27 -24 -27h-58q-14 0 -24 17l-166 262l-25 6h-81v-254q0 -11 -8.5 -21 t-20.5 -10h-51q-11 0 -19 10t-8 21zM489 1026q12 0 50 -1t45 -1q86 0 122.5 26t36.5 87v8q0 61 -36 85.5t-123 24.5h-66h-29v-229z" />
<glyph unicode="&#xb4;" horiz-adv-x="763" d="M266 1290q0 13 8 21l201 254q15 19 23 24.5t26 5.5h135q23 0 23 -14q0 -8 -8 -16l-232 -258q-15 -19 -23 -25t-24 -6h-110q-19 0 -19 14z" />
<glyph unicode="&#xb8;" horiz-adv-x="749" d="M104 -371q0 12 9 21l198 254q14 18 23.5 24t27.5 6h136q22 0 22 -14q0 -8 -8 -16l-231 -258q-15 -19 -23.5 -25t-24.5 -6h-110q-19 0 -19 14z" />
<glyph unicode="&#xbb;" horiz-adv-x="1257" d="M111 162q0 14 12 26l364 379l-364 379q-12 12 -12 27q0 18 22 18h119q23 0 43 -20l346 -346q23 -23 23 -58q0 -34 -23 -57l-346 -346q-21 -21 -43 -21h-119q-22 0 -22 19zM643 162q0 14 12 26l365 379l-365 379q-12 12 -12 27q0 18 23 18h118q23 0 43 -20l347 -346 q22 -22 22 -58q0 -35 -22 -57l-347 -346q-21 -21 -43 -21h-118q-23 0 -23 19z" />
<glyph unicode="&#xc2;" horiz-adv-x="1296" d="M59 33q0 12 2 14l379 1333q15 58 52 94.5t75.5 49t81.5 12.5q31 0 59.5 -7t58.5 -23t53.5 -47.5t35.5 -76.5l379 -1335q2 -2 2 -14q0 -33 -35 -33h-121q-22 0 -34 31l-134 471h-530l-131 -471q-12 -31 -37 -31h-121q-35 0 -35 33zM317 1640q0 12 9 21l196 254 q11 14 16 19t13 8.5t20 3.5h174q18 0 28 -6.5t24 -24.5l194 -254q8 -8 8 -21q0 -14 -18 -14h-107q-16 0 -24 6t-23 25l-168 198l-170 -198q-15 -19 -23 -25t-24 -6h-106q-19 0 -19 14zM422 664h452l-186 673q-9 37 -39 37q-32 0 -41 -37z" />
<glyph unicode="&#xc7;" horiz-adv-x="1116" d="M123 618v285q0 144 32.5 257t85 182.5t125 114t145 62t153.5 17.5q132 0 344 -33q32 -3 32 -26v-105q0 -12 -4 -17t-20 -5h-6q-222 18 -344 18q-79 0 -141.5 -24t-112 -76.5t-76.5 -145t-27 -219.5v-285q0 -125 27 -217t76.5 -145t112.5 -77.5t141 -24.5q146 0 338 16h8 q32 0 32 -33v-84q0 -31 -40 -41q-143 -26 -340 -26q-81 0 -153.5 17.5t-145 62.5t-125 114t-85 181.5t-32.5 256.5zM365 -371q0 10 8 21l198 254q23 30 52 30h135q22 0 22 -14q0 -8 -8 -16l-231 -258q-15 -19 -23 -25t-24 -6h-111q-18 0 -18 14z" />
<glyph unicode="&#xce;" horiz-adv-x="546" d="M-76 1640q0 13 8 21l197 254q11 14 16 19t13 8.5t20 3.5h174q18 0 27 -6t24 -25l195 -254q8 -8 8 -21q0 -14 -18 -14h-107q-16 0 -24 6t-23 25l-168 198l-170 -198q-15 -19 -23 -25t-24 -6h-106q-19 0 -19 14zM180 41v1442q0 17 10 28t27 11h113q17 0 27 -11t10 -28 v-1442q0 -18 -10 -29.5t-27 -11.5h-113q-17 0 -27 11.5t-10 29.5z" />
<glyph unicode="&#xd6;" horiz-adv-x="1353" d="M123 629v264q0 166 41.5 291t117 201t175 113.5t221.5 37.5q123 0 222.5 -37.5t174.5 -113.5t115.5 -201t40.5 -291v-264q0 -166 -40.5 -291t-115.5 -201t-174.5 -113.5t-222.5 -37.5q-122 0 -221.5 37.5t-175 113.5t-117 201t-41.5 291zM311 629q0 -475 367 -475 q364 0 364 475v264q0 475 -364 475q-367 0 -367 -475v-264zM418 1698v166q0 17 12 29t29 12h80q17 0 29 -12t12 -29v-166q0 -17 -12 -28t-29 -11h-80q-17 0 -29 11t-12 28zM776 1698v166q0 17 12 29t29 12h80q17 0 29 -12t12 -29v-166q0 -17 -12 -28t-29 -11h-80 q-17 0 -29 11t-12 28z" />
<glyph unicode="&#xdb;" horiz-adv-x="1355" d="M154 553v930q0 17 11 28t28 11h110q17 0 28 -11t11 -28v-930q0 -207 76 -307.5t260 -100.5t260 100t76 308v930q0 17 11 28t28 11h110q17 0 28 -11t11 -28v-930q0 -567 -524 -567q-253 0 -388.5 140t-135.5 427zM330 1640q0 13 8 21l197 254q11 14 16 19t13 8.5t20 3.5 h174q18 0 27 -6t24 -25l195 -254q8 -8 8 -21q0 -14 -19 -14h-106q-16 0 -24 6t-23 25l-168 198l-170 -198q-15 -19 -23 -25t-24 -6h-107q-18 0 -18 14z" />
<glyph unicode="&#xdc;" horiz-adv-x="1355" d="M154 553v930q0 17 11 28t28 11h110q17 0 28 -11t11 -28v-930q0 -207 76 -307.5t260 -100.5t260 100t76 308v930q0 17 11 28t28 11h110q17 0 28 -11t11 -28v-930q0 -567 -524 -567q-253 0 -388.5 140t-135.5 427zM414 1698v166q0 17 12 29t29 12h80q17 0 28.5 -12 t11.5 -29v-166q0 -17 -11.5 -28t-28.5 -11h-80q-17 0 -29 11t-12 28zM772 1698v166q0 17 12 29t29 12h80q17 0 29 -12t12 -29v-166q0 -17 -12 -28t-29 -11h-80q-17 0 -29 11t-12 28z" />
<glyph unicode="&#xe2;" horiz-adv-x="1062" d="M98 317v25q0 171 113 251.5t381 80.5h151v82q0 129 -48.5 180t-170.5 51q-149 0 -313 -16h-10q-37 0 -37 33v71q0 33 43 39q162 27 317 27q208 0 304 -98t96 -287v-715q0 -17 -12 -29t-29 -12h-95q-17 0 -28.5 12t-11.5 29v45q-172 -100 -316 -100q-69 0 -126 16.5 t-105.5 52.5t-75.5 103t-27 159zM188 1290q0 12 9 21l196 254q15 19 23 24.5t26 5.5h174q18 0 28 -6t24 -24l194 -254q8 -8 8 -21q0 -14 -18 -14h-107q-16 0 -24 6t-23 25l-168 198l-170 -198q-15 -19 -23 -25t-24 -6h-106q-19 0 -19 14zM279 319q0 -105 46 -145.5 t142 -40.5q130 0 276 82v330h-151q-182 0 -247.5 -44.5t-65.5 -156.5v-25z" />
<glyph unicode="&#xe7;" horiz-adv-x="925" d="M102 483v160q0 229 114.5 363.5t322.5 134.5q144 0 256 -23q25 -5 33 -13.5t8 -31.5v-74q0 -30 -35 -30h-8q-126 14 -254 14q-256 0 -256 -340v-160q0 -340 256 -340q119 0 254 15h8q35 0 35 -31v-74q0 -21 -8.5 -31t-32.5 -14q-107 -22 -256 -22q-207 0 -322 134 t-115 363zM244 -371q0 13 8 21l199 254q14 18 23.5 24t27.5 6h135q22 0 22 -14q0 -8 -8 -16l-231 -258q-15 -19 -23 -25t-24 -6h-111q-18 0 -18 14z" />
<glyph unicode="&#xee;" horiz-adv-x="505" d="M-90 1290q0 13 8 21l197 254q15 19 23 24.5t26 5.5h174q18 0 27.5 -6t23.5 -24l195 -254q8 -8 8 -21q0 -14 -19 -14h-106q-16 0 -24 6t-23 25l-168 198l-170 -198q-15 -19 -23 -25t-24 -6h-107q-18 0 -18 14zM162 41v1044q0 17 12 29t29 12h98q17 0 29 -12t12 -29v-1044 q0 -17 -12 -29t-29 -12h-98q-17 0 -29 12t-12 29z" />
<glyph unicode="&#xf6;" horiz-adv-x="1116" d="M102 485v156q0 231 117 365.5t338 134.5q222 0 339.5 -134.5t117.5 -365.5v-156q0 -231 -117.5 -365t-339.5 -134q-221 0 -338 134t-117 365zM283 485q0 -342 274 -342q139 0 208 89t69 253v156q0 342 -277 342q-139 0 -206.5 -89t-67.5 -253v-156zM295 1352v166 q0 17 12 29t29 12h80q17 0 29 -12t12 -29v-166q0 -17 -12 -28t-29 -11h-80q-17 0 -29 11t-12 28zM653 1352v166q0 17 12 29t29 12h80q17 0 29 -12t12 -29v-166q0 -17 -12 -28t-29 -11h-80q-17 0 -29 11t-12 28z" />
<glyph unicode="&#xfb;" horiz-adv-x="1140" d="M139 412v673q0 17 12 29t29 12h99q17 0 28.5 -12t11.5 -29v-673q0 -151 53 -211t173 -60q113 0 276 80v864q0 17 12 29t29 12h101q17 0 27.5 -11.5t10.5 -29.5v-1044q0 -18 -10.5 -29.5t-27.5 -11.5h-103q-17 0 -28 12t-11 29v39q-91 -50 -164 -72t-161 -22 q-357 0 -357 426zM231 1290q0 12 9 21l196 254q15 19 23 24.5t26 5.5h174q18 0 28 -6t24 -24l194 -254q8 -8 8 -21q0 -14 -18 -14h-107q-16 0 -24 6t-23 25l-168 198l-170 -198q-15 -19 -23 -25t-24 -6h-106q-19 0 -19 14z" />
<glyph unicode="&#xfc;" horiz-adv-x="1140" d="M139 412v673q0 17 12 29t29 12h99q17 0 28.5 -12t11.5 -29v-673q0 -151 53 -211t173 -60q113 0 276 80v864q0 17 12 29t29 12h101q17 0 27.5 -11.5t10.5 -29.5v-1044q0 -18 -10.5 -29.5t-27.5 -11.5h-103q-17 0 -28 12t-11 29v39q-91 -50 -164 -72t-161 -22 q-357 0 -357 426zM309 1352v166q0 17 12 29t29 12h80q17 0 29 -12t12 -29v-166q0 -17 -12 -28t-29 -11h-80q-17 0 -29 11t-12 28zM668 1352v166q0 17 12 29t29 12h79q17 0 29 -12t12 -29v-166q0 -17 -12 -28t-29 -11h-79q-17 0 -29 11t-12 28z" />
<glyph unicode="&#x11e;" horiz-adv-x="1253" d="M119 623v274q0 144 32.5 257t85 183.5t125.5 116.5t148 64t158 18q223 0 389 -29q35 -4 35 -30v-103q0 -20 -27 -20h-8q-169 14 -389 14q-60 0 -111 -13t-98.5 -46.5t-80.5 -86t-53 -135.5t-20 -190v-274q0 -123 26.5 -215.5t74.5 -147.5t109 -81.5t134 -26.5 q160 0 258 12v586q0 18 10 29.5t27 11.5h111q17 0 28 -12t11 -29v-689q0 -39 -37 -45q-187 -30 -408 -30q-80 0 -153.5 20.5t-143 69t-120.5 120t-82 181.5t-31 246zM293 1970v8q0 27 22 27h76q28 0 31 -33q7 -77 67 -120.5t138 -43.5t137.5 43.5t66.5 120.5q3 33 31 33h76 q23 0 23 -27v-8q-8 -91 -57.5 -158t-121.5 -99t-155 -32t-155 32t-121.5 99t-57.5 158z" />
<glyph unicode="&#x11f;" horiz-adv-x="1144" d="M111 -66q0 81 37 150.5t92 110.5l-15 6q-47 22 -70.5 65t-23.5 94v2q0 44 21.5 84t62.5 64q-94 88 -94 238v16q0 58 13 108t45.5 97.5t83 81.5t130.5 54.5t182 20.5h449q19 0 33 -13t14 -32v-53q0 -19 -8.5 -26.5t-28.5 -12.5l-73 -14q69 -69 69 -211v-16 q0 -174 -110.5 -262.5t-344.5 -88.5q-140 0 -237 41q-51 -23 -51 -69q0 -26 14 -41t49 -25l305 -78q71 -17 120 -32t105 -40.5t90 -55t56.5 -74t22.5 -99.5v-16q0 -318 -467 -318q-239 0 -355 84.5t-116 241.5v18zM238 1561v8q0 26 22 26h76q28 0 31 -32q7 -77 66.5 -120.5 t137.5 -43.5t138 43.5t67 120.5q3 32 31 32h76q22 0 22 -26v-8q-8 -91 -57.5 -158t-121.5 -99t-155 -32t-154.5 32t-121 99t-57.5 158zM287 -66v-18q0 -92 66.5 -139t228.5 -47q86 0 143 11.5t88 35.5t43 55t12 76v16q0 59 -52 90t-198 70l-231 59q-50 -43 -75 -89t-25 -120 zM299 748q0 -38 10.5 -70.5t38 -66t85.5 -53t142 -19.5q81 0 136.5 15t85.5 44t42.5 65t12.5 85v16q0 103 -61.5 161t-215.5 58q-83 0 -139.5 -17.5t-85 -49.5t-40 -68.5t-11.5 -83.5v-16z" />
<glyph unicode="&#x130;" horiz-adv-x="546" d="M180 41v1442q0 17 10 28t27 11h113q17 0 27 -11t10 -28v-1442q0 -18 -10 -29.5t-27 -11.5h-113q-17 0 -27 11.5t-10 29.5zM184 1757v172q0 17 12 28t29 11h99q17 0 27.5 -11t10.5 -28v-172q0 -18 -10.5 -29.5t-27.5 -11.5h-99q-17 0 -29 12t-12 29z" />
<glyph unicode="&#x131;" horiz-adv-x="505" d="M162 41v1044q0 17 12 29t29 12h98q17 0 29 -12t12 -29v-1044q0 -17 -12 -29t-29 -12h-98q-17 0 -29 12t-12 29z" />
<glyph unicode="&#x15e;" horiz-adv-x="1126" d="M102 1174q0 362 490 362q161 0 356 -25q35 -6 35 -34v-88q0 -33 -35 -33h-4q-180 12 -352 12q-164 0 -232.5 -42t-68.5 -152q0 -70 49 -121.5t174 -126.5l188 -113q177 -105 249.5 -199.5t72.5 -218.5q0 -63 -13.5 -118t-49 -110t-91 -94t-145.5 -63t-207 -24 q-160 0 -340 28q-25 4 -32 11.5t-7 25.5v82q0 16 10 24.5t25 8.5h6q184 -12 338 -12q174 0 242.5 62t68.5 179q0 76 -50.5 131t-194.5 144l-199 121q-148 90 -215.5 177.5t-67.5 205.5zM160 -371q0 13 8 21l199 254q14 18 23.5 24t27.5 6h135q22 0 22 -14q0 -8 -8 -16 l-231 -258q-15 -19 -23 -25t-24 -6h-111q-18 0 -18 14z" />
<glyph unicode="&#x15f;" horiz-adv-x="954" d="M100 -371q0 12 9 21l198 254q14 18 23.5 24t27.5 6h136q22 0 22 -14q0 -8 -8 -16l-232 -258q-15 -19 -23 -25t-24 -6h-110q-19 0 -19 14zM102 57v72q0 14 10 22.5t27 8.5h8q221 -23 322 -23q105 0 154 32t49 114q0 46 -32 80t-122 90l-207 122q-102 62 -155.5 131 t-53.5 162q0 77 27.5 132t79.5 85t116 43t148 13q158 0 320 -27q38 -6 38 -41v-67q0 -35 -34 -35h-6q-192 16 -318 16q-98 0 -144 -23.5t-46 -95.5q0 -45 32 -78t109 -77l203 -121q124 -73 174.5 -144.5t50.5 -164.5q0 -150 -102 -223.5t-281 -73.5q-194 0 -324 30 q-43 9 -43 41z" />
<glyph unicode="&#x2c6;" horiz-adv-x="763" d="M41 1290q0 13 8 21l197 254q15 19 23 24.5t26 5.5h174q18 0 27.5 -6t23.5 -24l195 -254q8 -8 8 -21q0 -14 -18 -14h-107q-16 0 -24 6t-23 25l-168 198l-170 -198q-15 -19 -23 -25t-24 -6h-107q-18 0 -18 14z" />
<glyph unicode="&#x2da;" horiz-adv-x="763" d="M174 1440q0 86 61.5 147.5t147.5 61.5t146.5 -61.5t60.5 -147.5t-60.5 -146.5t-146.5 -60.5t-147.5 60.5t-61.5 146.5zM276 1442q0 -44 31.5 -76.5t75.5 -32.5t76.5 32.5t32.5 76.5t-32 75t-77 31q-44 0 -75.5 -31t-31.5 -75z" />
<glyph unicode="&#x2dc;" horiz-adv-x="1009" d="M131 1333v43q0 109 51 166t144 57q61 0 123 -49l145 -114q42 -29 72 -29q32 0 46.5 19t14.5 71v47q0 14 10.5 24.5t24.5 10.5h63q13 0 23 -10.5t10 -24.5v-47q0 -109 -45 -162t-147 -53q-77 0 -131 43l-125 100q-37 30 -51.5 37.5t-32.5 7.5q-36 0 -50 -22.5t-14 -71.5 v-43q0 -13 -11 -24t-24 -11h-63q-13 0 -23 10.5t-10 24.5z" />
<glyph unicode="&#x2000;" horiz-adv-x="1002" />
<glyph unicode="&#x2001;" horiz-adv-x="2005" />
<glyph unicode="&#x2002;" horiz-adv-x="1002" />
<glyph unicode="&#x2003;" horiz-adv-x="2005" />
<glyph unicode="&#x2004;" horiz-adv-x="668" />
<glyph unicode="&#x2005;" horiz-adv-x="501" />
<glyph unicode="&#x2006;" horiz-adv-x="334" />
<glyph unicode="&#x2007;" horiz-adv-x="334" />
<glyph unicode="&#x2008;" horiz-adv-x="250" />
<glyph unicode="&#x2009;" horiz-adv-x="401" />
<glyph unicode="&#x200a;" horiz-adv-x="111" />
<glyph unicode="&#x2010;" horiz-adv-x="681" d="M98 559v80q0 17 11 27t28 10h408q39 0 39 -37v-80q0 -35 -39 -35h-408q-39 0 -39 35z" />
<glyph unicode="&#x2011;" horiz-adv-x="681" d="M98 559v80q0 17 11 27t28 10h408q39 0 39 -37v-80q0 -35 -39 -35h-408q-39 0 -39 35z" />
<glyph unicode="&#x2012;" horiz-adv-x="681" d="M98 559v80q0 17 11 27t28 10h408q39 0 39 -37v-80q0 -35 -39 -35h-408q-39 0 -39 35z" />
<glyph unicode="&#x2013;" horiz-adv-x="870" d="M88 539v79q0 17 11 27t28 10h618q17 0 28 -10t11 -27v-79q0 -35 -39 -35h-618q-39 0 -39 35z" />
<glyph unicode="&#x2014;" horiz-adv-x="1138" d="M88 539v79q0 17 11 27t28 10h885q17 0 28 -10t11 -27v-79q0 -35 -39 -35h-885q-39 0 -39 35z" />
<glyph unicode="&#x2018;" horiz-adv-x="380" d="M59 1098q0 12 2 16l125 387q9 39 39 39h78q19 0 19 -20q0 -13 -3 -19l-75 -387q-9 -39 -41 -39h-121q-23 0 -23 23z" />
<glyph unicode="&#x2019;" horiz-adv-x="380" d="M59 1096q0 14 2 18l76 387q9 39 41 39h121q23 0 23 -22q0 -11 -3 -17l-124 -387q-9 -39 -39 -39h-78q-19 0 -19 21z" />
<glyph unicode="&#x201a;" horiz-adv-x="380" d="M41 -176q0 12 2 14l117 387q12 39 41 39h118q27 0 27 -22q0 -1 -4 -17l-154 -387q-6 -16 -9.5 -23t-10.5 -11.5t-18 -4.5h-84q-25 0 -25 25z" />
<glyph unicode="&#x201c;" horiz-adv-x="688" d="M59 1098q0 12 2 16l125 387q9 39 39 39h78q19 0 19 -20q0 -13 -3 -19l-75 -387q-9 -39 -41 -39h-121q-23 0 -23 23zM367 1098q0 12 2 16l125 387q9 39 38 39h78q19 0 19 -20q0 -15 -2 -19l-76 -387q-9 -39 -41 -39h-121q-22 0 -22 23z" />
<glyph unicode="&#x201d;" horiz-adv-x="688" d="M59 1096q0 14 2 18l76 387q9 39 41 39h121q23 0 23 -22q0 -11 -3 -17l-124 -387q-9 -39 -39 -39h-78q-19 0 -19 21zM367 1096q0 14 2 18l75 387q9 39 41 39h121q23 0 23 -22q0 -13 -2 -17l-125 -387q-9 -39 -39 -39h-78q-18 0 -18 21z" />
<glyph unicode="&#x201e;" horiz-adv-x="688" d="M41 -176q0 12 2 14l117 387q12 39 41 39h118q27 0 27 -22q0 -1 -4 -17l-154 -387q-6 -16 -9.5 -23t-10.5 -11.5t-18 -4.5h-84q-25 0 -25 25zM410 -176q0 12 2 14l116 387q12 39 41 39h119q27 0 27 -22q0 -1 -4 -17l-154 -387q-8 -22 -15.5 -30.5t-23.5 -8.5h-84 q-24 0 -24 25z" />
<glyph unicode="&#x2026;" horiz-adv-x="1241" d="M119 39v192q0 17 12 28t29 11h98q17 0 28 -11t11 -28v-192q0 -17 -11 -28t-28 -11h-98q-17 0 -29 11t-12 28zM532 39v192q0 17 11 28t28 11h99q17 0 29 -11t12 -28v-192q0 -17 -12 -28t-29 -11h-99q-17 0 -28 11t-11 28zM944 39v192q0 17 12 28t29 11h98q17 0 28 -11 t11 -28v-192q0 -17 -11 -28t-28 -11h-98q-17 0 -29 11t-12 28z" />
<glyph unicode="&#x202f;" horiz-adv-x="401" />
<glyph unicode="&#x2039;" horiz-adv-x="724" d="M61 567q0 35 23 58l346 346q20 20 43 20h119q22 0 22 -18q0 -15 -12 -27l-364 -379l364 -379q12 -12 12 -26q0 -19 -22 -19h-119q-22 0 -43 21l-346 346q-23 23 -23 57z" />
<glyph unicode="&#x203a;" horiz-adv-x="724" d="M111 162q0 14 12 26l364 379l-364 379q-12 12 -12 27q0 18 22 18h119q23 0 43 -20l346 -346q23 -23 23 -58q0 -34 -23 -57l-346 -346q-21 -21 -43 -21h-119q-22 0 -22 19z" />
<glyph unicode="&#x205f;" horiz-adv-x="501" />
<glyph unicode="&#x20ac;" d="M106 584v57q0 17 12 29t29 12h66v166h-66q-17 0 -29 12t-12 29v57q0 17 12 29t29 12h68q10 124 50 221.5t96.5 158t130.5 99.5t146 54.5t148 15.5q37 0 72 -2t71 -6t56 -7t60.5 -9.5t52.5 -8.5q32 -3 32 -26v-105q0 -12 -4 -17t-20 -5h-6q-222 18 -312 18q-73 0 -135 -20 t-116 -62.5t-89 -118.5t-45 -180h594q35 0 35 -33q0 -1 -1 -4t-1 -4l-14 -57q-11 -41 -41 -41h-576v-166h527q30 0 30 -31q0 -1 -1 -4t-1 -6l-14 -57q-11 -41 -41 -41h-498q10 -105 45 -182.5t89 -121.5t116.5 -64.5t136.5 -20.5q109 0 306 16h8q33 0 33 -33v-84 q0 -30 -41 -41q-60 -11 -83.5 -14.5t-82.5 -7.5t-142 -4q-76 0 -148.5 16t-147 56.5t-131.5 101.5t-96.5 159.5t-47.5 223.5h-68q-17 0 -29 12t-12 29z" />
<glyph unicode="&#x2122;" horiz-adv-x="1617" d="M51 1440v51q0 13 10 22t23 9h530q13 0 24 -9t11 -22v-51q0 -29 -35 -29h-198v-690q0 -12 -10 -22.5t-23 -10.5h-66q-13 0 -21.5 10t-8.5 23v690h-203q-33 0 -33 29zM723 709v759q0 36 31 39q182 21 372 21q75 0 128.5 -5t101.5 -18.5t78.5 -37t53 -60t32.5 -87.5t10 -120 v-491q0 -21 -21 -21h-84q-20 0 -20 21v491q0 45 -2 72.5t-10 54t-21.5 40.5t-38 25t-59 15t-84.5 4v-702q0 -21 -21 -21h-86q-20 0 -20 21v702q-103 0 -217 -12v-690q0 -21 -19 -21h-84q-20 0 -20 21z" />
<glyph unicode="&#x25fc;" horiz-adv-x="1126" d="M0 0v1126h1126v-1126h-1126z" />
</font>
</defs>
</svg>
