<?xml version="1.0" standalone="no"?>
<!DOCTYPE svg PUBLIC "-//W3C//DTD SVG 1.1//EN" "http://www.w3.org/Graphics/SVG/1.1/DTD/svg11.dtd" >
<svg xmlns="http://www.w3.org/2000/svg">
<metadata></metadata>
<defs>
<font id="pf_handbook_prothin" horiz-adv-x="911" >
<font-face units-per-em="2048" ascent="1536" descent="-512" />
<missing-glyph horiz-adv-x="409" />
<glyph horiz-adv-x="2048" />
<glyph horiz-adv-x="2048" />
<glyph unicode="&#xd;" horiz-adv-x="2048" />
<glyph unicode=" "  horiz-adv-x="409" />
<glyph unicode="&#x09;" horiz-adv-x="409" />
<glyph unicode="&#xa0;" horiz-adv-x="409" />
<glyph unicode="!" horiz-adv-x="507" d="M184 59q0 29 21.5 50.5t50.5 21.5q32 0 53 -20.5t21 -51.5t-21 -51t-53 -20q-29 0 -50.5 21t-21.5 50zM201 1243q0 19 20 19h62q11 0 16 -5t4 -14l-20 -905q0 -16 -17 -16h-18q-17 0 -17 16z" />
<glyph unicode="&#x22;" horiz-adv-x="444" d="M100 872v379q0 13 15 13h45q14 0 14 -13v-379q0 -12 -14 -12h-45q-15 0 -15 12zM272 872v379q0 13 17 13h45q15 0 12 -13v-379q0 -12 -12 -12h-45q-17 0 -17 12z" />
<glyph unicode="#" d="M47 397q3 10 8 41q4 15 21 15h121q13 0 16 14l70 326q3 11 0.5 14.5t-13.5 3.5h-139q-13 0 -10 12q0 1 8 39q4 15 16 15h146q11 0 14 14l53 246q2 10 15 10h43q15 0 12 -17l-51 -235q-3 -18 14 -18h234q11 0 14 14l53 246q2 10 17 10h41q15 0 12 -17l-49 -233 q-2 -12 0.5 -16t15.5 -4h121q17 0 12 -19l-8 -33q-3 -14 -16 -14h-127q-18 0 -21 -14l-69 -324q-2 -12 1 -16t13 -4h147q13 0 9 -15l-7 -39q-5 -12 -16 -12h-152q-15 0 -18 -12l-59 -281q-3 -10 -15 -10h-41q-17 0 -14 16l59 271q0 6 -0.5 9t-4 5t-11.5 2h-229 q-17 0 -19 -12l-61 -281q-3 -10 -15 -10h-41q-17 0 -14 16l60 269q2 10 -1 14t-14 4h-119q-12 0 -12 10zM285 469q-2 -9 1 -12.5t15 -3.5h231q14 0 17 16l69 326q2 9 -0.5 12.5t-13.5 3.5h-227q-20 0 -23 -16z" />
<glyph unicode="$" d="M109 924q0 123 84.5 205t205.5 100q13 3 13 16v115q0 14 14 14h35q14 0 14 -14v-115q0 -11 17 -14q142 -6 258 -86q9 -13 0 -25l-31 -39q-11 -11 -25 2q-104 78 -239 78q-47 0 -92 -14.5t-84 -42.5t-62.5 -76t-23.5 -108q0 -43 18.5 -79t43.5 -58.5t67.5 -43.5t71.5 -31 t75 -24q70 -21 124.5 -47t104.5 -64t77.5 -93.5t27.5 -123.5q0 -138 -87 -218.5t-224 -96.5q-17 0 -17 -16v-138q0 -14 -14 -14h-35q-14 0 -14 14v138q0 14 -19 14q-154 9 -272 92q-10 10 0 23l33 39q10 9 22 -3q106 -79 252 -79q122 0 206.5 61t84.5 174q0 46 -17.5 85.5 t-42 65t-62 48t-66 34t-66.5 23.5q-42 12 -66.5 20t-67 25t-68.5 32.5t-58.5 41t-51 53.5t-31.5 66.5t-13 83.5z" />
<glyph unicode="%" horiz-adv-x="1320" d="M86 686v387q0 92 60.5 146.5t162.5 54.5q103 0 165.5 -53.5t62.5 -147.5v-387q0 -94 -60.5 -147.5t-167.5 -53.5q-103 0 -163 54.5t-60 146.5zM162 688q0 -61 39.5 -100t107.5 -39q69 0 111.5 36.5t42.5 102.5v385q0 60 -41.5 98.5t-112.5 38.5q-66 0 -106.5 -38.5 t-40.5 -98.5v-385zM332 -49l579 1362q7 12 19 12h31q15 0 12 -14l-580 -1360q-5 -12 -18 -12h-35q-14 0 -8 12zM782 193v387q0 91 61.5 145.5t162.5 54.5q102 0 163.5 -53.5t61.5 -146.5v-387q0 -95 -59 -148t-166 -53q-103 0 -163.5 54t-60.5 147zM856 193q0 -62 41 -102 t109 -40q69 0 111 37.5t42 104.5v387q0 60 -41.5 98.5t-111.5 38.5q-67 0 -108.5 -39.5t-41.5 -97.5v-387z" />
<glyph unicode="&#x26;" horiz-adv-x="1167" d="M143 332v471q0 138 99.5 228.5t253.5 90.5h284q19 0 19 -14v-45q0 -16 -17 -16h-286q-117 0 -192 -68.5t-75 -177.5v-465q0 -116 69 -196.5t196 -80.5h38q90 0 152.5 41.5t89.5 103.5t27 138v254q0 16 -19 16h-286q-15 0 -15 15v43q0 16 17 16h393q77 0 139 17.5 t131 62.5q8 4 13 4q9 0 12 -8l22 -35q4 -8 4 -12q0 -10 -8 -15q-128 -81 -297 -88q-20 0 -20 -22v-205q0 -84 -20.5 -154t-62 -125.5t-111 -86.5t-161.5 -31h-38q-161 0 -256 96.5t-95 247.5z" />
<glyph unicode="'" horiz-adv-x="313" d="M117 872v379q0 13 14 13h47q15 0 15 -13l-3 -379q0 -12 -12 -12h-45q-16 0 -16 12z" />
<glyph unicode="(" horiz-adv-x="606" d="M154 543q0 223 97 463t216 391q11 14 27 4l24 -12q13 -10 6 -21q-124 -183 -198 -399t-74 -426q0 -218 76 -423.5t196 -379.5q10 -14 -4 -21l-28 -18q-17 -14 -27 2q-130 154 -220.5 381.5t-90.5 458.5z" />
<glyph unicode=")" horiz-adv-x="606" d="M133 -260q273 403 273 803q0 210 -74.5 426t-198.5 399q-7 11 6 21l25 12q15 9 26 -4q74 -94 142.5 -225t120 -304t51.5 -325q0 -231 -90.5 -458.5t-220.5 -381.5q-10 -16 -27 -2l-29 18q-14 7 -4 21z" />
<glyph unicode="*" horiz-adv-x="720" d="M84 1104l14 43q9 24 31 14l195 -80q10 -5 10 9l-17 210q0 23 25 23h43q13 0 19 -6.5t4 -16.5l-17 -208q-1 -9 1.5 -11.5t8.5 0.5l193 78q26 10 31 -12l16 -43q7 -24 -14 -27l-203 -49q-7 -1 -9 -6.5t3 -9.5l133 -160q17 -20 -2 -31l-35 -24q-24 -16 -35 4l-106 178 q-9 13 -21 -2l-108 -176q-12 -20 -33 -4l-35 24q-21 12 -4 33l135 158q3 2 4 5t-1.5 5.5t-8.5 3.5l-201 51q-21 5 -16 27z" />
<glyph unicode="+" d="M66 465v41q0 18 16 18h319q7 0 9 2.5t2 10.5v335q0 17 18 17h41q16 0 16 -17v-337q0 -11 13 -11h325q19 0 19 -18v-39q0 -18 -19 -18h-325q-13 0 -13 -11v-336q0 -16 -16 -16h-41q-18 0 -18 16v336q0 11 -13 11h-317q-16 0 -16 16z" />
<glyph unicode="," horiz-adv-x="342" d="M98 -193l19 310q0 20 20 20h84q28 0 19 -26l-76 -308q-5 -18 -21 -18h-30q-18 0 -15 22z" />
<glyph unicode="-" horiz-adv-x="610" d="M121 461v55q0 14 14 14h338q12 0 12 -14v-55q0 -15 -12 -15h-338q-14 0 -14 15z" />
<glyph unicode="." horiz-adv-x="337" d="M98 57q0 29 21 49.5t49 20.5q32 0 52 -19.5t20 -50.5q0 -30 -20 -49.5t-52 -19.5q-28 0 -49 20t-21 49z" />
<glyph unicode="/" horiz-adv-x="581" d="M8 -121l496 1485q5 16 22 16h29q17 0 14 -16l-497 -1485q-6 -16 -19 -16h-30q-8 0 -13 4.5t-2 11.5z" />
<glyph unicode="0" d="M125 307v654q0 145 91 231t245 86t246 -84.5t92 -232.5v-654q0 -152 -88.5 -236.5t-247.5 -84.5q-157 0 -247.5 86t-90.5 235zM211 309q0 -110 68.5 -179t181.5 -69q112 0 182 65t70 183v647q0 109 -68.5 177.5t-183.5 68.5q-112 0 -181 -69t-69 -177v-647z" />
<glyph unicode="1" d="M227 1034v58q0 20 13 28l206 131q18 11 29 11h45q10 0 10 -11v-1237q0 -14 -12 -14h-61q-13 0 -13 12v1125q0 15 -12 6l-188 -115q-8 -4 -12.5 -2t-4.5 8z" />
<glyph unicode="2" d="M86 18v31q0 33 12 47l455 598q65 85 101 162t36 127q0 100 -66 159.5t-175 59.5q-69 0 -134.5 -28t-97.5 -72q-16 -20 -31 -8l-36 26q-8 5 -9.5 12t4.5 13q46 64 128 98.5t176 34.5q144 0 236.5 -73t92.5 -216q0 -136 -157 -340l-422 -557q-7 -9 -5 -11.5t13 -2.5h561 q14 0 14 -15v-49q0 -14 -12 -14h-664q-20 0 -20 18z" />
<glyph unicode="3" d="M80 119q-8 15 8 28l31 25q11 7 14 6t14 -12q12 -13 46 -43q76 -64 184 -64q112 0 190 77t78 196v84q0 17 -4 45q-12 85 -72.5 138.5t-154.5 53.5h-135q-15 0 -15 15v49q0 14 12 14h138q95 0 161 63.5t66 166.5q0 106 -63 173.5t-183 67.5q-70 0 -128.5 -26t-92.5 -72 q-12 -23 -31 -10l-41 26q-7 5 -6 12.5t6 12.5q45 65 122.5 99t170.5 34q157 0 245.5 -84t88.5 -227q0 -97 -54.5 -173.5t-119.5 -95.5q-8 0 -8 -6q0 -4 8 -8q61 -15 102.5 -60.5t57.5 -97t16 -104.5v-82q0 -159 -97.5 -255.5t-258.5 -96.5q-132 0 -207 49q-54 37 -88 82z " />
<glyph unicode="4" d="M82 324v32q0 34 12 56l443 837q7 15 22 15h55q9 0 13 -6t-2 -17l-449 -842q-9 -18 8 -18h389q11 0 13 4.5t2 15.5v385q0 15 16 15h53q15 0 15 -15v-383q0 -12 3.5 -17t14.5 -5h156q14 0 14 -14v-45q0 -15 -14 -15h-154q-7 0 -10 -0.5t-5.5 -4t-2.5 -11.5v-277 q0 -14 -15 -14h-55q-16 0 -16 14v277q0 10 -3.5 13t-13.5 3h-471q-18 0 -18 17z" />
<glyph unicode="5" d="M130.5 137q0.5 6 10.5 13l41 24q9 5 14 3.5t15 -11.5q79 -105 219 -105q118 0 189 66.5t71 181.5v174q0 108 -68 176t-186 68q-35 0 -78 -14t-73 -35q-24 -21 -47 -10l-45 26q-21 12 -21 35v520q0 15 16 15h547q15 0 15 -15v-49q0 -12 -15 -12h-461q-14 0 -14 -14v-404 q0 -25 27 -10q73 45 159 45q156 0 243 -87t87 -229v-167q0 -159 -93.5 -247.5t-252.5 -88.5q-207 0 -295 137q-5 8 -4.5 14z" />
<glyph unicode="6" d="M127 307v633q0 152 97.5 245t250.5 93q188 0 293 -129q12 -15 -2 -23l-39 -32q-17 -11 -27 6q-79 102 -221 102q-120 0 -193 -74.5t-73 -187.5v-266q0 -19 16 -6q93 112 248 112q154 0 244 -87t90 -224v-158q0 -151 -92 -238t-250 -87q-153 0 -247.5 84.5t-94.5 236.5z M213 313q0 -113 70.5 -183.5t185.5 -70.5q121 0 187.5 70t68.5 188v146q0 112 -71.5 175.5t-186.5 63.5q-103 0 -178.5 -72.5t-75.5 -174.5v-142z" />
<glyph unicode="7" d="M127 1059v190q0 15 16 15h633q23 0 23 -19v-33q0 -16 -11 -38q-497 -1133 -507 -1158q-7 -16 -25 -16h-61q-19 0 -13 18l508 1151q8 19 -14 19h-451q-18 0 -18 -17v-112q0 -15 -14 -15h-52q-14 0 -14 15z" />
<glyph unicode="8" d="M94 344q0 115 55 202t134 120q5 1 7 4t0 6.5t-7 5.5q-81 36 -124.5 112.5t-43.5 157.5q0 146 95 237t249 91q157 0 250.5 -90t93.5 -236q0 -82 -45.5 -157t-120.5 -115q-7 -3 -8 -8t6 -8q184 -93 184 -314q0 -173 -105 -269.5t-265 -96.5t-257.5 92t-97.5 266zM184 340 q0 -131 75 -205t190 -74q74 0 135.5 28.5t103 94.5t41.5 160q0 135 -78.5 213t-195.5 78q-113 0 -192 -79t-79 -216zM203 950q0 -101 75 -170t179 -69q105 0 180.5 67.5t75.5 173.5q0 111 -68.5 181.5t-187.5 70.5q-113 0 -183.5 -71t-70.5 -183z" />
<glyph unicode="9" d="M102 801v143q0 151 97 242.5t258 91.5q150 0 239.5 -90.5t89.5 -247.5v-592q0 -170 -100 -266t-258 -96q-95 0 -171 35.5t-122 101.5q-12 15 2 24l41 27q18 9 27 -6q83 -107 219 -107q122 0 199 77.5t77 213.5v240q0 20 -14 6q-98 -113 -250 -113t-243 89.5t-91 226.5z M188 805q0 -113 71 -178.5t190 -65.5q103 0 177 73t74 175v135q0 114 -67.5 187t-181.5 73q-120 0 -191.5 -74t-71.5 -186v-139z" />
<glyph unicode=":" horiz-adv-x="337" d="M98 55q0 29 20 49.5t48 20.5q32 0 53 -19.5t21 -48.5q0 -31 -21 -50t-53 -19q-28 0 -48 19.5t-20 47.5zM98 702q0 28 20 48t48 20q32 0 53 -20t21 -48q0 -30 -21 -50.5t-53 -20.5q-28 0 -48 21t-20 50z" />
<glyph unicode=";" horiz-adv-x="354" d="M96 -193l19 310q0 20 22 20h84q25 0 19 -26l-78 -308q-3 -18 -21 -18h-30q-15 0 -15 22zM111 702q0 28 20 49t47 21q32 0 53 -20t21 -50q0 -29 -21 -49t-53 -20q-28 0 -47.5 20t-19.5 49z" />
<glyph unicode="&#x3c;" d="M51 502v35q0 19 23 30l755 404q6 3 12 3.5t10.5 -4t4.5 -12.5v-38q0 -20 -22 -31l-672 -363q-8 -3 -8 -8q0 -3 8 -8l672 -356q22 -11 22 -33v-43q0 -15 -12 -15l-15 5l-749 399q-29 15 -29 35z" />
<glyph unicode="=" d="M70 303v35q0 18 16 18h737q17 0 17 -18v-33q0 -18 -17 -18h-737q-16 0 -16 16zM70 674v35q0 18 16 18h737q17 0 17 -18v-33q0 -19 -17 -19h-737q-16 0 -16 17z" />
<glyph unicode="&#x3e;" d="M51 78v43q0 20 23 33l674 356q12 6 0 12l-672 367q-25 11 -25 31v38q0 17 15 17q4 0 12 -4l760 -404q20 -10 20 -26v-39q0 -18 -31 -35l-749 -399l-15 -5q-12 0 -12 15z" />
<glyph unicode="?" horiz-adv-x="905" d="M164 1145q45 65 123.5 101t173.5 36q141 0 231 -81.5t90 -223.5q0 -86 -51.5 -169t-152.5 -149q-101 -64 -145 -121.5t-44 -144.5v-96q0 -16 -12 -16h-55q-19 0 -19 18v107q0 77 39.5 148.5t112.5 121.5q58 39 92 65t72.5 64.5t56.5 80t18 89.5q0 30 -6.5 59.5 t-23.5 60.5t-43 55t-68.5 39t-95.5 15q-68 0 -128 -28.5t-96 -75.5q-11 -16 -26 -4l-41 26q-16 9 -2 23zM272 57q0 28 21.5 48t50.5 20q31 0 51.5 -19.5t20.5 -48.5t-21 -50t-51 -21q-29 0 -50.5 21t-21.5 50z" />
<glyph unicode="@" horiz-adv-x="1462" d="M117 596q0 185 80 334t229 236t340 87q170 0 306.5 -66.5t218 -196t81.5 -300.5q0 -213 -85.5 -323.5t-217.5 -110.5q-40 0 -84 16.5t-67 53.5q-4 8 -7 8q-4 0 -10 -6q-35 -38 -83.5 -58t-92.5 -20q-96 0 -164.5 64t-68.5 163q0 96 67 159.5t166 63.5q97 0 156 -65 q2 -2 6 -2q12 0 12 16v37q0 168 -180 168q-57 0 -150 -39q-18 -9 -22 8l-10 35q-2 4 -2 8q0 6 10 11q84 38 182 38q123 0 181.5 -63t58.5 -174v-244q0 -110 102 -110q107 0 170.5 100t63.5 262q0 96 -30.5 179.5t-82.5 142.5t-120.5 101t-144 62.5t-153.5 20.5 q-258 0 -422 -167.5t-164 -428.5q0 -269 166.5 -433.5t433.5 -164.5q174 0 334 63q15 5 17 5q8 0 14 -15l12 -31q5 -15 -20 -24q-180 -64 -348 -64q-305 0 -491.5 179.5t-186.5 484.5zM563 477q0 -66 47.5 -114t114.5 -48q74 0 118 46.5t44 115.5q0 67 -43 113.5t-119 46.5 q-67 0 -114.5 -46.5t-47.5 -113.5z" />
<glyph unicode="A" d="M29 18l358 1231q4 15 16 15h97q16 0 18 -15l363 -1226q2 -7 2 -12q0 -11 -13 -11h-61q-16 0 -21 12l-88 299q-2 8 -12 8h-473q-8 0 -10 -6q-3 -15 -43 -150.5t-43 -150.5q-3 -12 -19 -12h-57q-9 0 -13 4q-2 2 -2 5q0 4 1 9zM231 410q-1 -4 -1 -8q0 -7 8 -7h428q11 0 11 9 q0 2 -1 4l-144 489l-75 270q-1 6 -5 6t-6 -6l-75 -272z" />
<glyph unicode="B" horiz-adv-x="966" d="M125 16v1231q0 17 14 17h377q150 0 239 -81t89 -231q0 -82 -42.5 -156.5t-125.5 -109.5q-4 -2 -4 -5t4 -5q99 -33 151 -123t52 -197q0 -159 -92 -257.5t-248 -98.5h-400q-14 0 -14 16zM213 90q0 -10 14 -10h310q117 0 185.5 77t68.5 195q0 122 -74.5 204.5t-198.5 82.5 h-293q-12 0 -12 -14v-535zM213 731q0 -6 0.5 -8.5t3 -4t8.5 -1.5h293q107 0 172.5 64.5t65.5 170.5t-63.5 170t-176.5 64h-291q-5 0 -7 -0.5t-3.5 -3t-1.5 -8.5v-443z" />
<glyph unicode="C" horiz-adv-x="845" d="M119 322v626q0 141 100.5 235.5t259.5 94.5q203 0 309 -129q6 -6 6 -12q0 -7 -8 -15l-36 -30q-13 -13 -29 6q-37 48 -104.5 75t-137.5 27q-120 0 -196 -72.5t-76 -181.5v-620q0 -113 74 -188t204 -75q67 0 130.5 26t107.5 73q20 23 35 10l30 -27q10 -8 10 -16 q0 -5 -5 -10q-119 -131 -308 -131q-168 0 -267 92t-99 242z" />
<glyph unicode="D" horiz-adv-x="968" d="M127 16v1231q0 17 14 17h383q167 0 253.5 -83.5t86.5 -246.5v-592q0 -164 -90 -253t-252 -89h-381q-14 0 -14 16zM215 90q0 -12 14 -12h293q119 0 185.5 65.5t66.5 190.5v596q0 122 -58.5 189t-197.5 67h-289q-14 0 -14 -12v-1084z" />
<glyph unicode="E" horiz-adv-x="878" d="M125 16v1231q0 17 16 17h635q15 0 15 -17v-47q0 -14 -15 -14h-547q-6 0 -9 -0.5t-5 -3t-2 -8.5v-469q0 -8 2.5 -10.5t11.5 -2.5h478q14 0 14 -16v-47q0 -15 -14 -15h-478q-14 0 -14 -14v-510q0 -12 14 -12h574q16 0 16 -15v-47q0 -16 -16 -16h-660q-16 0 -16 16z" />
<glyph unicode="F" horiz-adv-x="813" d="M125 14v1233q0 17 18 17h639q15 0 15 -15v-49q0 -14 -15 -14h-553q-14 0 -14 -12v-472q0 -8 1.5 -10t10.5 -2h469q15 0 15 -16v-49q0 -15 -15 -15h-467q-8 0 -11 -2.5t-3 -11.5l-2 -582q0 -14 -12 -14h-60q-16 0 -16 14z" />
<glyph unicode="G" horiz-adv-x="944" d="M119 317v635q0 140 103.5 233t260.5 93q97 0 183.5 -34t130.5 -97q10 -16 -4 -27l-37 -28q-18 -14 -31 6q-36 50 -102.5 76t-137.5 26q-123 0 -200.5 -73.5t-77.5 -182.5v-622q0 -116 79.5 -187.5t198.5 -71.5q122 0 197.5 68.5t75.5 190.5v262q0 14 -13 14h-180 q-16 0 -16 14v50q0 16 16 16h264q7 0 13 -5t6 -11v-343q0 -146 -100 -239.5t-263 -93.5q-161 0 -263.5 90t-102.5 241z" />
<glyph unicode="H" horiz-adv-x="1021" d="M125 14v1235q0 15 16 15h58q14 0 14 -15v-547q0 -12 14 -12h570q8 0 10 2.5t2 9.5v547q0 15 16 15h58q16 0 16 -15v-1235q0 -14 -14 -14h-60q-16 0 -16 14v584q0 14 -12 14h-570q-14 0 -14 -14v-584q0 -14 -14 -14h-58q-16 0 -16 14z" />
<glyph unicode="I" horiz-adv-x="411" d="M160 14v1235q0 15 16 15h57q17 0 17 -15v-1235q0 -14 -17 -14h-57q-16 0 -16 14z" />
<glyph unicode="J" horiz-adv-x="464" d="M-55 -168q-1 5 -1 9q0 13 15 18q57 20 98 41.5t69.5 48t46 54t27 67t12.5 78.5t3 96v1001q0 17 16 17h54q18 0 18 -17v-993q0 -112 -12 -182t-47.5 -127.5t-96.5 -95t-163 -72.5q-6 -1 -10 -1q-14 0 -17 13z" />
<glyph unicode="K" horiz-adv-x="962" d="M123 12v1233q0 19 16 19h62q12 0 12 -19v-583q0 -14 3 -17t15 8l533 596q13 13 24 13h62q11 0 13 -6.5t-3 -12.5l-438 -495q-15 -17 8 -17q41 10 109 10q295 -5 319 -329l27 -398q0 -14 -15 -14h-53q-8 0 -11 2.5t-3 11.5l-27 375q-3 45 -8.5 78t-23 74t-45.5 67 t-78.5 44t-118.5 18q-79 0 -137.5 -25t-90.5 -68t-46.5 -90t-14.5 -100v-373q0 -14 -12 -14h-62q-16 0 -16 12z" />
<glyph unicode="L" horiz-adv-x="808" d="M117 16v1233q0 15 16 15h57q15 0 15 -15v-1157q0 -12 14 -12h555q14 0 14 -14v-50q0 -16 -14 -16h-639q-18 0 -18 16z" />
<glyph unicode="M" horiz-adv-x="1234" d="M106 14v1223q0 10 6.5 18.5t18.5 8.5h47q24 0 29 -19l291 -772q23 -58 61 -165t49 -136q3 -6 7.5 -6t7.5 6l110 303q183 483 291 772q10 17 29 17h47q24 0 24 -27v-1223q0 -14 -14 -14h-55q-17 0 -17 14v1014q0 10 -8 2l-180 -477q-106 -274 -186 -485q-10 -19 -27 -19 h-45q-20 0 -27 17l-198 522l-166 440q-6 6 -8 0v-1014q0 -14 -15 -14h-55q-17 0 -17 14z" />
<glyph unicode="N" horiz-adv-x="1017" d="M119 16v1221q0 27 22 27h47q16 0 31 -19l588 -1069q2 -3 4 -4t3 0t1 4v1071q0 17 14 17h58q14 0 14 -15v-1224q0 -25 -24 -25h-46q-20 0 -30 16q-28 53 -300 544t-288 521q-2 3 -4 4t-3 0t-1 -4v-1065q0 -16 -17 -16h-55q-14 0 -14 16z" />
<glyph unicode="O" horiz-adv-x="974" d="M119 338v600q0 148 101 244t265 96q168 0 269.5 -94t101.5 -246v-610q0 -153 -99 -247.5t-270 -94.5q-176 0 -272 98.5t-96 253.5zM207 342q0 -119 70 -199t210 -80q132 0 206.5 73.5t74.5 195.5v602q0 113 -72.5 188.5t-208.5 75.5q-131 0 -205.5 -75.5t-74.5 -188.5 v-592z" />
<glyph unicode="P" d="M133 14v1233q0 17 19 17h385q153 0 243 -93.5t90 -242.5q0 -147 -91.5 -240.5t-239.5 -93.5h-303q-15 0 -15 -16v-564q0 -14 -16 -14h-55q-17 0 -17 14zM219 686q0 -16 17 -16h301q118 0 182.5 71t64.5 189q0 109 -66.5 182.5t-180.5 73.5h-299q-19 0 -19 -12v-488z" />
<glyph unicode="Q" horiz-adv-x="974" d="M119 326v622q0 144 105.5 237t260.5 93q160 0 265.5 -91t105.5 -239v-629q0 -137 -83.5 -225.5t-227.5 -103.5q-15 -2 -15 -19q0 -77 23.5 -117t95.5 -40q62 0 125 24q19 8 25 -8l14 -37q2 -12 0 -16.5t-10 -9.5q-70 -33 -156 -33q-113 0 -158 62t-45 175q0 19 -14 19 q-140 15 -225.5 108.5t-85.5 227.5zM207 330q0 -117 75.5 -192t204.5 -75q123 0 202 71.5t79 189.5v620q0 108 -78 182t-203 74q-122 0 -201 -74t-79 -182v-614z" />
<glyph unicode="R" horiz-adv-x="952" d="M125 14v1229q0 19 22 19h369q168 0 259 -91t91 -247q0 -115 -57 -206t-143 -143q-10 -6 -2 -18l247 -534q3 -7 3 -11t-2 -6q-4 -6 -13 -6h-53q-24 0 -33 23l-235 507q-9 25 -35 25h-314q-16 0 -16 -16v-525q0 -14 -14 -14h-58q-16 0 -16 14zM213 647q0 -16 14 -16h353 q23 0 38 10q71 39 114.5 112.5t43.5 157.5q0 41 -7 77t-26 73.5t-49.5 64t-81.5 43.5t-118 17h-261q-20 0 -20 -17v-522z" />
<glyph unicode="S" horiz-adv-x="874" d="M63 117q-4 4 -4 10q0 7 9 16l26 27q13 13 29 0q53 -44 129.5 -75.5t144.5 -31.5q141 0 228.5 67t87.5 192q0 61 -19 107.5t-59.5 80t-81.5 55t-107 47.5q-146 57 -201 89q-165 96 -165 251q0 102 50.5 178t128.5 112t169 36q191 0 315 -94q13 -9 2 -27l-24 -37 q-11 -16 -29 -2q-51 37 -121 58.5t-135 21.5q-50 0 -96 -13.5t-85.5 -41.5t-63 -77t-23.5 -114q0 -34 11.5 -64t36 -54.5t48 -42.5t63 -37t64 -29.5t66.5 -26.5q63 -25 104.5 -44.5t91.5 -52.5t79 -68.5t49 -87.5t20 -115q0 -163 -113 -251.5t-289 -88.5q-98 0 -189.5 34 t-146.5 93z" />
<glyph unicode="T" horiz-adv-x="819" d="M25 1200v47q0 17 14 17h741q15 0 15 -15v-49q0 -14 -15 -14h-313q-6 0 -9 -0.5t-5 -3t-2 -8.5v-1160q0 -14 -15 -14h-55q-19 0 -19 14v1160q0 12 -14 12h-309q-8 0 -11 2.5t-3 11.5z" />
<glyph unicode="U" horiz-adv-x="980" d="M121 326v923q0 15 16 15h58q14 0 14 -15v-919q0 -115 75.5 -191t209.5 -76q130 0 204 75.5t74 189.5v921q0 15 16 15h58q14 0 14 -15v-923q0 -153 -103 -246.5t-265 -93.5q-170 0 -270.5 95t-100.5 245z" />
<glyph unicode="V" horiz-adv-x="858" d="M20 1243q-2 6 -2 10q0 11 17 11h59q15 0 21 -15l200 -727l113 -420q1 -3 2.5 -4t3 0t2.5 4q4 18 56.5 210.5t56.5 209.5l196 727q5 15 21 15h59q17 0 17 -14q0 -5 -2 -11l-351 -1227q-2 -12 -18 -12h-84q-13 0 -16 14z" />
<glyph unicode="W" horiz-adv-x="1304" d="M4 1245v6q0 13 14 13h62q14 0 18 -19q13 -61 78 -353.5t96 -449.5q14 -60 36 -169t30 -148q2 -3 5 -3.5t5 3.5l62 289q3 14 16 75t55 254.5t111 505.5q4 15 20 15h66q15 0 18 -19q24 -103 77.5 -331t80.5 -347l100 -442q1 -4 3.5 -6t5 -0.5t2.5 6.5l90 450 q80 378 139 672q6 17 20 17h60q12 0 14 -7q1 -3 2 -7q0 -4 -2 -9l-270 -1229q-3 -12 -17 -12h-88q-11 0 -14 10q-70 311 -156 674l-96 422q0 5 -4 4l-2 -4l-92 -426l-148 -670q-5 -10 -18 -10h-86q-11 0 -14 10z" />
<glyph unicode="X" horiz-adv-x="845" d="M20 6q-1 2 0 4q0 4 3 10l342 621q10 20 0 35l-312 569q-5 7 -2 13t12 6h64q21 0 25 -11l266 -497q3 -4 7.5 -3.5t6.5 3.5q12 22 135.5 248t134.5 249q4 11 23 11h59q9 0 12.5 -5.5t0.5 -13.5q-12 -22 -154 -279t-160 -290q-11 -17 0 -33q18 -35 177.5 -321t168.5 -302 q2 -6 2 -10q0 -10 -12 -10h-61q-20 0 -25 10l-301 551q-6 14 -14 2l-301 -553q-7 -10 -25 -10h-59q-11 0 -13 6z" />
<glyph unicode="Y" horiz-adv-x="825" d="M29 1243q-4 7 -4 11q0 10 16 10h57q15 0 25 -17l285 -647q4 -6 5.5 -6t6.5 6q12 30 141 323t141 324q11 17 27 17h57q16 0 16 -10q0 -5 -5 -13l-330 -725q-10 -23 -10 -49v-453q0 -14 -15 -14h-57q-16 0 -16 14v443q0 31 -9 51z" />
<glyph unicode="Z" horiz-adv-x="804" d="M37 18v33q0 19 8 39l606 1081q6 9 3.5 12t-13.5 3h-557q-18 0 -18 16v45q0 17 16 17h657q23 0 23 -21v-31q0 -23 -12 -43l-598 -1073q-11 -16 8 -16h594q16 0 16 -17v-47q0 -16 -14 -16h-699q-20 0 -20 18z" />
<glyph unicode="[" horiz-adv-x="622" d="M193 -276v1646q0 16 14 16h256q12 0 12 -16v-45q0 -12 -12 -12h-168q-16 0 -16 -15v-1503q0 -14 16 -14h168q12 0 12 -12v-45q0 -15 -12 -15h-256q-14 0 -14 15z" />
<glyph unicode="\" horiz-adv-x="581" d="M12 1364q-6 16 13 16h28q18 0 23 -16l497 -1485q1 -7 -3 -11.5t-11 -4.5h-31q-15 0 -18 16z" />
<glyph unicode="]" horiz-adv-x="624" d="M109 -233q0 14 12 14h168q16 0 16 14v1503q0 13 -16 13h-168q-12 0 -12 14v45q0 14 12 14h256q14 0 14 -14v-1649q0 -14 -12 -14h-258q-12 0 -12 14v46z" />
<glyph unicode="^" horiz-adv-x="1028" d="M147 815l326 449q11 16 23 16h34q15 0 25 -16l332 -449q11 -11 -4 -24l-23 -19q-11 -9 -24 4l-312 373q-8 9 -11 9t-11 -9l-301 -365q-12 -18 -23 -10l-26 21q-13 10 -5 20z" />
<glyph unicode="_" horiz-adv-x="1024" d="M-8 -178q0 14 16 14h1010q12 0 12 -14v-41q0 -12 -12 -12h-1010q-14 0 -14 12z" />
<glyph unicode="`" horiz-adv-x="823" d="M266 1245q-18 22 10 35l46 25q24 12 36 -9l140 -254l1 -2q6 -15 -7 -24l-23 -12q-15 -8 -27 8z" />
<glyph unicode="a" horiz-adv-x="782" d="M57 283q0 132 82.5 218.5t229.5 86.5q64 0 122 -22.5t93 -63.5q8 -7 13 -4t5 12v94q0 223 -223 223q-49 0 -113.5 -12.5t-103.5 -30.5q-14 -10 -21 7l-18 43q-3 12 10 18q105 51 252 51q158 0 230.5 -77t72.5 -228v-584q0 -14 -14 -14h-53q-13 0 -13 12v80q0 13 -6 13.5 t-12 -7.5q-79 -108 -238 -108q-139 0 -217 80t-78 213zM137 287q0 -102 56.5 -165t171.5 -63q101 0 167 67.5t66 164.5t-62 163t-165 66q-109 0 -171.5 -67t-62.5 -166z" />
<glyph unicode="b" horiz-adv-x="841" d="M104 12v1278q0 15 17 15h57q12 0 12 -13v-483q0 -13 6 -16.5t15 6.5q95 102 242 102q86 0 150 -29t99 -79t51.5 -107.5t16.5 -122.5v-254q0 -142 -83.5 -230.5t-240.5 -88.5q-74 0 -138 26.5t-101 71.5q-9 10 -15 8.5t-6 -12.5v-70q0 -14 -14 -14h-51q-17 0 -17 12z M188 309q0 -106 70 -177t178 -71q128 0 188 66.5t60 185.5v254q0 113 -60.5 186.5t-185.5 73.5q-107 0 -178.5 -75t-71.5 -181v-262z" />
<glyph unicode="c" horiz-adv-x="759" d="M92 313v262q0 146 94.5 236t241.5 90q177 0 274 -129q10 -16 -4 -24l-36 -31q-12 -9 -27 6q-35 49 -90.5 76.5t-118.5 27.5q-108 0 -179 -70.5t-71 -178.5v-265q0 -114 70.5 -182t181.5 -68q135 0 211 103q9 15 23 4l36 -23q11 -8 11 -18q0 -4 -2 -8q-92 -131 -281 -131 q-155 0 -244.5 87.5t-89.5 235.5z" />
<glyph unicode="d" horiz-adv-x="856" d="M98 309v258q0 51 11.5 98t36.5 90.5t62 75.5t92 51t122 19q77 0 138.5 -27.5t94.5 -74.5q9 -11 15 -8t6 16v483q0 15 14 15h58q14 0 14 -13v-1280q0 -12 -14 -12h-54q-12 0 -12 14v70q0 10 -7 12t-16 -6q-35 -46 -98.5 -73t-138.5 -27q-153 0 -238.5 88.5t-85.5 230.5z M182 313q0 -113 64.5 -182.5t183.5 -69.5q108 0 178 71t70 177v262q0 106 -70.5 180t-177.5 74q-123 0 -185.5 -73.5t-62.5 -184.5v-254z" />
<glyph unicode="e" horiz-adv-x="835" d="M98 311v258q0 151 94 241.5t236 90.5q149 0 241.5 -88t92.5 -252v-88q0 -17 -8.5 -26t-20.5 -9h-526q-25 0 -25 -26v-99q0 -108 69 -179t181 -71q135 0 207 101q12 17 27 6l39 -25q11 -9 8 -22q-42 -65 -116.5 -99t-166.5 -34q-152 0 -242 87.5t-90 233.5zM182 532 q0 -22 25 -22h450q19 0 19 22v48q0 108 -68.5 177.5t-179.5 69.5q-104 0 -175 -70.5t-71 -174.5v-50z" />
<glyph unicode="f" horiz-adv-x="526" d="M35 831v46q0 14 12 14h96q19 0 19 18v146q0 129 68.5 196.5t187.5 67.5q80 0 135 -19q10 -3 13 -6q1 -2 1 -5t-2 -7l-10 -47q-4 -15 -20 -10q-49 18 -105 18q-99 0 -141.5 -53t-42.5 -152v-129q0 -18 16 -18h242q12 0 12 -14v-48q0 -12 -12 -12h-246q-12 -2 -12 -18v-787 q0 -12 -15 -12h-57q-14 0 -14 12v787q0 15 -13 18h-100q-12 0 -12 14z" />
<glyph unicode="g" horiz-adv-x="849" d="M88 590q0 127 93 219t233 92q125 0 211 -72q8 -8 14 -8t14 8q78 64 172 70h6q15 0 15 -20v-62q0 -16 -12 -16h-7q-29 0 -67.5 -8.5t-57.5 -16.5q-10 -3 -10 -10q0 -5 8 -21q41 -62 41 -151q0 -143 -97.5 -231.5t-233.5 -88.5q-43 0 -68 5q-22 0 -41 -13 q-46 -31 -82.5 -81.5t-36.5 -94.5q0 -30 7 -37t30 -2q145 29 248 29q104 0 187.5 -23.5t140.5 -80.5t57 -142q0 -71 -40 -133.5t-107 -101.5q-10 -6 -17 -6q-9 0 -14 8l-27 37q-9 15 8 26q44 29 76.5 72.5t32.5 91.5t-26 83.5t-70 54.5t-93 27.5t-104 8.5q-59 0 -305 -29 q-20 -3 -30.5 2.5t-20.5 28.5q-15 34 -15 90q0 44 37.5 105t100.5 106q6 3 6 8q0 3 -8 11h-3q-68 40 -106.5 110.5t-38.5 155.5zM174 588q0 -97 65 -169.5t171 -72.5q112 0 178.5 72.5t66.5 173.5q0 98 -66 165.5t-173 67.5q-106 0 -174 -69.5t-68 -167.5z" />
<glyph unicode="h" horiz-adv-x="876" d="M111 12v1278q0 15 14 15h57q13 0 13 -15v-485q0 -12 6.5 -14.5t13.5 6.5q88 104 248 104q83 0 145 -28t98 -76t53 -106.5t17 -125.5v-551q0 -14 -14 -14h-57q-15 0 -15 12v555q0 114 -61 187t-187 73q-107 0 -176 -74t-69 -182v-557q0 -14 -15 -14h-57q-14 0 -14 12z" />
<glyph unicode="i" horiz-adv-x="352" d="M111 1151q0 26 18 43.5t43 17.5q26 0 43.5 -17.5t17.5 -43.5t-18 -45t-43 -19t-43 18.5t-18 45.5zM127 12v865q0 14 14 14h58q14 0 14 -14v-865q0 -12 -14 -12h-58q-14 0 -14 12z" />
<glyph unicode="j" horiz-adv-x="335" d="M-100 -336l10 45q3 13 20 10q27 -8 74 -8q73 0 100 39t27 125v1002q0 14 14 14h58q14 0 14 -14v-1008q0 -118 -50.5 -177t-156.5 -59q-61 0 -98 13q-12 2 -12 13v5zM113 1151q0 26 18 43.5t43 17.5q26 0 44 -17.5t18 -43.5t-18 -45t-42 -19q-26 0 -44.5 18.5t-18.5 45.5z " />
<glyph unicode="k" horiz-adv-x="831" d="M106 12v1278q0 15 15 15h59q13 0 13 -13v-817q0 -30 22 -12l420 418q13 10 29 10h71q7 0 10 -4.5t0 -9.5l-319 -322q-6 -7 -6 -11t3 -5t7 0q10 2 29 2q142 0 217.5 -83.5t83.5 -234.5l10 -205q0 -18 -16 -18h-54q-16 0 -16 16l-10 207q-5 110 -62 178t-176 68 q-101 0 -172 -68.5t-71 -162.5v-224q0 -14 -13 -14h-57q-17 0 -17 12z" />
<glyph unicode="l" horiz-adv-x="399" d="M143 166v1124q0 15 13 15h57q14 0 14 -15v-1095q0 -66 20.5 -95.5t78.5 -29.5h20q16 0 16 -19v-47q0 -14 -16 -14h-39q-97 0 -130.5 46t-33.5 130z" />
<glyph unicode="m" horiz-adv-x="1359" d="M104 12v580q0 138 89.5 223.5t222.5 85.5q167 0 258 -143q10 -13 20 0q40 65 115.5 104t151.5 39q143 0 219.5 -82t76.5 -227v-578q0 -14 -12 -14h-59q-15 0 -15 12v580q0 106 -56 170.5t-169 64.5q-88 0 -154.5 -69.5t-66.5 -165.5v-578q0 -14 -14 -14h-58q-14 0 -14 12 v580q0 98 -64.5 166.5t-154.5 68.5q-110 0 -170 -65.5t-60 -169.5v-578q0 -14 -12 -14h-59q-15 0 -15 12z" />
<glyph unicode="n" horiz-adv-x="874" d="M109 12v865q0 14 14 14h55q12 0 12 -14v-76q0 -12 6 -14t15 8q44 50 110.5 78t139.5 28q83 0 145 -27.5t98 -75.5t53 -106.5t17 -126.5v-551q0 -14 -12 -14h-60q-14 0 -14 12v555q0 114 -60 187t-188 73q-107 0 -176 -74t-69 -182v-557q0 -14 -15 -14h-57q-14 0 -14 12z " />
<glyph unicode="o" horiz-adv-x="862" d="M100 315v263q0 146 90 234.5t244 88.5q153 0 241.5 -87.5t88.5 -238.5v-256q0 -156 -87 -242.5t-243 -86.5q-159 0 -246.5 87t-87.5 238zM184 317q0 -119 64.5 -187.5t185.5 -68.5t183.5 68.5t62.5 189.5v254q0 113 -63.5 183.5t-182.5 70.5q-109 0 -179.5 -71.5 t-70.5 -180.5v-258z" />
<glyph unicode="p" horiz-adv-x="870" d="M113 -356v1233q0 14 14 14h53q15 0 15 -14v-76q0 -9 5.5 -10t14.5 8q37 47 100.5 74.5t137.5 27.5q150 0 236.5 -88t86.5 -231v-256q0 -65 -17.5 -123t-53.5 -107.5t-99.5 -78.5t-146.5 -29q-150 0 -240 104q-20 20 -20 -8v-440q0 -13 -15 -13h-57q-14 0 -14 13zM197 319 q0 -106 70 -182t177 -76q125 0 186.5 73t61.5 188v253q0 116 -63 184t-185 68q-108 0 -177.5 -69.5t-69.5 -175.5v-263z" />
<glyph unicode="q" horiz-adv-x="856" d="M86 326v254q0 142 87 231.5t237 89.5q74 0 137 -27t100 -73q9 -10 15 -7.5t6 13.5v70q0 14 14 14h53q15 0 15 -14v-1239q0 -15 -15 -15h-57q-14 0 -14 15v444q0 13 -5 16t-16 -8q-38 -47 -99.5 -74.5t-137.5 -27.5q-69 0 -124 18t-91.5 48.5t-60.5 74t-34 92.5t-10 105z M170 322q0 -114 59 -186.5t189 -72.5q107 0 177.5 74.5t70.5 181.5v261q0 108 -69 177.5t-179 69.5q-115 0 -181.5 -68t-66.5 -181v-256z" />
<glyph unicode="r" horiz-adv-x="520" d="M115 12v865q0 14 14 14h53q13 0 13 -14v-99q0 -26 16 -4q40 57 99.5 94t127.5 37q36 0 60 -6q16 -5 14 -20l-14 -60q-3 -16 -23 -12q-28 4 -51 4q-105 0 -164 -72t-59 -188v-537q0 -14 -13 -14h-57q-16 0 -16 12z" />
<glyph unicode="s" horiz-adv-x="696" d="M49 152q-3 4 -3 8q0 6 9 10l45 23q11 6 21 -9q31 -56 94 -90.5t133 -34.5q94 0 152.5 44.5t58.5 117.5q0 40 -15.5 70.5t-47 53.5t-57 35.5t-68.5 29.5q-7 3 -37.5 14t-41 15t-39 16t-41 19t-36 21t-35 25.5t-27.5 29t-23.5 35t-13 39.5t-5.5 46q0 73 41.5 127t103 78.5 t133.5 25.5q82 0 152.5 -26.5t115.5 -75.5q10 -13 -2 -25l-28 -33q-12 -13 -27 2q-40 38 -97 61t-114 23q-43 0 -84.5 -13.5t-75.5 -49.5t-34 -88q0 -26 8.5 -47.5t28.5 -40t35.5 -30.5t48 -26t46 -19.5t48.5 -18.5q36 -14 58 -23t54 -24.5t52 -29t43 -34.5t35.5 -43.5 t21 -52.5t8.5 -64q0 -96 -76.5 -165.5t-220.5 -69.5q-96 0 -177.5 42t-119.5 122z" />
<glyph unicode="t" horiz-adv-x="569" d="M37 831v46q0 14 12 14h115q14 0 14 16v209q0 14 15 17l55 14h4q12 0 12 -14v-226q0 -16 12 -16h228q14 0 14 -14v-46q0 -14 -14 -14h-225q-15 0 -15 -18v-551q0 -96 32 -140.5t105 -44.5q55 0 129 19q19 5 23 -12l8 -41q2 -14 -10 -19q-51 -20 -162 -20q-62 0 -104.5 18 t-65 52.5t-32 76t-9.5 96.5v566q0 18 -16 18h-113q-12 0 -12 14z" />
<glyph unicode="u" horiz-adv-x="872" d="M104 326v551q0 14 13 14h59q12 0 12 -14v-555q0 -113 59.5 -184.5t188.5 -71.5q109 0 177.5 72.5t68.5 180.5v558q0 14 14 14h58q16 0 16 -14v-863q0 -14 -16 -14h-56q-12 0 -12 12v76q0 14 -5.5 16t-14.5 -8q-41 -51 -109 -78.5t-141 -27.5q-87 0 -149.5 27.5t-97 76 t-50 106t-15.5 126.5z" />
<glyph unicode="v" horiz-adv-x="759" d="M25 872q-1 5 -1 8q0 11 13 11h51q18 0 27 -21l170 -489l88 -268q2 -5 4.5 -6.5t5 0t4.5 6.5l86 262l168 493q4 9 6 12.5t7 7t14 3.5h53q13 0 13 -11q0 -4 -1 -8l-305 -854q-3 -11 -7 -14.5t-15 -3.5h-50q-14 0 -18.5 3t-7.5 13z" />
<glyph unicode="w" horiz-adv-x="1155" d="M20 872q-1 3 -1 5q0 12 12 12h53q20 0 25 -19l124 -495l60 -254q2 -5 5 -7t5 0t2 7l72 252l147 495q3 13 7.5 17t15.5 4h51q11 0 16 -4t9 -17l153 -499l72 -248q2 -5 5 -7t5 0t2 7l58 248l120 499q3 12 8.5 16.5t18.5 4.5h51q12 0 14 -4q1 -2 1 -6q0 -3 -1 -7l-229 -854 q-3 -11 -7.5 -14.5t-14.5 -3.5h-48q-15 0 -19 2t-7 12l-156 490l-71 239q0 5 -2.5 7t-5 0.5t-3.5 -7.5l-69 -243l-150 -484q-2 -8 -5 -11.5t-6.5 -4t-10.5 -0.5h-50q-10 0 -13.5 0.5t-7 4t-5.5 11.5z" />
<glyph unicode="x" horiz-adv-x="702" d="M20 18l269 426q9 15 9 23.5t-9 21.5l-238 383q-5 6 -2.5 12.5t12.5 6.5h54q15 0 21.5 -3t13.5 -16l196 -321q8 -15 16 2l195 319q7 13 13.5 16t21.5 3h53q10 0 12.5 -6.5t-2.5 -12.5l-239 -385q-12 -20 0 -36l272 -433q4 -6 4 -10q0 -8 -14 -8h-55q-24 0 -35 18l-226 367 q-9 18 -18 0l-225 -367q-11 -18 -33 -18h-55q-15 0 -15 8q0 4 4 10z" />
<glyph unicode="y" horiz-adv-x="739" d="M16 872q-1 3 -1 6q0 13 16 13h51q16 0 24 -17l240 -782q3 -10 8 -10q8 0 11 10l262 780q5 19 22 19h49q20 0 17 -19l-412 -1224q-4 -23 -31 -23h-41q-21 0 -14 25l111 338q4 12 -6 12h-13q-19 0 -24 18z" />
<glyph unicode="z" horiz-adv-x="692" d="M49 18v29q0 22 8 33l459 719q12 18 -10 18h-424q-16 0 -16 14v43q0 17 14 17h530q21 0 21 -21v-30q0 -24 -6 -33l-459 -715q-10 -18 12 -18h463q16 0 16 -15v-45q0 -14 -14 -14h-575q-19 0 -19 18z" />
<glyph unicode="{" horiz-adv-x="616" d="M84 537v43q0 4 0.5 7.5t2 6t2.5 4t4.5 3.5t4.5 2.5t5.5 2.5t5.5 2q82 33 114.5 93t32.5 153v276q0 148 53.5 210t186.5 61h34q13 0 13 -15v-45q0 -12 -13 -12h-38q-92 0 -123 -38.5t-31 -141.5v-332q0 -76 -39.5 -146.5t-110.5 -101.5q-16 -10 0 -14q72 -29 111 -100.5 t39 -163.5v-344q0 -103 31 -141.5t123 -38.5h38q13 0 13 -13v-45q0 -14 -13 -14h-34q-133 -1 -186.5 60.5t-53.5 209.5v303q0 91 -31.5 151.5t-111.5 92.5q-11 5 -16 7.5t-9 7t-4 10.5z" />
<glyph unicode="|" horiz-adv-x="403" d="M164 -217v1585q0 14 14 14h43q12 0 12 -12v-1587q0 -12 -12 -12h-43q-14 0 -14 12z" />
<glyph unicode="}" horiz-adv-x="616" d="M88 -246q0 15 12 15h41q90 0 121 38.5t31 141.5v342q0 92 39 164t110 100q16 4 0 14q-71 31 -110 101.5t-39 146.5v332q0 102 -31 141t-121 39h-41q-12 0 -12 12v45q0 15 14 15h35q133 1 186.5 -61t53.5 -210v-276q0 -92 32 -151.5t113 -94.5q1 0 5.5 -2t5.5 -2.5 t4.5 -2.5t4.5 -3.5t2.5 -4t2 -6t0.5 -7.5v-43q0 -6 -3.5 -10t-9 -7.5t-16.5 -7.5q-80 -32 -111.5 -92.5t-31.5 -151.5v-303q0 -147 -52.5 -209t-185.5 -61h-35q-14 0 -14 14v45z" />
<glyph unicode="~" d="M33 586q43 61 100.5 92t118.5 31q74 0 180 -56q3 -2 21 -11.5t22.5 -12t21 -11t22.5 -11.5t21 -9.5t23 -9t21.5 -7t23 -6t21 -3t22.5 -1.5q44 0 85 27.5t71 67.5q13 19 24 8l39 -31q11 -9 4 -22q-41 -63 -100 -98.5t-121 -35.5q-37 0 -80.5 12t-72.5 24.5t-74 35.5 q-1 1 -17.5 10t-20 10.5t-18.5 9.5t-21 10.5t-19 8.5t-21 8t-19.5 5.5t-21 4.5t-18.5 1q-84 0 -162 -95q-7 -7 -18 0l-35 31q-9 9 -2 23z" />
<glyph unicode="&#xa2;" d="M147 311v232q0 144 67.5 239t195.5 113q11 1 16 2.5t7.5 5.5t2.5 12v127q0 15 17 15h34q17 0 17 -15v-129q0 -16 16 -16q142 -9 236 -123q11 -13 -2 -26l-39 -33q-17 -9 -27 6q-76 104 -217 104q-112 0 -175 -71t-63 -176v-267q0 -107 64 -177.5t170 -70.5q75 0 126.5 25 t96.5 78q8 12 25 4l39 -25q11 -7 12 -13t-4 -13q-81 -114 -244 -127q-14 0 -14 -15v-139q0 -14 -12 -14h-41q-15 0 -15 12v144q0 10 -14 14q-130 10 -202.5 97t-72.5 220z" />
<glyph unicode="&#xa3;" d="M68 618v48q0 14 14 14h92q19 0 19 20v269q6 134 101.5 221.5t242.5 87.5q189 -6 292 -127q15 -15 -2 -29l-36 -30q-14 -14 -25 2q-37 49 -99 78.5t-128 29.5q-112 0 -186 -67.5t-74 -173.5v-267q0 -14 12 -14h260q12 0 12 -14v-48q0 -14 -12 -14h-260q-12 0 -12 -14v-238 q0 -93 -11.5 -154.5t-50.5 -107.5q-2 -2 -2 -8t10 -6h545q14 0 14 -15v-47q0 -14 -12 -14h-688q-14 0 -14 12v37q0 22 22 33q56 33 78.5 92.5t22.5 161.5v256q-3 10 -15 10h-96q-14 0 -14 16z" />
<glyph unicode="&#xa5;" d="M84 1245q-10 19 10 19h60q12 0 22 -17q28 -59 84.5 -172t83.5 -172l105 -221q6 -18 14 -2l123 262l147 303q4 6 5.5 9t4.5 5.5t6.5 3.5t8.5 1h55q14 0 14 -9q0 -4 -4 -12l-278 -571q-1 -1 -2 -4q-9 -21 2 -24l8 -1h256q14 0 14 -12v-37q0 -14 -14 -14h-692q-15 0 -15 14 v35q0 14 15 14h239q7 0 10.5 5t0.5 11zM102 438v37q0 12 15 12h692q14 0 14 -12v-37q0 -14 -14 -14h-293q-18 0 -18 -21v-391q0 -12 -15 -12h-57q-14 0 -14 12v391q0 21 -19 21h-276q-15 0 -15 14z" />
<glyph unicode="&#xa8;" horiz-adv-x="833" d="M211 1149q0 26 17 43.5t42 17.5t42.5 -17.5t17.5 -43.5t-18 -44t-42 -18t-41.5 18.5t-17.5 43.5zM524 1149q0 26 17.5 43.5t42.5 17.5t43 -17.5t18 -43.5q0 -25 -17.5 -43.5t-41.5 -18.5q-26 0 -44 18.5t-18 43.5z" />
<glyph unicode="&#xa9;" horiz-adv-x="1433" d="M131 487v289q0 222 162.5 355t427.5 133q267 0 430.5 -130t163.5 -358v-289q0 -228 -163.5 -357.5t-430.5 -129.5q-265 0 -427.5 132.5t-162.5 354.5zM184 481q0 -88 35 -166t100.5 -138t169 -95t230.5 -35q168 0 293.5 59t188.5 156.5t63 218.5v301q0 190 -146 312.5 t-399 122.5q-128 0 -231 -34.5t-168.5 -94t-100.5 -138t-35 -168.5v-301zM473 506v219q0 108 72.5 177t187.5 69q147 0 219 -101q6 -13 -4 -18l-26 -18q-15 -11 -23 2q-56 79 -168 79q-86 0 -141 -53.5t-55 -138.5v-213q0 -84 57 -139.5t141 -55.5q50 0 94 20.5t72 57.5 q12 16 23 8l28 -20q11 -7 4 -21q-78 -100 -221 -100q-117 0 -188.5 67t-71.5 179z" />
<glyph unicode="&#xab;" horiz-adv-x="915" d="M147 381q-17 25 0 47l259 315q14 19 36 19h52q12 0 15 -7t-5 -16l-264 -323q-8 -12 0 -23l264 -330q7 -9 3.5 -15.5t-13.5 -6.5h-52q-23 0 -39 18zM446 428l259 315q14 19 36 19h52q12 0 15 -7t-5 -16l-264 -323q-6 -10 -6 -13t6 -10l264 -330q7 -9 3.5 -15.5t-13.5 -6.5 h-52q-23 0 -36 18l-256 322q-19 25 -3 47z" />
<glyph unicode="&#xad;" horiz-adv-x="610" d="M121 461v55q0 14 14 14h338q12 0 12 -14v-55q0 -15 -12 -15h-338q-14 0 -14 15z" />
<glyph unicode="&#xae;" horiz-adv-x="823" d="M88 893v162q0 118 86.5 192t233.5 74q146 0 234.5 -73t88.5 -193v-162q0 -122 -83.5 -194t-239.5 -72q-146 0 -233 75t-87 191zM127 895q0 -102 75 -166.5t206 -64.5q132 0 207 63.5t75 167.5v158q0 105 -75 167t-207 62q-131 0 -206 -63.5t-75 -165.5v-158zM301 797v352 q0 5 4.5 9.5t11.5 4.5h111q55 0 84 -28t29 -74q0 -31 -21.5 -60.5t-46.5 -39.5q-9 -5 -2 -19l74 -147q4 -11 -10 -11h-23q-3 0 -5 0.5t-4 2.5t-2.5 3t-2 3.5t-2.5 3.5l-70 143q-5 10 -16 10h-52q-9 0 -11.5 -2.5t-2.5 -11.5v-139q0 -13 -10 -13h-19q-14 0 -14 13zM344 997 q0 -8 3 -10t11 -2h68q25 0 48.5 22.5t23.5 51.5t-18.5 47t-47.5 18h-74q-14 0 -14 -12v-115z" />
<glyph unicode="&#xb4;" horiz-adv-x="823" d="M365 1044l139 254q14 24 37 11l43 -27q14 -8 14 -18q0 -3 -6 -15l-178 -237q-11 -15 -27 -6l-18 12q-13 8 -4 26z" />
<glyph unicode="&#xb8;" horiz-adv-x="761" d="M289 -338l16 23q7 11 17 4q58 -35 110 -35q59 0 89 23.5t30 64.5q0 88 -102 88h-68q-37 0 -37 29q0 8 2 12l37 135q6 17 14 17h37q3 0 5 -2.5t2 -4.5t-0.5 -5.5t-0.5 -4.5q-3 -9 -14.5 -54t-11.5 -48q0 -2 -1 -4.5t-1 -3.5q0 -13 14 -13h27q73 0 117 -37t44 -102 q0 -60 -49 -100.5t-129 -40.5q-40 0 -81.5 11.5t-65.5 29.5q-8 8 0 18z" />
<glyph unicode="&#xbb;" horiz-adv-x="915" d="M122 753q3 7 15 7h53q21 0 35 -17l258 -317q19 -22 0 -47l-256 -322q-16 -18 -39 -18h-51q-10 0 -13 6.5t5 17.5l262 328q6 7 6 10t-6 13l-264 325q-8 7 -5 14zM422 753q3 7 14 7h53q21 0 35 -17l258 -317q17 -22 0 -47l-256 -322q-16 -18 -39 -18h-51q-8 0 -11.5 6.5 t3.5 17.5l264 328q8 11 0 23l-266 325q-7 7 -4 14z" />
<glyph unicode="&#xc2;" d="M29 18l358 1231q4 15 16 15h97q16 0 18 -15l363 -1226q8 -23 -11 -23h-61q-16 0 -21 12l-88 299q-2 8 -12 8h-473q-8 0 -10 -6q-3 -15 -43 -150.5t-43 -150.5q-3 -12 -19 -12h-57q-10 0 -13.5 3.5t-0.5 14.5zM195 1346q0 6 6 12l190 192q15 15 33 15h51q18 0 31 -15 q98 -94 192 -192q8 -8 8 -12t-8 -11q-21 -16 -28 -16q-9 0 -15 6q-15 12 -196 152q-13 11 -27 0l-188 -152q-6 -6 -15 -6q-7 0 -28 16q-6 6 -6 11zM231 410q-5 -15 7 -15h428q13 0 10 13l-144 489l-75 270q-1 6 -5 6t-6 -6l-75 -272z" />
<glyph unicode="&#xc7;" horiz-adv-x="845" d="M119 322v626q0 141 100.5 235.5t259.5 94.5q203 0 309 -129q12 -13 -2 -27l-36 -30q-13 -13 -29 6q-37 48 -104.5 75t-137.5 27q-120 0 -196 -72.5t-76 -181.5v-620q0 -113 74 -188t204 -75q67 0 130.5 26t107.5 73q20 23 35 10l30 -27q17 -14 5 -26q-119 -131 -308 -131 h-6q-20 -73 -20 -84q0 -2 -1 -4.5t-1 -3.5q0 -13 14 -13h27q73 0 117 -37t44 -102q0 -60 -49 -100.5t-129 -40.5q-40 0 -81.5 11.5t-65.5 29.5q-8 8 0 18l16 23q7 11 17 4q58 -35 110 -35q59 0 89 23.5t30 64.5q0 88 -102 88h-68q-37 0 -37 29q0 8 2 12l33 121 q-141 15 -223 105t-82 225z" />
<glyph unicode="&#xce;" horiz-adv-x="411" d="M-51 1350q0 6 6 12l190 192q15 15 33 15h51q19 0 31 -15q109 -105 193 -192q7 -8 7 -12t-7 -11q-21 -16 -29 -16t-14 6q-28 23 -61 48t-73 55.5t-63 48.5q-13 11 -27 0l-188 -152q-6 -6 -14 -6t-29 16q-6 6 -6 11zM160 14v1235q0 15 16 15h57q17 0 17 -15v-1235 q0 -14 -17 -14h-57q-16 0 -16 14z" />
<glyph unicode="&#xd6;" horiz-adv-x="974" d="M119 338v600q0 148 101 244t265 96q168 0 269.5 -94t101.5 -246v-610q0 -153 -99 -247.5t-270 -94.5q-176 0 -272 98.5t-96 253.5zM207 342q0 -119 70 -199t210 -80q132 0 206.5 73.5t74.5 195.5v602q0 113 -72.5 188.5t-208.5 75.5q-131 0 -205.5 -75.5t-74.5 -188.5 v-592zM276 1442q0 26 17.5 43.5t42.5 17.5t42 -17.5t17 -43.5t-17 -44t-42 -18t-42.5 18t-17.5 44zM592 1442q0 26 17 43.5t42 17.5t42.5 -17.5t17.5 -43.5t-17.5 -44t-42.5 -18t-42 18t-17 44z" />
<glyph unicode="&#xdb;" horiz-adv-x="980" d="M121 326v923q0 15 16 15h58q14 0 14 -15v-919q0 -115 75.5 -191t209.5 -76q130 0 204 75.5t74 189.5v921q0 15 16 15h58q14 0 14 -15v-923q0 -153 -103 -246.5t-265 -93.5q-170 0 -270.5 95t-100.5 245zM246 1346q0 6 6 12l190 192q15 15 33 15h51q18 0 31 -15 q109 -105 193 -192q8 -8 8 -12t-8 -11q-21 -16 -29 -16t-14 6q-28 23 -61 48t-73 55.5t-63 48.5q-13 11 -27 0l-188 -152q-6 -6 -14 -6t-29 16q-6 6 -6 11z" />
<glyph unicode="&#xdc;" horiz-adv-x="980" d="M121 326v923q0 15 16 15h58q14 0 14 -15v-919q0 -115 75.5 -191t209.5 -76q130 0 204 75.5t74 189.5v921q0 15 16 15h58q14 0 14 -15v-923q0 -153 -103 -246.5t-265 -93.5q-170 0 -270.5 95t-100.5 245zM262 1442q0 26 17.5 43.5t42.5 17.5t42 -17.5t17 -43.5t-17 -44 t-42 -18t-42.5 18t-17.5 44zM578 1442q0 26 17 43.5t42 17.5t42 -17.5t17 -43.5t-17 -44t-42 -18t-42 18t-17 44z" />
<glyph unicode="&#xe2;" horiz-adv-x="782" d="M57 283q0 132 82.5 218.5t229.5 86.5q64 0 122 -22.5t93 -63.5q8 -7 13 -4t5 12v94q0 223 -223 223q-49 0 -113.5 -12.5t-103.5 -30.5q-14 -10 -21 7l-18 43q-3 12 10 18q105 51 252 51q158 0 230.5 -77t72.5 -228v-584q0 -14 -14 -14h-53q-13 0 -13 12v80q0 13 -6 13.5 t-12 -7.5q-79 -108 -238 -108q-139 0 -217 80t-78 213zM137 287q0 -102 56.5 -165t171.5 -63q101 0 167 67.5t66 164.5t-62 163t-165 66q-109 0 -171.5 -67t-62.5 -166zM164 1055l192 239q17 17 33 17h51q17 0 31 -17l193 -235q13 -16 0 -27l-17 -14q-10 -10 -26 2l-199 197 q-10 11 -21 0l-192 -197q-12 -16 -27 -4l-16 14q-12 12 -2 25z" />
<glyph unicode="&#xe7;" horiz-adv-x="759" d="M92 313v262q0 146 94.5 236t241.5 90q177 0 274 -129q10 -16 -4 -24l-36 -31q-12 -9 -27 6q-35 49 -90.5 76.5t-118.5 27.5q-108 0 -179 -70.5t-71 -178.5v-265q0 -114 70.5 -182t181.5 -68q135 0 211 103q9 15 23 4l36 -23q16 -12 9 -26q-89 -128 -273 -131 q-20 -73 -20 -86q0 -2 -1 -4.5t-1 -3.5q0 -13 14 -13h27q73 0 117 -37t44 -102q0 -60 -49 -100.5t-129 -40.5q-40 0 -81.5 11.5t-65.5 29.5q-8 8 0 18l16 23q7 11 17 4q58 -35 110 -35q59 0 89 23.5t30 64.5q0 88 -102 88h-68q-37 0 -37 29q0 8 2 12l33 121 q-134 13 -210.5 99t-76.5 222z" />
<glyph unicode="&#xee;" horiz-adv-x="352" d="M-80 1055l193 239q17 17 32 17h52q16 0 30 -17l193 -235q13 -16 0 -27l-17 -14q-10 -10 -26 2l-199 197q-10 10 -20 0l-193 -197q-12 -15 -26 -4l-17 14q-12 12 -2 25zM127 12v865q0 14 14 14h58q14 0 14 -14v-865q0 -12 -14 -12h-58q-14 0 -14 12z" />
<glyph unicode="&#xf6;" horiz-adv-x="862" d="M100 315v263q0 146 90 234.5t244 88.5q153 0 241.5 -87.5t88.5 -238.5v-256q0 -156 -87 -242.5t-243 -86.5q-159 0 -246.5 87t-87.5 238zM184 317q0 -119 64.5 -187.5t185.5 -68.5t183.5 68.5t62.5 189.5v254q0 113 -63.5 183.5t-182.5 70.5q-109 0 -179.5 -71.5 t-70.5 -180.5v-258zM219 1149q0 26 17.5 43.5t42.5 17.5t42 -17.5t17 -43.5t-17.5 -44t-41.5 -18q-25 0 -42.5 18.5t-17.5 43.5zM532 1149q0 26 17.5 43.5t42.5 17.5t43 -17.5t18 -43.5q0 -25 -17.5 -43.5t-41.5 -18.5q-26 0 -44 18.5t-18 43.5z" />
<glyph unicode="&#xfb;" horiz-adv-x="872" d="M104 326v551q0 14 13 14h59q12 0 12 -14v-555q0 -113 59.5 -184.5t188.5 -71.5q109 0 177.5 72.5t68.5 180.5v558q0 14 14 14h58q16 0 16 -14v-863q0 -14 -16 -14h-56q-12 0 -12 12v76q0 14 -5.5 16t-14.5 -8q-41 -51 -109 -78.5t-141 -27.5q-87 0 -149.5 27.5t-97 76 t-50 106t-15.5 126.5zM176 1055l193 239q17 17 32 17h52q16 0 30 -17l193 -235q13 -16 0 -27l-17 -14q-10 -10 -26 2l-199 197q-10 10 -20 0l-193 -197q-12 -15 -26 -4l-17 14q-12 12 -2 25z" />
<glyph unicode="&#xfc;" horiz-adv-x="872" d="M104 326v551q0 14 13 14h59q12 0 12 -14v-555q0 -113 59.5 -184.5t188.5 -71.5q109 0 177.5 72.5t68.5 180.5v558q0 14 14 14h58q16 0 16 -14v-863q0 -14 -16 -14h-56q-12 0 -12 12v76q0 14 -5.5 16t-14.5 -8q-41 -51 -109 -78.5t-141 -27.5q-87 0 -149.5 27.5t-97 76 t-50 106t-15.5 126.5zM227 1149q0 26 17.5 43.5t42.5 17.5t42 -17.5t17 -43.5t-17.5 -44t-41.5 -18q-25 0 -42.5 18.5t-17.5 43.5zM541 1149q0 26 17 43.5t42 17.5t43.5 -17.5t18.5 -43.5q0 -25 -17.5 -43.5t-42.5 -18.5q-26 0 -43.5 18.5t-17.5 43.5z" />
<glyph unicode="&#x11e;" horiz-adv-x="944" d="M119 317v635q0 140 103.5 233t260.5 93q97 0 183.5 -34t130.5 -97q10 -16 -4 -27l-37 -28q-18 -14 -31 6q-36 50 -102.5 76t-137.5 26q-123 0 -200.5 -73.5t-77.5 -182.5v-622q0 -116 79.5 -187.5t198.5 -71.5q122 0 197.5 68.5t75.5 190.5v262q0 14 -13 14h-180 q-16 0 -16 14v50q0 16 16 16h264q7 0 13 -5t6 -11v-343q0 -146 -100 -239.5t-263 -93.5q-161 0 -263.5 90t-102.5 241zM242 1544q0 15 12 15h27q6 0 9.5 -3.5t4.5 -7t4 -12.5q12 -66 59 -103.5t109 -37.5q60 0 109 38.5t61 102.5q1 2 1.5 5.5t1 5t1.5 4t2 4t3 2.5t4 1.5 t5 0.5h25q14 0 14 -15q-1 -97 -69.5 -160t-159.5 -63q-88 0 -155 63t-68 160z" />
<glyph unicode="&#x11f;" horiz-adv-x="849" d="M88 590q0 127 93 219t233 92q125 0 211 -72q8 -8 14 -8t14 8q78 64 172 70h6q15 0 15 -20v-62q0 -16 -12 -16h-7q-29 0 -67.5 -8.5t-57.5 -16.5q-10 -3 -10 -10q0 -5 8 -21q41 -62 41 -151q0 -143 -97.5 -231.5t-233.5 -88.5q-43 0 -68 5q-22 0 -41 -13 q-46 -31 -82.5 -81.5t-36.5 -94.5q0 -30 7 -37t30 -2q145 29 248 29q104 0 187.5 -23.5t140.5 -80.5t57 -142q0 -71 -40 -133.5t-107 -101.5q-21 -12 -31 2l-27 37q-9 15 8 26q44 29 76.5 72.5t32.5 91.5t-26 83.5t-70 54.5t-93 27.5t-104 8.5q-59 0 -305 -29 q-20 -3 -30.5 2.5t-20.5 28.5q-15 34 -15 90q0 44 37.5 105t100.5 106q6 3 6 8q0 3 -8 11h-3q-68 40 -106.5 110.5t-38.5 155.5zM174 588q0 -97 65 -169.5t171 -72.5q112 0 178.5 72.5t66.5 173.5q0 98 -66 165.5t-173 67.5q-106 0 -174 -69.5t-68 -167.5zM195 1257 q0 13 12 13h24q7 0 11 -3t5.5 -6.5t4.5 -11.5q12 -66 59 -103.5t109 -37.5q60 0 109 38t61 103q1 2 1.5 5t1 4.5t1.5 3.5t2 3.5t3 2.5t4 1.5t5 0.5h25q14 0 14 -13q-1 -98 -70 -160.5t-159 -62.5q-88 0 -155 63t-68 160z" />
<glyph unicode="&#x130;" horiz-adv-x="411" d="M143 1473q0 26 17.5 43.5t42.5 17.5t42 -16.5t17 -42.5t-17.5 -44t-41.5 -18q-25 0 -42.5 17.5t-17.5 42.5zM160 14v1235q0 15 16 15h57q17 0 17 -15v-1235q0 -14 -17 -14h-57q-16 0 -16 14z" />
<glyph unicode="&#x131;" horiz-adv-x="352" d="M127 12v865q0 14 14 14h58q14 0 14 -14v-865q0 -12 -14 -12h-58q-14 0 -14 12z" />
<glyph unicode="&#x15e;" horiz-adv-x="874" d="M63 117q-11 11 5 26l26 27q13 13 29 0q53 -44 129.5 -75.5t144.5 -31.5q141 0 228.5 67t87.5 192q0 61 -19 107.5t-59.5 80t-81.5 55t-107 47.5q-146 57 -201 89q-165 96 -165 251q0 102 50.5 178t128.5 112t169 36q191 0 315 -94q13 -9 2 -27l-24 -37q-11 -16 -29 -2 q-51 37 -121 58.5t-135 21.5q-50 0 -96 -13.5t-85.5 -41.5t-63 -77t-23.5 -114q0 -34 11.5 -64t36 -54.5t48 -42.5t63 -37t64 -29.5t66.5 -26.5q63 -25 104.5 -44.5t91.5 -52.5t79 -68.5t49 -87.5t20 -115q0 -147 -92.5 -234.5t-243.5 -101.5q-23 -83 -23 -90q0 -2 -1 -4.5 t-1 -3.5q0 -13 15 -13h26q73 0 117.5 -37t44.5 -102q0 -60 -49 -100.5t-129 -40.5q-41 0 -82.5 11.5t-65.5 29.5q-8 8 0 18l17 23q7 10 16 4q58 -35 111 -35q59 0 89 23.5t30 64.5q0 35 -22 61.5t-81 26.5h-67q-37 0 -37 29q0 8 2 12l33 119h-9q-98 0 -189.5 34t-146.5 93z " />
<glyph unicode="&#x15f;" horiz-adv-x="696" d="M49 152q-8 12 6 18l45 23q11 6 21 -9q31 -56 94 -90.5t133 -34.5q94 0 152.5 44.5t58.5 117.5q0 40 -15.5 70.5t-47 53.5t-57 35.5t-68.5 29.5q-7 3 -37.5 14t-41 15t-39 16t-41 19t-36 21t-35 25.5t-27.5 29t-23.5 35t-13 39.5t-5.5 46q0 73 41.5 127t103 78.5 t133.5 25.5q82 0 152.5 -26.5t115.5 -75.5q10 -13 -2 -25l-28 -33q-12 -13 -27 2q-40 38 -97 61t-114 23q-43 0 -84.5 -13.5t-75.5 -49.5t-34 -88q0 -26 8.5 -47.5t28.5 -40t35.5 -30.5t48 -26t46 -19.5t48.5 -18.5q36 -14 58 -23t54 -24.5t52 -29t43 -34.5t35.5 -43.5 t21 -52.5t8.5 -64q0 -90 -67.5 -157.5t-194.5 -75.5q-21 -76 -21 -86q0 -2 -1 -4.5t-1 -3.5q0 -13 15 -13h26q73 0 117.5 -37t44.5 -102q0 -60 -49 -100.5t-129 -40.5q-40 0 -81.5 11.5t-65.5 29.5q-8 8 0 18l16 23q7 10 16 4q58 -35 111 -35q59 0 89 23.5t30 64.5 q0 35 -22 61.5t-81 26.5h-67q-37 0 -37 29q0 8 2 12l31 117q-89 5 -164.5 47t-110.5 117z" />
<glyph unicode="&#x2c6;" horiz-adv-x="860" d="M190 1055l193 239q17 17 33 17h51q17 0 31 -17l192 -235q13 -16 0 -27l-16 -14q-10 -10 -27 2l-198 197q-11 11 -21 0l-192 -197q-12 -16 -27 -4l-16 14q-13 13 -3 25z" />
<glyph unicode="&#x2da;" horiz-adv-x="782" d="M272 1151q0 62 40.5 104.5t101.5 42.5q60 0 101.5 -42t41.5 -103q0 -60 -41.5 -102.5t-101.5 -42.5q-61 0 -101.5 41.5t-40.5 101.5zM328 1153q0 -38 24.5 -65t61.5 -27q36 0 62 27t26 65q0 37 -26.5 63.5t-61.5 26.5q-36 0 -61 -26.5t-25 -63.5z" />
<glyph unicode="&#x2dc;" horiz-adv-x="786" d="M152 1114q51 92 143 92q40 0 112 -31.5t105 -31.5q56 0 96 59q9 12 19 6l35 -16q13 -3 6 -23q-27 -50 -68 -72t-84 -22q-44 0 -119 32t-110 32q-23 0 -45.5 -15.5t-34.5 -38.5q-9 -16 -25 -8l-28 15q-10 6 -2 22z" />
<glyph unicode="&#x2000;" horiz-adv-x="784" />
<glyph unicode="&#x2001;" horiz-adv-x="1569" />
<glyph unicode="&#x2002;" horiz-adv-x="784" />
<glyph unicode="&#x2003;" horiz-adv-x="1569" />
<glyph unicode="&#x2004;" horiz-adv-x="523" />
<glyph unicode="&#x2005;" horiz-adv-x="392" />
<glyph unicode="&#x2006;" horiz-adv-x="261" />
<glyph unicode="&#x2007;" horiz-adv-x="261" />
<glyph unicode="&#x2008;" horiz-adv-x="196" />
<glyph unicode="&#x2009;" horiz-adv-x="313" />
<glyph unicode="&#x200a;" horiz-adv-x="87" />
<glyph unicode="&#x2010;" horiz-adv-x="610" d="M121 461v55q0 14 14 14h338q12 0 12 -14v-55q0 -15 -12 -15h-338q-14 0 -14 15z" />
<glyph unicode="&#x2011;" horiz-adv-x="610" d="M121 461v55q0 14 14 14h338q12 0 12 -14v-55q0 -15 -12 -15h-338q-14 0 -14 15z" />
<glyph unicode="&#x2012;" horiz-adv-x="610" d="M121 461v55q0 14 14 14h338q12 0 12 -14v-55q0 -15 -12 -15h-338q-14 0 -14 15z" />
<glyph unicode="&#x2013;" horiz-adv-x="1024" d="M55 461v39q0 16 13 16h884q15 0 15 -16v-39q0 -15 -13 -15h-886q-13 0 -13 15z" />
<glyph unicode="&#x2014;" horiz-adv-x="2048" d="M55 461v39q0 16 13 16h1900q12 0 12 -16v-39q0 -15 -12 -15h-1900q-13 0 -13 15z" />
<glyph unicode="&#x2018;" horiz-adv-x="356" d="M94 963l76 321q3 19 20 19h31q15 0 15 -23l-19 -324q0 -20 -22 -20h-80q-27 0 -21 27z" />
<glyph unicode="&#x2019;" horiz-adv-x="358" d="M113 961l18 323q0 8 6.5 13.5t16.5 5.5h79q26 0 21 -27l-76 -322q-3 -18 -20 -18h-31q-18 0 -14 25z" />
<glyph unicode="&#x201a;" horiz-adv-x="342" d="M98 -193l19 310q0 20 20 20h84q28 0 19 -26l-76 -308q-5 -18 -21 -18h-30q-18 0 -15 22z" />
<glyph unicode="&#x201c;" horiz-adv-x="520" d="M78 963l76 321q3 19 20 19h31q14 0 14 -23l-18 -324q0 -20 -23 -20h-80q-26 0 -20 27zM279 963l73 321q5 19 21 19h28q17 0 17 -23l-19 -324q0 -20 -22 -20h-80q-24 0 -18 27z" />
<glyph unicode="&#x201d;" horiz-adv-x="520" d="M102 961l19 323q0 19 22 19h80q14 0 18 -6t1 -21l-74 -322q-6 -18 -21 -18h-30q-19 0 -15 25zM301 961l18 323q0 8 6.5 13.5t16.5 5.5h80q13 0 17 -6t1 -21l-73 -322q-6 -18 -21 -18h-31q-14 0 -14 25z" />
<glyph unicode="&#x201e;" horiz-adv-x="530" d="M98 -193l19 310q0 20 20 20h84q28 0 19 -26l-76 -308q-5 -18 -21 -18h-30q-18 0 -15 22zM303 -193l19 310q0 20 22 20h84q27 0 18 -26l-77 -308q-3 -18 -21 -18h-31q-14 0 -14 22z" />
<glyph unicode="&#x2026;" horiz-adv-x="1161" d="M117 57q0 29 19.5 49.5t47.5 20.5q32 0 53 -19.5t21 -50.5q0 -30 -20 -49.5t-52 -19.5q-29 0 -49 20t-20 49zM504 57q0 29 19.5 49.5t47.5 20.5q32 0 53 -19.5t21 -50.5q0 -30 -20 -49.5t-52 -19.5q-29 0 -49 20t-20 49zM895 57q0 29 20 49.5t48 20.5q32 0 52.5 -19.5 t20.5 -50.5q0 -30 -20.5 -49.5t-52.5 -19.5q-28 0 -48 20t-20 49z" />
<glyph unicode="&#x202f;" horiz-adv-x="313" />
<glyph unicode="&#x2039;" horiz-adv-x="610" d="M131 426l258 317q14 17 37 17h51q12 0 15 -7t-3 -14l-266 -325q-8 -12 0 -23l264 -328q7 -11 3.5 -17.5t-13.5 -6.5h-51q-24 0 -37 18l-256 322q-19 24 -2 47z" />
<glyph unicode="&#x203a;" horiz-adv-x="610" d="M122 753q3 7 15 7h53q21 0 35 -17l258 -317q19 -22 0 -47l-256 -322q-16 -18 -39 -18h-51q-10 0 -13 6.5t5 17.5l262 328q6 7 6 10t-6 13l-264 325q-8 7 -5 14z" />
<glyph unicode="&#x205f;" horiz-adv-x="392" />
<glyph unicode="&#x20ac;" d="M86 535v36q0 13 14 13h555q15 0 15 -15v-34q0 -17 -15 -17h-364q-17 0 -17 -12v-197q0 -109 69.5 -178.5t178.5 -69.5q65 0 123.5 27t95.5 74q16 21 35 10l39 -27q12 -10 2 -26q-95 -133 -295 -133q-156 0 -245 85.5t-89 233.5v199q0 16 -12 16h-78q-12 0 -12 15zM86 709 v36q0 15 14 15h74q14 0 14 18v180q0 143 90.5 231.5t243.5 88.5q93 0 170.5 -34t122.5 -99q12 -15 -4 -25l-41 -26q-16 -10 -27 6q-76 102 -221 102q-112 0 -180 -68.5t-68 -177.5v-182q0 -16 17 -16h364q15 0 15 -13v-36q0 -15 -15 -15h-557q-12 0 -12 15z" />
<glyph unicode="&#x2122;" horiz-adv-x="1189" d="M47 1225v28q0 11 8 11h394q10 0 10 -11v-28q0 -11 -10 -11h-162q-8 0 -8 -8v-571q0 -8 -11 -8h-32q-13 0 -13 8v571q0 8 -8 8h-160q-8 0 -8 11zM541 637v614q0 13 16 13h25q4 0 6 -0.5t3.5 -2t2.5 -2t2.5 -4t1.5 -4.5l217 -508q1 0 2 -1t2 -1q2 0 4 2l217 508q9 13 19 13 h31q8 0 8 -11v-616q0 -8 -13 -8h-28q-3 0 -6 2.5t-2 5.5v483q-3 6 -7 2l-194 -444q-9 -12 -21 -12h-20q-10 0 -16 12q-25 59 -91.5 210t-101.5 234q0 1 -1 2q-2 -1 -3 -4v-483q0 -8 -10 -8h-35q-8 0 -8 8z" />
<glyph unicode="&#xe000;" horiz-adv-x="890" d="M0 0v891h891v-891h-891z" />
</font>
</defs>
</svg>
