<?xml version="1.0" standalone="no"?>
<!DOCTYPE svg PUBLIC "-//W3C//DTD SVG 1.1//EN" "http://www.w3.org/Graphics/SVG/1.1/DTD/svg11.dtd" >
<svg xmlns="http://www.w3.org/2000/svg" xmlns:xlink="http://www.w3.org/1999/xlink" version="1.1">
<metadata></metadata>
<defs>
<font id="pf_handbook_prolight" horiz-adv-x="942" >
<font-face units-per-em="2048" ascent="1536" descent="-512" />
<missing-glyph horiz-adv-x="430" />
<glyph horiz-adv-x="0" />
<glyph horiz-adv-x="682" />
<glyph unicode=" "  horiz-adv-x="430" />
<glyph unicode="&#x09;" horiz-adv-x="430" />
<glyph unicode="&#xa0;" horiz-adv-x="430" />
<glyph unicode="!" horiz-adv-x="524" d="M176 74q0 37 27.5 63.5t64.5 26.5q40 0 67 -26t27 -64q0 -37 -26.5 -63.5t-65.5 -26.5q-38 0 -66 26.5t-28 63.5zM197 1243q0 21 20 21h100q9 0 15 -5.5t6 -13.5l-27 -901q0 -18 -16 -18h-45q-19 0 -19 16z" />
<glyph unicode="&#x22;" horiz-adv-x="518" d="M109 868v379q0 17 16 17h72q8 0 12.5 -4.5t3.5 -10.5v-381q0 -6 -5 -10t-11 -4h-70q-18 0 -18 14zM311 868v379q0 7 5.5 12t13.5 5h71q7 0 12 -4.5t3 -10.5v-381q0 -14 -15 -14h-71q-19 0 -19 14z" />
<glyph unicode="#" d="M45 383l12 61q7 17 23 17h121q15 0 18 16l62 285q3 12 -0.5 17t-16.5 5h-131q-18 0 -14 15l12 57q3 16 21 16h143q12 0 16 15l54 246q2 12 16 12h63q20 0 17 -21l-49 -227q-3 -13 0.5 -19t17.5 -6h197q12 0 16 15l55 246q0 12 17 12h61q14 0 17.5 -5.5t1.5 -15.5 l-50 -227q-2 -14 1.5 -19.5t17.5 -5.5h117q19 0 14 -24l-12 -47q-3 -17 -21 -17h-125q-17 0 -20 -14l-62 -285q-2 -14 1.5 -19t17.5 -5h137q15 0 12 -17l-10 -57q-5 -16 -20 -16h-148q-15 0 -18 -11l-58 -260q-3 -12 -16 -12h-61q-22 0 -19 21l53 241q0 8 -0.5 12t-5.5 7.5 t-14 3.5h-193q-15 0 -18 -13l-62 -260q-3 -12 -14 -12h-63q-11 0 -16 5t-3 13l53 244q4 21 -18 21h-111q-16 0 -16 12zM322 483q-2 -13 1 -17.5t17 -4.5h195q15 0 18 16l61 287q2 11 -1 15.5t-17 4.5h-188q-10 0 -17.5 -5t-7.5 -13z" />
<glyph unicode="$" d="M117 918q0 124 84 210t207 107q12 3 12 16v115q0 16 16 16h49q19 0 19 -16v-113q0 -11 16 -14q148 -9 264 -98q12 -15 0 -31l-47 -57q-12 -15 -32 2q-99 82 -232 82q-93 0 -165 -59t-72 -165q0 -39 17.5 -72t39.5 -53t63 -40t64.5 -28t68.5 -22q57 -17 102 -35t91.5 -47 t77 -63t50 -84t19.5 -109q0 -140 -85.5 -223.5t-223.5 -103.5q-16 0 -16 -17v-131q0 -18 -19 -18h-49q-16 0 -16 16v133q0 15 -19 15q-156 9 -276 104q-12 12 0 29l47 55q13 16 31 -2q105 -84 243 -84q111 0 187 56.5t76 160.5q0 42 -15 77t-37 58.5t-55.5 43.5t-61.5 31.5 t-65 23.5q-38 11 -57.5 17.5t-58.5 20.5t-61.5 26.5t-55 32.5t-51.5 42.5t-38 51.5t-27.5 65t-8.5 78z" />
<glyph unicode="%" horiz-adv-x="1382" d="M90 692v369q0 96 65 153.5t173 57.5q106 0 171.5 -56.5t65.5 -154.5v-369q0 -99 -63.5 -155t-173.5 -56t-174 56t-64 155zM197 694q0 -56 35 -90.5t96 -34.5q59 0 95 33.5t36 91.5v367q0 53 -36 88t-95 35t-95 -35t-36 -88v-367zM350 -45l576 1356q6 14 22 14h45 q24 0 17 -20l-574 -1352q-6 -14 -22 -14h-54q-16 0 -10 16zM813 203v366q0 97 65.5 155t172.5 58q106 0 170.5 -57t64.5 -156v-366q0 -99 -62.5 -154t-172.5 -55t-174 54.5t-64 154.5zM915 203q0 -57 36.5 -92t99.5 -35q61 0 97 34t36 93v366q0 56 -36 91.5t-97 35.5 t-98.5 -36t-37.5 -91v-366z" />
<glyph unicode="&#x26;" horiz-adv-x="1167" d="M137 342v461q0 148 104.5 241t264.5 93h272q21 0 21 -19v-71q0 -19 -19 -19h-274q-107 0 -175.5 -62.5t-68.5 -162.5v-459q0 -52 12.5 -95t39 -79t74 -56t112.5 -20h28q66 0 116 22.5t77.5 61t41 83.5t13.5 97v234q0 20 -20 20h-240q-18 0 -18 19v67q0 9 6 15t14 6h402 q121 0 215 65q9 9 18 9q7 0 18 -11l25 -39q8 -11 8 -20q0 -8 -10 -18q-39 -39 -117 -63t-145 -28q-33 -3 -33 -30v-205q0 -174 -95.5 -282.5t-275.5 -108.5h-28q-175 0 -269 96t-94 258z" />
<glyph unicode="'" horiz-adv-x="333" d="M113 868v379q0 7 5 12t11 5h74q18 0 18 -15l-2 -381q0 -14 -16 -14h-72q-18 0 -18 14z" />
<glyph unicode="(" horiz-adv-x="636" d="M129 543q0 118 31.5 249t82 245t104 206.5t106.5 161.5q13 16 36 4l41 -23q22 -13 9 -32q-122 -183 -196.5 -395.5t-74.5 -415.5q0 -380 269 -787q15 -21 -5 -35l-40 -26q-27 -18 -46 4q-130 161 -223.5 387.5t-93.5 456.5z" />
<glyph unicode=")" horiz-adv-x="636" d="M123 1354q-13 20 8 32l41 23q24 12 37 -4q53 -69 106.5 -161.5t103.5 -206.5t81.5 -245t31.5 -249q0 -230 -93.5 -456.5t-223.5 -387.5q-17 -24 -43 -4l-43 26q-20 13 -4 35q268 405 268 787q0 204 -74.5 416t-195.5 395z" />
<glyph unicode="*" horiz-adv-x="739" d="M76 1094l18 55q9 30 39 18l186 -75q13 -5 13 8l-19 207q-2 13 5 18.5t28 5.5h53q17 0 24 -7t5 -19l-18 -201q-1 -10 1.5 -12.5t10.5 0.5l184 73q31 15 39 -16l21 -53q8 -27 -17 -33l-196 -47q-8 -2 -10.5 -7.5t3.5 -11.5l127 -153q22 -25 0 -39l-45 -31 q-17 -11 -26.5 -10t-18.5 18l-100 168q-9 18 -23 0l-104 -170q-9 -14 -17.5 -15t-25.5 9l-43 31q-28 16 -4 43l129 149q3 3 4 6.5t-1.5 6.5t-8.5 4l-195 49q-24 5 -18 31z" />
<glyph unicode="+" d="M74 459v55q0 25 24 25h308q10 0 10 10v315q0 11 7 18t17 7h56q22 0 22 -25v-315q0 -10 12 -10h314q10 0 17 -7t7 -18v-53q0 -25 -24 -25h-314q-12 0 -12 -8v-317q0 -23 -22 -23h-56q-24 0 -24 23v315q0 10 -10 10h-308q-24 0 -24 23z" />
<glyph unicode="," horiz-adv-x="389" d="M104 -195l21 340q0 12 7.5 19.5t19.5 7.5h110q34 0 23 -35l-90 -340q-5 -22 -27 -22h-45q-23 0 -19 30z" />
<glyph unicode="-" horiz-adv-x="653" d="M115 451v75q0 17 16 17h379q16 0 16 -17v-75q0 -19 -14 -19h-379q-18 0 -18 19z" />
<glyph unicode="." horiz-adv-x="387" d="M104 76q0 36 26.5 62t62.5 26q40 0 66 -25t26 -63q0 -39 -26.5 -65.5t-65.5 -26.5q-35 0 -62 27.5t-27 64.5z" />
<glyph unicode="/" horiz-adv-x="602" d="M10 -113l486 1473q8 22 32 22h45q8 0 14 -6t3 -16l-490 -1475q-10 -20 -26 -20h-47q-11 0 -16 6t-1 16z" />
<glyph unicode="0" d="M131 322v624q0 153 96.5 243.5t255.5 90.5t256 -89t97 -245v-624q0 -157 -93.5 -245.5t-257.5 -88.5t-259 87.5t-95 246.5zM258 324q0 -102 61.5 -165t163.5 -63q101 0 163.5 61t62.5 167v620q0 99 -62 162t-164 63q-101 0 -163 -63t-62 -162v-620z" />
<glyph unicode="1" d="M219 999v76q0 27 17 39l215 133q30 17 41 17h55q20 0 20 -23v-1223q0 -18 -16 -18h-94q-17 0 -17 16v1063q0 24 -22 11l-162 -99q-15 -9 -26 -6.5t-11 14.5z" />
<glyph unicode="2" d="M90 27v45q0 38 19 65l464 602q43 58 72 123t29 109q0 87 -56 142.5t-159 55.5q-63 0 -124.5 -29.5t-90.5 -70.5q-19 -26 -39 -12l-60 41q-21 12 -6 30q51 74 138 113t186 39q149 0 245.5 -79t96.5 -226q0 -64 -36 -143t-95 -154l-422 -549q-9 -11 -6.5 -14.5t16.5 -3.5 h533q18 0 18 -17v-76q0 -18 -16 -18h-678q-29 0 -29 27z" />
<glyph unicode="3" d="M125 139q-11 18 8 31l62 41q21 15 30 0q33 -53 87 -86t112 -33q98 0 163.5 62t65.5 159v107q0 95 -55.5 157t-153.5 62h-127q-18 0 -18 14v78q0 14 16 14h127q89 0 149 56t60 151q0 92 -61.5 157t-153.5 65q-62 0 -113.5 -28t-82.5 -77q-15 -23 -35 -12l-64 41 q-19 11 -8 30q49 75 132.5 113.5t178.5 38.5q148 0 239 -88t91 -225q0 -95 -45.5 -170t-114.5 -97q-5 -2 -7 -5.5t0 -6.5t7 -4q59 -16 97.5 -60.5t52.5 -93t14 -102.5v-98q0 -163 -94.5 -253.5t-259.5 -90.5q-135 0 -219 67q-54 42 -80 86z" />
<glyph unicode="4" d="M80 307v45q0 41 16 74l426 821q12 17 31 17h86q11 0 15.5 -8t-1.5 -19l-434 -821q-11 -21 10 -21h332q17 0 17 23v373q0 16 18 16h90q16 0 16 -16v-369q0 -15 4 -21t17 -6h137q19 0 19 -18v-70q0 -18 -19 -18h-133q-12 0 -17 -4.5t-5 -18.5v-248q0 -18 -19 -18h-90 q-18 0 -18 18v248q0 23 -21 23h-459q-18 0 -18 18z" />
<glyph unicode="5" d="M129 143q-11 19 6 29l70 39q18 10 31 -6q42 -56 88.5 -82.5t113.5 -26.5q108 0 172 62t64 164v165q0 93 -57.5 154t-172.5 61q-73 0 -135 -43q-31 -24 -57 -14l-59 29q-27 14 -27 39v532q0 19 18 19h570q18 0 18 -17v-78q0 -14 -16 -14h-445q-18 0 -18 -18v-340 q0 -17 8 -21t27 4q61 35 133 35q165 0 252.5 -90t87.5 -238v-151q0 -162 -101 -255t-260 -93q-114 0 -189 37.5t-122 117.5z" />
<glyph unicode="6" d="M123 317v603q0 165 103 262.5t266 97.5q101 0 175.5 -34t137.5 -109q12 -18 -4 -29l-64 -53q-16 -9 -30 8q-36 49 -92.5 77.5t-122.5 28.5q-112 0 -177 -68t-65 -171v-215q0 -12 5.5 -14.5t14.5 4.5q87 90 222 90q154 0 249 -87t95 -231v-153q0 -153 -97.5 -244.5 t-257.5 -91.5t-259 85t-99 244zM250 319q0 -99 64.5 -162t166.5 -63q103 0 165 63.5t63 170.5l2 145q0 98 -65.5 154.5t-166.5 56.5q-94 0 -161.5 -63.5t-67.5 -155.5v-146z" />
<glyph unicode="7" d="M127 1030v215q0 19 18 19h656q33 0 33 -25v-47q0 -24 -15 -49q-480 -1076 -500 -1125q-9 -18 -26 -18h-96q-11 0 -16 6.5t-1 16.5l494 1103q13 29 -21 29h-391q-13 0 -17.5 -4.5t-4.5 -15.5v-103q0 -18 -17 -18h-78q-18 0 -18 16z" />
<glyph unicode="8" d="M102 354q0 102 50 189t124 116q8 5 9 11.5t-6 9.5q-73 32 -115.5 109.5t-42.5 154.5q0 149 100 243.5t254 94.5q158 0 256 -92.5t98 -243.5q0 -74 -41 -147.5t-106 -114.5q-14 -14 -2 -22q74 -38 120 -117t46 -180q0 -181 -106 -279t-269 -98q-167 0 -268 91t-101 275z M229 354q0 -121 68 -189.5t172 -68.5q103 0 176.5 68.5t73.5 193.5q0 119 -72.5 185.5t-173.5 66.5t-172.5 -68t-71.5 -188zM244 944q0 -90 69 -151.5t162 -61.5t160 60t67 153q0 99 -63 164.5t-164 65.5q-99 0 -165 -66t-66 -164z" />
<glyph unicode="9" d="M100 797v139q0 154 102.5 249t268.5 95q156 0 249 -93t93 -259v-555q0 -183 -100.5 -284t-276.5 -101q-212 0 -315 157q-13 20 4 29l70 41q16 9 30 -8q83 -111 209 -111q119 0 186.5 73t67.5 204v180q0 12 -5.5 14.5t-14.5 -4.5q-89 -92 -222 -92q-153 0 -249.5 91 t-96.5 235zM227 799q0 -101 62 -159t172 -58q93 0 160 63.5t67 155.5v141q0 101 -63.5 165t-163.5 64q-102 0 -168 -65.5t-66 -161.5v-145z" />
<glyph unicode=":" horiz-adv-x="387" d="M102 72q0 38 26 64t62 26q40 0 67.5 -25t27.5 -63t-27.5 -63t-67.5 -25q-35 0 -61.5 25.5t-26.5 60.5zM102 688q0 35 26.5 61.5t61.5 26.5q38 0 66.5 -27t28.5 -61q0 -37 -28 -64.5t-67 -27.5q-36 0 -62 27t-26 65z" />
<glyph unicode=";" horiz-adv-x="395" d="M96 -195l21 338q4 29 28 29h111q17 0 22.5 -8t0.5 -27l-91 -340q-6 -22 -26 -22h-45q-11 0 -16.5 8.5t-4.5 21.5zM109 688q0 36 27 63t63 27q39 0 65.5 -26.5t26.5 -63.5t-26.5 -63.5t-65.5 -26.5q-37 0 -63.5 26t-26.5 64z" />
<glyph unicode="&#x3c;" d="M49 485v64q0 27 23 37l778 405q2 2 6 2q2 2 10 2q17 0 17 -18v-59q0 -28 -25 -39l-637 -334q-23 -14 -31 -17q-10 -2 -10 -10q0 -5 10 -10l670 -344q23 -12 23 -43v-64q0 -16 -19 -16h-6q-1 0 -3.5 1t-4.5 1l-768 403q-33 14 -33 39z" />
<glyph unicode="=" d="M76 299v51q0 25 24 25h742q24 0 24 -25v-49q0 -25 -24 -25h-742q-24 0 -24 23zM76 659v52q0 24 24 24h742q24 0 24 -24v-49q0 -25 -24 -25h-742q-24 0 -24 22z" />
<glyph unicode="&#x3e;" d="M53 57v64q0 31 23 43l669 344q11 6 11 10q0 7 -11 10q-5 2 -30 17l-637 334q-25 11 -25 39v59q0 18 17 18q8 0 10 -2q4 0 6 -2l778 -405q23 -10 23 -37v-64q0 -25 -33 -39l-768 -403q-2 0 -4.5 -1t-3.5 -1h-6q-19 0 -19 16z" />
<glyph unicode="?" horiz-adv-x="956" d="M172 1128q49 75 131.5 116.5t179.5 41.5q149 0 243.5 -85t94.5 -232q0 -93 -52 -176.5t-151 -147.5q-97 -61 -139.5 -116t-42.5 -134v-69q0 -23 -14 -23h-88q-12 0 -17.5 5.5t-5.5 19.5v88q0 78 41.5 152t116.5 126q54 36 88.5 63t67.5 61t49 70.5t16 76.5 q0 37 -11.5 72.5t-35 67t-66 50.5t-98.5 19q-60 0 -114.5 -31.5t-90.5 -79.5q-14 -19 -32 -4l-66 41q-17 11 -4 28zM281 74q0 35 26.5 61.5t63.5 26.5q40 0 66 -25t26 -63q0 -37 -26.5 -64.5t-65.5 -27.5q-37 0 -63.5 27.5t-26.5 64.5z" />
<glyph unicode="@" horiz-adv-x="1503" d="M127 596q0 138 49.5 260t136.5 210.5t211.5 139.5t268.5 51q174 0 315.5 -70t224 -201t82.5 -298q0 -113 -26 -198.5t-70 -134.5t-96.5 -73t-112.5 -24q-61 0 -109 23t-63 61q-2 6 -5.5 6t-6.5 -6q-60 -88 -181 -88q-100 0 -169.5 63.5t-69.5 165.5q0 101 69 164.5 t173 63.5q93 0 147 -54q5 -5 10.5 -2t5.5 13v34q0 69 -44.5 102.5t-121.5 33.5q-57 0 -139 -35q-22 -11 -28 8l-17 53q-4 14 8 19q88 43 195 43q66 0 114.5 -19t75 -51.5t38.5 -68.5t12 -76v-246q0 -119 108 -119q88 0 147.5 86t59.5 250q0 114 -46.5 209t-121.5 155.5 t-166.5 94t-185.5 33.5q-165 0 -296.5 -75t-205.5 -207t-74 -296q0 -255 163 -417.5t423 -162.5q173 0 334 66q32 14 37 -4l18 -55q7 -20 -20 -29q-189 -64 -359 -64q-312 0 -502 180t-190 486zM604 485q0 -60 43.5 -102.5t104.5 -42.5q65 0 106 42t41 103q0 57 -38.5 100.5 t-108.5 43.5q-62 0 -105 -42t-43 -102z" />
<glyph unicode="A" horiz-adv-x="923" d="M35 25l330 1218q4 21 24 21h137q20 0 25 -19l336 -1216q10 -29 -15 -29h-94q-18 0 -24 14l-78 281q-3 8 -10 8h-416q-9 0 -12 -6q-7 -32 -39 -147t-37 -136q-3 -14 -23 -14h-84q-25 0 -20 25zM270 428q-2 -14 9 -14h354q9 0 11 2.5t1 11.5l-117 428l-65 264q-1 6 -5 6 t-5 -6l-66 -262z" />
<glyph unicode="B" horiz-adv-x="970" d="M117 20v1223q0 21 18 21h373q160 0 252 -83.5t92 -238.5q0 -73 -41 -145t-111 -109q-8 -8 2 -14q90 -37 138.5 -122t48.5 -185q0 -163 -96 -265t-258 -102h-398q-20 0 -20 20zM248 129q0 -14 16 -14h266q105 0 166.5 69.5t61.5 177.5q0 109 -64.5 184t-183.5 75h-248 q-14 0 -14 -17v-475zM248 750q0 -17 14 -17h246q99 0 157 59t58 152q0 95 -57 151t-160 56h-244q-8 0 -11 -2.5t-3 -11.5v-387z" />
<glyph unicode="C" horiz-adv-x="864" d="M119 328v612q0 151 102.5 245.5t263.5 94.5q213 0 330 -141q15 -18 -4 -37l-57 -47q-8 -7 -19.5 -5t-17.5 11q-38 47 -101.5 75.5t-128.5 28.5q-107 0 -172 -63.5t-65 -163.5v-606q0 -101 66 -166.5t180 -65.5q62 0 121.5 28t99.5 71q12 14 20 17t23 -5l55 -47 q17 -13 4 -29q-58 -71 -142 -109t-181 -38q-169 0 -273 92t-104 248z" />
<glyph unicode="D" horiz-adv-x="989" d="M125 20v1223q0 21 20 21h375q174 0 267.5 -91t93.5 -260v-551q0 -176 -95 -269t-268 -93h-373q-20 0 -20 20zM256 129q0 -14 16 -14h248q109 0 168.5 59.5t59.5 169.5v578q0 229 -236 229h-240q-16 0 -16 -14v-1008z" />
<glyph unicode="E" horiz-adv-x="890" d="M123 20v1223q0 21 22 21h648q20 0 20 -21v-74q0 -18 -20 -18h-523q-16 0 -16 -14v-410q0 -14 14 -14h445q20 0 20 -21v-76q0 -18 -18 -18h-445q-16 0 -16 -16v-453q0 -14 14 -14h541q20 0 20 -19v-76q0 -20 -20 -20h-664q-9 0 -15.5 5.5t-6.5 14.5z" />
<glyph unicode="F" horiz-adv-x="819" d="M121 18v1225q0 21 22 21h635q9 0 15 -5.5t6 -13.5v-76q0 -18 -21 -18h-510q-16 0 -16 -14v-414q0 -9 2.5 -11.5t11.5 -2.5h434q19 0 19 -21v-78q0 -18 -19 -18h-432q-14 0 -14 -17l-2 -555q0 -20 -16 -20h-93q-22 0 -22 18z" />
<glyph unicode="G" horiz-adv-x="964" d="M119 326v616q0 149 107.5 243.5t269.5 94.5q101 0 191.5 -38.5t137.5 -111.5q6 -12 4.5 -18.5t-12.5 -15.5l-57 -45q-9 -7 -20 -4t-19 14q-37 52 -97.5 77t-125.5 25q-115 0 -181.5 -66.5t-66.5 -166.5v-600q0 -102 69 -166t177 -64q103 0 167 60.5t64 167.5v223 q0 16 -12 16h-166q-21 0 -21 19v78q0 20 21 20h291q9 0 15.5 -5.5t6.5 -14.5v-338q0 -149 -101.5 -243.5t-264.5 -94.5q-166 0 -271.5 90.5t-105.5 247.5z" />
<glyph unicode="H" horiz-adv-x="1046" d="M127 18v1227q0 19 20 19h91q20 0 20 -19v-520q0 -16 14 -16h502q14 0 14 16v520q0 19 21 19h92q21 0 21 -19v-1225q0 -20 -19 -20h-94q-21 0 -21 18v562q0 16 -14 16h-502q-14 0 -14 -16v-560q0 -20 -18 -20h-93q-20 0 -20 18z" />
<glyph unicode="I" horiz-adv-x="452" d="M158 18v1227q0 19 20 19h92q9 0 15 -5.5t6 -13.5v-1225q0 -20 -21 -20h-92q-20 0 -20 18z" />
<glyph unicode="J" horiz-adv-x="507" d="M-39.5 -127q3.5 8 19.5 14q98 36 150.5 78t77.5 108.5t25 174.5v993q0 10 7 16.5t18 6.5h80q24 0 24 -23v-981q0 -106 -15 -179.5t-53.5 -135t-106 -104t-171.5 -74.5q-27 -8 -34 22l-19 64q-6 12 -2.5 20z" />
<glyph unicode="K" horiz-adv-x="993" d="M127 16v1227q0 21 18 21h99q14 0 14 -19v-545q0 -15 6 -17t15 9l477 557q15 15 26 15h99q16 0 19.5 -9t-3.5 -16l-410 -479q-14 -19 11 -19q32 5 60 5q12 0 22 -1q280 -13 305 -333l28 -394q0 -18 -18 -18h-86q-18 0 -18 16l-27 371q-2 39 -7 69t-21 67.5t-40.5 61.5 t-69.5 41t-106 17q-132 0 -197 -74.5t-65 -187.5v-363q0 -18 -14 -18h-99q-18 0 -18 16z" />
<glyph unicode="L" horiz-adv-x="841" d="M127 20v1225q0 19 18 19h93q18 0 18 -19v-1114q0 -16 14 -16h523q18 0 18 -19v-76q0 -20 -18 -20h-646q-20 0 -20 20z" />
<glyph unicode="M" horiz-adv-x="1247" d="M102 18v1213q0 33 31 33h64q21 0 28 -4.5t13 -20.5q191 -517 282 -752l94 -264q3 -6 8.5 -6t8.5 6q10 27 42.5 122t51.5 144l281 752q14 23 38 23h66q31 0 31 -33v-1211q0 -20 -19 -20h-86q-20 0 -20 18v904q0 10 -8 2l-131 -357q-129 -321 -193 -497q-15 -25 -33 -25 h-63q-26 0 -35 23q-24 66 -193 507q-9 26 -64 175.5t-63 169.5q-6 12 -6 0v-900q0 -20 -18 -20h-86q-21 0 -21 18z" />
<glyph unicode="N" horiz-adv-x="1040" d="M123 20v1205q0 21 6.5 30t26.5 9h59q6 0 10.5 -0.5t8.5 -2.5l6 -3t5.5 -5t4 -4.5t4.5 -6.5l4 -5l533 -973q6 -12 6 0v979q0 21 18 21h88q19 0 19 -19v-1212q0 -33 -31 -33h-64q-29 0 -41 25l-532 968q-6 12 -6 0v-973q0 -20 -21 -20h-86q-18 0 -18 20z" />
<glyph unicode="O" horiz-adv-x="997" d="M119 338v596q0 154 106.5 250t272.5 96q167 0 274 -94t107 -252v-600q0 -159 -104 -252.5t-275 -93.5q-174 0 -277.5 94.5t-103.5 255.5zM250 342q0 -106 63.5 -174t184.5 -68q116 0 183 65.5t67 172.5v592q0 100 -66.5 166.5t-181.5 66.5t-182.5 -66.5t-67.5 -166.5 v-588z" />
<glyph unicode="P" horiz-adv-x="925" d="M131 18v1225q0 21 23 21h366q166 0 263.5 -100t97.5 -257q0 -150 -101.5 -250t-257.5 -100h-243q-17 0 -17 -18v-519q0 -20 -20 -20h-88q-23 0 -23 18zM260 684q0 -16 16 -16h244q107 0 169.5 66t62.5 175q0 99 -62 170.5t-170 71.5h-241q-19 0 -19 -14v-453z" />
<glyph unicode="Q" horiz-adv-x="997" d="M119 332v608q0 152 108.5 246t270.5 94q163 0 272 -92.5t109 -247.5v-610q0 -138 -82.5 -228.5t-221.5 -107.5q-16 -2 -16 -25q0 -61 20.5 -92t79.5 -31q63 0 127 27q27 11 35 -10l23 -53q6 -22 -15 -35q-82 -43 -174 -43q-223 0 -223 241q0 21 -16 21q-133 24 -215 114 t-82 224zM250 336q0 -104 66.5 -170t181.5 -66q111 0 180.5 64.5t69.5 169.5v602q0 98 -69.5 163.5t-178.5 65.5q-111 0 -180.5 -66t-69.5 -163v-600z" />
<glyph unicode="R" horiz-adv-x="970" d="M129 18v1223q0 23 23 23h364q178 0 271.5 -94t93.5 -255q0 -106 -56.5 -199t-138.5 -151q-8 -5 -4 -16q1 -2 28 -60t88.5 -188.5t125.5 -265.5q6 -20 0 -27.5t-19 -7.5h-80q-23 0 -33 7t-16 26l-223 483q-11 21 -33 21h-246q-16 0 -16 -17v-500q0 -20 -18 -20h-90 q-21 0 -21 18zM258 666q0 -17 14 -17h301q20 0 35 10q62 38 101 106.5t39 135.5q0 37 -6.5 70.5t-23.5 67t-44.5 58t-73.5 39.5t-106 15h-218q-18 0 -18 -16v-469z" />
<glyph unicode="S" horiz-adv-x="901" d="M57 133q-16 16 6 33l52 49q17 12 37 -8q51 -47 121 -76t139 -29q130 0 209 60t79 174q0 54 -19 95.5t-59 71t-76 47t-95 40.5q-151 56 -214 96q-155 97 -155 256q0 156 103.5 247t254.5 91q199 0 332 -100q8 -6 9 -13t-0.5 -10t-6.5 -12l-37 -58q-13 -21 -41 -2 q-125 78 -241 78q-66 0 -118.5 -20t-89 -72t-36.5 -131q0 -36 17 -67.5t40 -53t63 -43.5t69 -34t75 -29q49 -19 77.5 -31t71 -33t67.5 -39.5t54.5 -47.5t45.5 -59.5t27 -72.5t11 -90q0 -164 -115.5 -257t-299.5 -93q-110 0 -206.5 37.5t-150.5 105.5z" />
<glyph unicode="T" horiz-adv-x="837" d="M29 1169v74q0 21 18 21h744q18 0 18 -19v-76q0 -18 -18 -18h-293q-17 0 -17 -14v-1117q0 -20 -18 -20h-92q-21 0 -21 18v1117q0 16 -16 16h-287q-10 0 -14 3.5t-4 14.5z" />
<glyph unicode="U" horiz-adv-x="1001" d="M119 328v917q0 19 20 19h92q19 0 19 -19v-917q0 -98 69 -163t183 -65t181 66t67 166v913q0 19 20 19h92q19 0 19 -19v-917q0 -156 -108 -248t-271 -92q-168 0 -275.5 93t-107.5 247z" />
<glyph unicode="V" horiz-adv-x="884" d="M23 1235q-5 13 0.5 21t19.5 8h92q18 0 25 -17l190 -717l94 -374q1 -3 2.5 -4t3.5 0t3 4q4 16 44 174.5t48 199.5l186 717q7 17 25 17h90q31 0 22 -33l-342 -1215q-5 -16 -24 -16h-111q-20 0 -24 18z" />
<glyph unicode="W" horiz-adv-x="1335" d="M10 1239v4q0 21 21 21h96q19 0 23 -23q141 -651 147 -682l72 -356q2 -2 6 -2t4 2q14 62 36 176t38 186q42 209 143 684q5 15 25 15h90q17 0 24 -21q27 -127 81.5 -369t68.5 -303q12 -61 38.5 -183.5t39.5 -184.5q3 -6 6 -6q4 0 4 6l74 377q84 397 139 665q3 19 22 19h90 q23 0 23 -17q0 -8 -2 -12l-275 -1221q-7 -14 -20 -14h-119q-15 0 -18 12q-68 312 -150 674l-71 334v4l-4 -4l-70 -338l-141 -670q-5 -12 -21 -12h-117q-13 0 -20 10z" />
<glyph unicode="X" horiz-adv-x="884" d="M33 27l327 610q11 27 -2 45l-297 557q-6 11 -2 18t19 7h98q24 0 33 -17l233 -452q3 -4 8 -3.5t7 3.5q9 18 109.5 208.5t125.5 243.5q8 17 33 17h92q13 0 17.5 -7t-0.5 -18q-33 -65 -154 -285t-150 -276q-10 -20 0 -39q35 -67 170.5 -313t163.5 -299q12 -27 -14 -27h-96 q-27 0 -35 16l-262 502q-3 8 -8.5 8.5t-10.5 -6.5l-264 -504q-10 -16 -35 -16h-92q-29 0 -14 27z" />
<glyph unicode="Y" horiz-adv-x="858" d="M33 1235q-13 29 16 29h86q25 0 35 -21l252 -602q9 -14 16 -2q24 61 125.5 300.5t124.5 301.5q5 9 8 13t10 7t19 3h86q14 0 18.5 -8.5t-2.5 -20.5l-323 -727q-10 -25 -10 -49v-439q0 -20 -19 -20h-92q-21 0 -21 18v439q0 31 -8 45z" />
<glyph unicode="Z" horiz-adv-x="833" d="M53 27v49q0 24 13 47l546 1007q12 21 -12 21h-496q-20 0 -20 18v74q0 21 20 21h637q33 0 33 -29v-45q0 -32 -18 -64l-537 -991q-13 -20 10 -20h535q20 0 20 -19v-76q0 -20 -18 -20h-682q-14 0 -22.5 8t-8.5 19z" />
<glyph unicode="[" horiz-adv-x="645" d="M203 -281v1657q0 19 16 19h279q16 0 16 -19v-76q0 -14 -16 -14h-152q-18 0 -18 -18v-1440q0 -16 18 -16h152q16 0 16 -17v-76q0 -16 -16 -16h-279q-16 0 -16 16z" />
<glyph unicode="\" horiz-adv-x="602" d="M10 1360q-3 10 3 16t14 6h45q24 0 30 -22l490 -1473q3 -10 -2 -16t-15 -6h-49q-19 0 -26 20z" />
<glyph unicode="]" horiz-adv-x="636" d="M104 -207q0 17 15 17h151q21 0 21 18v1438q0 16 -21 16h-151q-15 0 -15 18v74q0 19 15 19h280q17 0 17 -19v-1657q0 -16 -15 -16h-282q-15 0 -15 16v76z" />
<glyph unicode="^" horiz-adv-x="1075" d="M156 831l317 433q8 11 13.5 14.5t19.5 3.5h63q18 0 31 -18l318 -430q14 -19 -9 -35l-32 -27q-13 -10 -35 12l-297 340q-11 11 -15 11q-6 0 -14 -11l-278 -338q-24 -24 -37 -16l-41 29q-19 11 -4 32z" />
<glyph unicode="_" horiz-adv-x="1024" d="M-4 -186q0 16 18 16h996q16 0 16 -16v-62q0 -16 -14 -16h-998q-18 0 -18 16v62z" />
<glyph unicode="`" horiz-adv-x="860" d="M256 1237q-21 25 6 41l70 43q24 12 39 -14l147 -256q11 -21 -8 -33l-31 -19q-18 -13 -35 9z" />
<glyph unicode="a" horiz-adv-x="839" d="M70 293q0 134 85 221.5t236 87.5q117 0 189 -63q10 -8 19 -4.5t9 16.5v57q0 90 -46.5 140.5t-155.5 50.5q-45 0 -111.5 -14t-104.5 -33q-17 -10 -24 10l-27 65q-6 16 11 23q51 27 124.5 42t143.5 15q168 0 241.5 -80t73.5 -235v-574q0 -18 -16 -18h-84q-15 0 -15 14v58 q0 13 -7 14.5t-15 -6.5q-80 -92 -221 -92q-145 0 -225 83.5t-80 221.5zM186 297q0 -91 52 -148t155 -57q91 0 149 59.5t58 147.5q0 87 -54.5 145t-150.5 58t-152.5 -58.5t-56.5 -146.5z" />
<glyph unicode="b" horiz-adv-x="882" d="M109 16v1270q0 19 18 19h90q16 0 16 -17v-452q0 -13 8.5 -18.5t18.5 5.5q89 82 232 82q82 0 144 -28.5t97.5 -77.5t52.5 -108t17 -126v-246q0 -145 -87 -237t-235 -92q-71 0 -132.5 23.5t-96.5 58.5q-7 7 -13 8.5t-10 -2.5t-4 -12v-48q0 -18 -18 -18h-80q-18 0 -18 16z M231 319q0 -96 64 -160.5t160 -64.5q107 0 164 62.5t57 165.5v243q0 103 -53 167.5t-166 64.5q-97 0 -161.5 -67.5t-64.5 -162.5v-248z" />
<glyph unicode="c" horiz-adv-x="792" d="M92 319v248q0 154 100 247q98 91 246 91h6q182 0 293 -145q14 -21 -6 -35l-59 -43q-21 -13 -37 10q-75 105 -193 105q-99 0 -162 -63t-63 -159v-258q0 -101 59.5 -160t165.5 -59q70 0 115 28.5t86 82.5q9 15 27 0l59 -37q27 -16 12 -35q-98 -149 -299 -149 q-161 0 -255.5 89.5t-94.5 241.5z" />
<glyph unicode="d" horiz-adv-x="890" d="M96 319v246q0 140 88 240t242 100q141 0 211 -82q12 -11 19.5 -6.5t7.5 17.5v452q0 19 16 19h92q19 0 19 -17v-1272q0 -16 -17 -16h-84q-16 0 -16 18v48q0 11 -9 14t-20 -6q-33 -35 -95 -59.5t-132 -24.5q-156 0 -239 89.5t-83 239.5zM221 322q0 -102 56 -164t167 -62 q95 0 157.5 63.5t62.5 159.5l2 248q0 95 -63.5 161.5t-158.5 66.5q-108 0 -165.5 -65.5t-57.5 -164.5v-243z" />
<glyph unicode="e" horiz-adv-x="866" d="M96 317v246q0 153 98 248.5t248 95.5q156 0 252.5 -93.5t96.5 -254.5v-92q0 -19 -11 -31t-24 -12h-504q-14 0 -22.5 -9t-8.5 -22v-67q0 -97 62 -162.5t161 -65.5q125 0 199 103q14 20 35 6l57 -37q19 -14 13 -29q-45 -75 -124.5 -114t-177.5 -39q-158 0 -254 90t-96 239z M223 551q0 -10 7.5 -17.5t21.5 -7.5h391q21 0 21 23v33q0 94 -62 155.5t-160 61.5q-93 0 -156 -63t-63 -154v-31z" />
<glyph unicode="f" horiz-adv-x="544" d="M37 805v74q0 16 16 16h88q23 0 23 20v142q0 119 67 189.5t185 70.5q83 0 139 -17q13 -5 16 -9.5t0 -16.5l-16 -74q-3 -18 -27 -12q-40 16 -94 16q-147 0 -147 -166v-123q0 -20 18 -20h207q16 0 16 -16v-76q0 -15 -16 -15h-209q-16 -3 -16 -20v-752q0 -16 -19 -16h-90 q-16 0 -16 16v750q0 20 -17 22h-94q-14 0 -14 17z" />
<glyph unicode="g" horiz-adv-x="874" d="M74 588q0 129 100.5 223t237.5 94q141 0 223 -71q10 -8 22 2q88 67 179 67q16 1 22 -5t6 -21v-82q0 -15 -5.5 -19.5t-22.5 -3.5h-18q-45 0 -91 -12q-15 -5 -8 -19q41 -65 41 -149q0 -145 -102.5 -236.5t-247.5 -91.5q-62 0 -76 -6q-51 -20 -87.5 -65t-37.5 -91 q0 -15 4.5 -19t17.5 -1q53 12 125 20.5t109 8.5q76 0 144 -15t126 -46t92.5 -84.5t34.5 -123.5q0 -79 -49 -146t-127 -102q-21 -12 -35 9l-35 55q-11 18 11 27q104 69 104 151q0 42 -26 74.5t-66.5 50.5t-84 26.5t-85.5 8.5q-93 0 -303 -33q-33 -5 -49 19q-29 48 -29 120 q0 50 35.5 104t91.5 87q21 12 -8 31q-133 97 -133 264zM195 584q0 -89 57.5 -154t159.5 -65q107 0 165 64t58 157q0 88 -62.5 151.5t-154.5 63.5q-98 0 -160.5 -64.5t-62.5 -152.5z" />
<glyph unicode="h" horiz-adv-x="915" d="M115 16v1270q0 19 16 19h92q15 0 15 -19v-457q0 -13 8.5 -16t17.5 6q89 86 230 86q155 0 235 -95t80 -243v-549q0 -18 -16 -18h-95q-16 0 -16 16v549q0 103 -55.5 167.5t-165.5 64.5q-97 0 -159 -65.5t-62 -162.5v-551q0 -18 -17 -18h-92q-16 0 -16 16z" />
<glyph unicode="i" horiz-adv-x="385" d="M109 1165q0 33 24.5 57.5t56.5 24.5q35 0 59.5 -23.5t24.5 -58.5q0 -34 -24 -59t-57 -25q-34 0 -59 24.5t-25 59.5zM125 16v861q0 18 18 18h93q16 0 16 -18v-861q0 -16 -16 -16h-93q-18 0 -18 16z" />
<glyph unicode="j" horiz-adv-x="393" d="M-72 -336l15 74q3 15 26 12q30 -6 62 -6q63 0 87.5 35t24.5 110v990q0 16 19 16h90q16 0 16 -16v-1002q0 -118 -54.5 -184t-168.5 -66q-54 0 -100 11q-22 6 -17 26zM123 1165q0 34 24 58t58 24q35 0 59.5 -23.5t24.5 -58.5q0 -34 -25 -59t-57 -25q-35 0 -59.5 24.5 t-24.5 59.5z" />
<glyph unicode="k" horiz-adv-x="864" d="M111 14v1272q0 19 16 19h94q15 0 15 -17v-780q0 -17 7 -18t15 10l373 383q12 10 28 10h113q12 0 15 -7.5t-3 -15.5l-297 -309q-6 -6 -4 -12t11 -6q29 0 41 -2q127 -10 192.5 -95.5t71.5 -224.5l10 -194q0 -27 -23 -27h-81q-23 0 -23 23l-10 198q-11 221 -215 221 q-96 0 -157.5 -62.5t-61.5 -150.5v-213q0 -16 -17 -16h-92q-18 0 -18 14z" />
<glyph unicode="l" horiz-adv-x="425" d="M135 211v1075q0 19 17 19h92q16 0 16 -17v-1063q0 -67 19.5 -93t74.5 -26h25q16 0 16 -24v-72q0 -19 -18 -22q-20 -2 -47 -2q-115 0 -155 55.5t-40 169.5z" />
<glyph unicode="m" horiz-adv-x="1400" d="M106 16v564q0 144 92 234.5t234 90.5q78 0 146.5 -32.5t113.5 -94.5q11 -14 23 -2q48 61 118.5 95t151.5 34q145 0 228 -88.5t83 -236.5v-562q0 -18 -16 -18h-92q-19 0 -19 16v564q0 96 -50 156.5t-152 60.5q-83 0 -143 -65t-60 -152v-562q0 -18 -16 -18h-91 q-18 0 -18 16v564q0 92 -54.5 154.5t-144.5 62.5q-101 0 -154 -61t-53 -156v-562q0 -18 -16 -18h-92q-19 0 -19 16z" />
<glyph unicode="n" horiz-adv-x="911" d="M111 16v861q0 18 16 18h88q9 0 11.5 -3.5t2.5 -12.5v-54q0 -14 8.5 -16t18.5 8q97 88 231 88q156 0 237 -94t81 -244v-549q0 -18 -14 -18h-95q-16 0 -16 16v549q0 103 -55.5 167.5t-165.5 64.5q-98 0 -159.5 -65t-61.5 -163v-551q0 -18 -19 -18h-90q-18 0 -18 16z" />
<glyph unicode="o" horiz-adv-x="890" d="M98 324v247q0 152 95.5 244t252.5 92t252 -90.5t95 -245.5v-243q0 -160 -92.5 -250t-254.5 -90t-255 89t-93 247zM223 326q0 -105 59 -167.5t164 -62.5q107 0 163.5 62t58.5 168v243q0 101 -59.5 164.5t-162.5 63.5q-105 0 -164 -62.5t-59 -163.5v-245z" />
<glyph unicode="p" horiz-adv-x="901" d="M113 -354v1233q0 16 16 16h84q16 0 16 -16v-60q0 -7 4 -9.5t10 0t13 9.5q86 86 227 86q150 0 237 -88.5t87 -241.5v-247q0 -92 -33.5 -168t-106 -125t-171.5 -49q-146 0 -230 84q-14 11 -21 6.5t-7 -17.5v-411q0 -19 -17 -19h-92q-16 0 -16 17zM238 326q0 -96 62.5 -163 t158.5 -67q110 0 165.5 64t55.5 166v245q0 103 -55 164.5t-166 61.5q-96 0 -158.5 -63t-62.5 -159v-249z" />
<glyph unicode="q" horiz-adv-x="892" d="M94 291v282q0 148 92 240t242 92q140 0 215 -86q11 -10 19 -7t8 15v52q0 16 18 16h82q18 0 18 -16v-1246q0 -18 -16 -18h-92q-18 0 -18 16v428q0 12 -8 16.5t-21 -5.5q-55 -44 -105.5 -64t-124.5 -20q-156 0 -232.5 86.5t-76.5 218.5zM219 326q0 -230 221 -230 q97 0 159.5 66.5t62.5 163.5v247q0 98 -61.5 161t-158.5 63q-103 0 -163 -62t-60 -162v-247z" />
<glyph unicode="r" horiz-adv-x="559" d="M117 14v863q0 16 16 16h80q16 0 16 -16v-97q0 -11 7.5 -12.5t11.5 6.5q35 58 101 94.5t145 36.5q13 0 45 -4q22 -4 20 -20l-18 -90q-3 -20 -19 -17q-16 2 -49 2q-104 -3 -166.5 -68t-62.5 -173v-519q0 -16 -17 -16h-92q-18 0 -18 14z" />
<glyph unicode="s" horiz-adv-x="749" d="M59 172q-7 14 9 21l73 34q14 7 23 -10q29 -57 88.5 -91t130.5 -34q80 0 131 38.5t51 98.5q0 32 -12 56.5t-37 43t-48.5 30t-61.5 26.5q-13 5 -48.5 18t-54.5 20t-52.5 22.5t-52.5 28.5t-44 33.5t-38 42t-22.5 50.5t-9.5 62q0 114 86 177.5t207 65.5q182 0 285 -112 q12 -14 -5 -31l-41 -47q-15 -19 -36 2q-92 82 -203 82q-69 0 -120.5 -33t-51.5 -94q0 -29 14 -53t41.5 -42.5t53 -30.5t63.5 -26q133 -50 180 -78q127 -79 129 -209q0 -102 -81.5 -172.5t-229.5 -70.5q-105 0 -190.5 46.5t-125.5 135.5z" />
<glyph unicode="t" horiz-adv-x="598" d="M35 803v74q0 18 16 18h99q20 0 20 20v189q0 15 16 20l88 21q10 3 15.5 -3t5.5 -14v-215q0 -18 16 -18h207q19 0 19 -16v-74q0 -19 -19 -19h-205q-18 0 -18 -18v-508q0 -80 27 -119t92 -39q43 0 125 17q17 4 22.5 -1t7.5 -16l13 -63q3 -13 0 -17.5t-15 -9.5 q-55 -24 -170 -24q-124 0 -175.5 65.5t-51.5 182.5v532q0 18 -20 18h-97q-18 0 -18 17z" />
<glyph unicode="u" horiz-adv-x="907" d="M100 322v555q0 18 17 18h94q14 0 14 -16v-553q0 -102 49.5 -165t155.5 -63t172 65t66 163v551q0 18 16 18h94q19 0 19 -16v-861q0 -18 -19 -18h-88q-16 0 -16 16v52q0 13 -8 16t-17 -6q-38 -41 -105 -65.5t-130 -24.5q-156 0 -235 91t-79 243z" />
<glyph unicode="v" horiz-adv-x="794" d="M27 870q-6 25 14 25h82q25 0 35 -23l153 -456l78 -250q3 -9 8.5 -9.5t8.5 7.5l75 242l152 460q1 1 2 4q8 21 22 24l9 1h86q22 0 16 -25l-303 -847q-3 -13 -9 -18t-20 -5h-76q-15 0 -21 4t-11 16z" />
<glyph unicode="w" horiz-adv-x="1196" d="M23 868q-7 25 14 25h84q25 0 29 -25l106 -438l55 -237q1 -5 4 -6.5t5.5 0.5t3.5 6l67 231l133 440q7 29 31 29h72q21 0 30 -27l144 -454l65 -219q2 -4 4.5 -6t5 -0.5t3.5 6.5l51 235l100 438q7 27 31 27h86q20 0 16 -23l-229 -847q-9 -23 -27 -23h-67q-23 0 -29 18 l-133 416l-80 262q-1 5 -3 7t-4 0.5t-3 -7.5l-82 -272l-127 -404q-4 -20 -27 -20h-69q-22 0 -29 20z" />
<glyph unicode="x" horiz-adv-x="743" d="M20.5 7q-3.5 7 4.5 18l260 415q11 20 10.5 29.5t-8.5 24.5l-234 374q-7 10 -3 18.5t16 8.5h86q18 0 25 -3.5t16 -17.5l174 -290q11 -16 20 2l172 288q9 14 16 17.5t25 3.5h86q12 0 15 -8.5t-3 -18.5l-237 -376q-13 -24 0 -46l268 -421q14 -25 -12 -25h-90q-29 0 -43 23 l-199 329q-9 17 -20 0l-199 -329q-14 -23 -41 -23h-88q-13 0 -16.5 7z" />
<glyph unicode="y" horiz-adv-x="792" d="M23.5 888.5q3.5 8.5 19.5 8.5h80q27 0 35 -25l207 -737q2 -8 5.5 -12t8 -2t8.5 14l244 733q10 29 35 29h73q13 0 19.5 -9t1.5 -20l-404 -1210q-9 -33 -47 -33h-65q-26 0 -17 29l109 330q4 16 -10 16h-17q-29 0 -37 29l-247 839q-5 12 -1.5 20.5z" />
<glyph unicode="z" horiz-adv-x="757" d="M61 25v41q0 27 13 43l426 655q7 10 3 17t-18 7h-387q-18 0 -18 17v72q0 18 16 18h547q18 0 24.5 -6.5t6.5 -22.5v-45q0 -27 -8 -43l-426 -647q-16 -25 14 -25h432q19 0 19 -16v-72q0 -18 -17 -18h-600q-27 0 -27 25z" />
<glyph unicode="{" horiz-adv-x="655" d="M74 522v68q0 6 1.5 11t2.5 7.5t6 5.5t7 4t10 4.5t10 4.5q73 31 108 84t35 135v270q0 150 74 217.5t219 65.5h33q16 0 16 -17v-73q0 -17 -16 -17h-31q-94 0 -132 -33t-38 -126l-2 -324q0 -74 -38 -138.5t-106 -99.5q-7 -5 -7 -11t7 -9q68 -29 106 -101.5t38 -152.5l2 -346 q0 -92 37.5 -122t132.5 -30h31q16 0 16 -16v-74q0 -18 -16 -18h-33q-147 0 -220 63t-73 213v307q0 162 -139 218q-18 6 -24.5 9t-11.5 8t-5 13z" />
<glyph unicode="|" horiz-adv-x="434" d="M168 -217v1583q0 18 16 18h62q16 0 16 -16v-1583q0 -18 -16 -18h-62q-16 0 -16 16z" />
<glyph unicode="}" horiz-adv-x="655" d="M63 -217q0 18 15 18h33q95 0 132.5 31.5t37.5 124.5v340q0 80 38 152.5t105 101.5q8 3 8 9t-8 11q-67 34 -105 99t-38 139v328q0 92 -37.5 123.5t-132.5 31.5h-33q-15 0 -15 17v73q0 17 17 17h33q147 2 221 -64t74 -215v-274q0 -82 34 -134.5t107 -84.5q2 -1 7 -3 q11 -5 16 -7.5t8.5 -9t3.5 -17.5v-68q0 -11 -7.5 -16.5t-31.5 -13.5q-139 -56 -139 -218v-301q0 -151 -73 -216.5t-220 -63.5h-33q-17 0 -17 18v72z" />
<glyph unicode="~" d="M29 598q100 133 231 133q87 0 203 -59q53 -27 73.5 -36.5t62.5 -22.5t75 -13q71 -2 147 86q17 20 31 8l53 -41q14 -12 4 -28q-46 -67 -107 -104.5t-126 -37.5q-12 0 -25 1.5t-24 3t-25.5 6t-23.5 7t-25.5 9t-23 9t-25 10.5t-22.5 10t-23.5 11.5t-22.5 10.5 q-118 60 -174 60q-78 0 -160 -95q-10 -10 -18 -2l-53 49q-12 12 -2 25z" />
<glyph unicode="&#xa2;" d="M152 319v234q0 141 73.5 234t202.5 112q19 3 23 12q2 6 2 15v108q0 17 18 17h49q19 0 19 -17v-112q0 -9 4 -14.5t7 -6t11 -2.5q138 -17 234 -137q14 -20 -7 -37l-57 -43q-22 -14 -37 8q-75 107 -198 107q-99 0 -159.5 -63.5t-60.5 -158.5v-260q0 -94 60.5 -155.5 t155.5 -61.5q73 0 117.5 27t90.5 84q9 12 29 0l59 -37q26 -18 13 -37q-86 -122 -238 -141q-18 0 -22 -10q-2 -6 -2 -15v-112q0 -17 -17 -17h-53q-16 0 -16 15v116q0 17 -23 23q-131 17 -204.5 104t-73.5 221z" />
<glyph unicode="&#xa3;" d="M72 16v70q0 15 20 23q56 22 78.5 79.5t22.5 153.5v229q0 19 -19 19h-84q-16 0 -16 16v72q0 16 16 16h84q19 0 19 19v223q0 152 101.5 249t254.5 97q98 0 180 -37t131 -115q11 -18 -8 -30l-64 -41q-22 -14 -32 4q-70 111 -207 111q-101 0 -166.5 -64t-65.5 -162v-235 q0 -19 21 -19h235q19 0 19 -16v-74q0 -14 -19 -14h-235q-19 0 -19 -21v-168q0 -69 -1.5 -108t-14 -92t-37.5 -80q-4 -5 -2 -8.5t8 -3.5h521q18 0 18 -19v-72q0 -18 -18 -18h-705q-16 0 -16 16z" />
<glyph unicode="&#xa5;" d="M80 1239q-12 25 12 25h90q13 0 19 -4t12 -17q17 -37 47 -99.5t54.5 -116t45.5 -101.5l101 -234q11 -26 20 -2l113 260q24 54 69.5 152t63.5 139q8 14 14.5 18.5t20.5 4.5h82q26 0 14 -25l-244 -526q-12 -23 11 -23h221q16 0 16 -16v-56q0 -18 -16 -18h-733q-17 0 -17 16 v56q0 18 17 18h200q7 0 10.5 6.5t0.5 12.5zM96 434v55q0 17 17 17h733q16 0 16 -17v-55q0 -16 -16 -16h-297q-19 0 -19 -25v-377q0 -16 -16 -16h-90q-18 0 -18 14v379q0 23 -23 23h-270q-17 0 -17 18z" />
<glyph unicode="&#xa8;" horiz-adv-x="882" d="M199 1133q0 32 22.5 55.5t54.5 23.5t55 -23.5t23 -55.5q0 -34 -23 -57t-55 -23t-54.5 23.5t-22.5 56.5zM520 1133q0 32 24 55.5t56 23.5t55 -23.5t23 -55.5q0 -33 -22 -56.5t-54 -23.5q-34 0 -58 24t-24 56z" />
<glyph unicode="&#xa9;" horiz-adv-x="1441" d="M127 489v285q0 223 165.5 356.5t432.5 133.5q269 0 434.5 -130.5t165.5 -359.5v-285q0 -230 -165 -359.5t-435 -129.5q-268 0 -433 132.5t-165 356.5zM201 483q0 -86 33.5 -161t97 -133t164.5 -92t227 -34q246 0 388 120.5t142 299.5v297q0 183 -141 301.5t-389 118.5 q-126 0 -227 -33.5t-164.5 -91.5t-97 -133.5t-33.5 -161.5v-297zM485 498v239q0 107 70.5 172.5t183.5 65.5q149 0 217 -107q6 -12 -4 -20l-45 -29q-17 -10 -24 4q-23 35 -62 55.5t-84 20.5q-72 0 -119 -45t-47 -117v-235q0 -71 47 -117.5t119 -46.5q42 0 80.5 19.5 t63.5 52.5q13 19 26 8l47 -31q9 -9 2 -20q-82 -105 -219 -105q-115 0 -183.5 62.5t-68.5 173.5z" />
<glyph unicode="&#xab;" horiz-adv-x="948" d="M118.5 410.5q0.5 13.5 12.5 31.5l248 308q18 24 49 24h78q17 0 20.5 -8.5t-6.5 -20.5l-258 -321q-14 -17 0 -31l256 -319q8 -12 3.5 -22.5t-15.5 -10.5h-76q-18 0 -29 5.5t-26 23.5l-244 305q-13 22 -12.5 35.5zM450.5 411q0.5 13 14.5 31l248 308q10 14 19.5 19t29.5 5 h76q17 0 21 -8.5t-7 -20.5l-258 -321q-14 -14 0 -31l256 -319q10 -12 5.5 -22.5t-17.5 -10.5h-74q-30 0 -53 29l-244 305q-17 23 -16.5 36z" />
<glyph unicode="&#xad;" horiz-adv-x="653" d="M115 451v75q0 17 16 17h379q16 0 16 -17v-75q0 -19 -14 -19h-379q-18 0 -18 19z" />
<glyph unicode="&#xae;" horiz-adv-x="831" d="M84 897v154q0 124 90.5 197t237.5 73q148 0 238.5 -71.5t90.5 -198.5v-154q0 -126 -90.5 -197t-238.5 -71q-147 0 -237.5 73t-90.5 195zM135 895q0 -93 72.5 -156t204.5 -63q130 0 204 63t74 156v160q0 96 -73.5 157.5t-204.5 61.5q-132 0 -204.5 -62.5t-72.5 -156.5 v-160zM305 797v352q0 14 14 14h111q56 0 87.5 -29.5t31.5 -76.5q0 -30 -18 -58t-37 -38q-16 -9 -7 -27l62 -129q0 -1 1 -2q7 -19 -11 -19h-31q-14 0 -23 15l-63 133q-5 12 -19 12h-32q-11 0 -11 -12v-133q0 -15 -8 -15h-37q-10 0 -10 13zM360 999q0 -8 13 -8h57q22 0 42 18 t20 44q0 28 -17 44.5t-45 16.5h-57q-13 0 -13 -12v-103z" />
<glyph unicode="&#xb4;" horiz-adv-x="860" d="M371 1049l147 258q6 11 17 15.5t22 -1.5l68 -43q30 -17 8 -39l-189 -231q-19 -19 -34 -9l-33 19q-17 12 -6 31z" />
<glyph unicode="&#xb8;" horiz-adv-x="798" d="M285 -352q0 5 6 14l22 33q8 11 21 4q60 -33 106 -33q48 0 75.5 22.5t27.5 53.5q0 13 -3 24t-11.5 24.5t-28 21.5t-47.5 8h-50q-74 0 -59 57l37 135q7 21 18 21h50q10 0 10 -13l-27 -108q-6 -21 12 -21h25q70 0 115 -39.5t45 -107.5q0 -61 -51.5 -105.5t-133.5 -44.5 q-89 0 -153 44q-6 6 -6 10z" />
<glyph unicode="&#xbb;" horiz-adv-x="948" d="M106 763q4 9 21 9h78q20 0 29 -5.5t20 -18.5l248 -310q27 -30 -2 -67l-244 -303q-22 -31 -53 -31h-76q-13 0 -17.5 10.5t5.5 24.5l256 317q8 12 8.5 15t-8.5 18l-258 321q-11 11 -7 20zM440 763q4 9 21 9h76q28 0 49 -24l248 -310q23 -29 0 -67l-244 -303 q-15 -19 -25.5 -25t-29.5 -6h-74q-11 0 -15.5 10.5t3.5 24.5l258 317q11 16 0 33l-261 321q-10 11 -6 20z" />
<glyph unicode="&#xc2;" horiz-adv-x="923" d="M35 25l330 1218q4 21 24 21h137q20 0 25 -19l336 -1216q10 -29 -15 -29h-94q-18 0 -24 14l-78 281q-3 8 -10 8h-416q-9 0 -12 -6q-7 -32 -39 -147t-37 -136q-3 -14 -23 -14h-84q-25 0 -20 25zM193 1352q-11 11 0 22l190 191q21 18 45 18h59q24 0 45 -18l195 -195 q4 -6 2 -12t-6 -8l-27 -21q-14 -11 -37 4l-188 127q-15 11 -33 0l-182 -127q-20 -16 -37 -2zM270 428q-2 -14 9 -14h354q9 0 11 2.5t1 11.5l-117 428l-65 264q-1 6 -5 6t-5 -6l-66 -262z" />
<glyph unicode="&#xc7;" horiz-adv-x="864" d="M119 328v612q0 151 102.5 245.5t263.5 94.5q213 0 330 -141q15 -18 -4 -37l-57 -47q-8 -7 -19.5 -5t-17.5 11q-38 47 -101.5 75.5t-128.5 28.5q-107 0 -172 -63.5t-65 -163.5v-606q0 -101 66 -166.5t180 -65.5q62 0 121.5 28t99.5 71q12 14 20 17t23 -5l55 -47 q17 -13 4 -29q-114 -141 -313 -147l-19 -76q-6 -21 13 -21h24q70 0 115 -39.5t45 -107.5q0 -61 -51 -105.5t-133 -44.5q-90 0 -154 44q-6 6 -6 10q0 5 6 14l23 33q8 10 20 4q61 -33 107 -33q48 0 75 22.5t27 53.5q0 13 -3 24t-11.5 24.5t-28 21.5t-47.5 8h-49q-37 0 -52 14 t-8 43l31 115q-142 18 -226.5 107t-84.5 229z" />
<glyph unicode="&#xce;" horiz-adv-x="452" d="M-41 1362q-11 11 0 22l191 191q21 18 45 18h59q24 0 45 -18l195 -195q4 -6 1.5 -12t-6.5 -8l-26 -21q-14 -11 -37 4l-188 127q-15 11 -33 0l-182 -127q-20 -16 -37 -2zM158 18v1227q0 19 20 19h92q9 0 15 -5.5t6 -13.5v-1225q0 -20 -21 -20h-92q-20 0 -20 18z" />
<glyph unicode="&#xd6;" horiz-adv-x="997" d="M119 338v596q0 154 106.5 250t272.5 96q167 0 274 -94t107 -252v-600q0 -159 -104 -252.5t-275 -93.5q-174 0 -277.5 94.5t-103.5 255.5zM250 342q0 -106 63.5 -174t184.5 -68q116 0 183 65.5t67 172.5v592q0 100 -66.5 166.5t-181.5 66.5t-182.5 -66.5t-67.5 -166.5 v-588zM252 1438q0 33 23.5 56.5t56.5 23.5q32 0 55 -23t23 -57t-23 -57t-55 -23q-33 0 -56.5 23.5t-23.5 56.5zM578 1438q0 34 22.5 57t54.5 23t55 -23t23 -57t-23 -57t-55 -23t-54.5 23t-22.5 57z" />
<glyph unicode="&#xdb;" horiz-adv-x="1001" d="M119 328v917q0 19 20 19h92q19 0 19 -19v-917q0 -98 69 -163t183 -65t181 66t67 166v913q0 19 20 19h92q19 0 19 -19v-917q0 -156 -108 -248t-271 -92q-168 0 -275.5 93t-107.5 247zM217 1352q-11 11 0 22l191 191q21 18 45 18h59q24 0 45 -18l195 -195q4 -6 2 -12t-6 -8 l-27 -21q-14 -11 -37 4l-188 127q-15 11 -33 0l-182 -127q-20 -16 -37 -2z" />
<glyph unicode="&#xdc;" horiz-adv-x="1001" d="M119 328v917q0 19 20 19h92q19 0 19 -19v-917q0 -98 69 -163t183 -65t181 66t67 166v913q0 19 20 19h92q19 0 19 -19v-917q0 -156 -108 -248t-271 -92q-168 0 -275.5 93t-107.5 247zM248 1438q0 33 23.5 56.5t56.5 23.5q32 0 55 -23t23 -57t-23 -57t-55 -23 q-33 0 -56.5 23.5t-23.5 56.5zM573 1438q0 34 23 57t55 23t55 -23t23 -57t-23 -57t-55 -23t-55 23t-23 57z" />
<glyph unicode="&#xe2;" horiz-adv-x="839" d="M70 293q0 134 85 221.5t236 87.5q117 0 189 -63q10 -8 19 -4.5t9 16.5v57q0 90 -46.5 140.5t-155.5 50.5q-45 0 -111.5 -14t-104.5 -33q-17 -10 -24 10l-27 65q-6 16 11 23q51 27 124.5 42t143.5 15q168 0 241.5 -80t73.5 -235v-574q0 -18 -16 -18h-84q-15 0 -15 14v58 q0 13 -7 14.5t-15 -6.5q-80 -92 -221 -92q-145 0 -225 83.5t-80 221.5zM162 1067l194 240q18 18 39 18h58q21 0 39 -18l194 -238q18 -21 -2 -35l-22 -20q-15 -15 -35 2l-193 180q-13 13 -26 2l-187 -182q-17 -20 -35 -4l-22 20q-21 16 -2 35zM186 297q0 -91 52 -148t155 -57 q91 0 149 59.5t58 147.5q0 87 -54.5 145t-150.5 58t-152.5 -58.5t-56.5 -146.5z" />
<glyph unicode="&#xe7;" horiz-adv-x="792" d="M92 319v248q0 154 100 247t252 91q182 0 293 -145q14 -21 -6 -35l-59 -43q-21 -13 -37 10q-75 105 -193 105q-99 0 -162 -63t-63 -159v-258q0 -101 59.5 -160t165.5 -59q70 0 115 28.5t86 82.5q9 15 27 0l59 -37q27 -16 12 -35q-93 -139 -276 -149l-19 -76q-6 -21 13 -21 h24q70 0 115 -39.5t45 -107.5q0 -61 -51 -105.5t-133 -44.5q-90 0 -154 44q-6 6 -6 10q0 5 6 14l23 33q8 10 20 4q60 -33 107 -33q48 0 75 22.5t27 53.5q0 13 -3 24t-11.5 24.5t-28 21.5t-47.5 8h-49q-37 0 -52 14t-8 43l31 115q-138 14 -217.5 101t-79.5 226z" />
<glyph unicode="&#xee;" horiz-adv-x="385" d="M-72 1067l195 240q18 18 39 18h57q21 0 39 -18l195 -238q18 -21 -2 -35l-23 -20q-15 -15 -35 2l-192 180q-13 13 -27 2l-186 -182q-17 -20 -35 -4l-23 20q-21 16 -2 35zM125 16v861q0 18 18 18h93q16 0 16 -18v-861q0 -16 -16 -16h-93q-18 0 -18 16z" />
<glyph unicode="&#xf6;" horiz-adv-x="890" d="M98 324v247q0 152 95.5 244t252.5 92t252 -90.5t95 -245.5v-243q0 -160 -92.5 -250t-254.5 -90t-255 89t-93 247zM209 1133q0 32 23 55.5t55 23.5t55 -23.5t23 -55.5q0 -34 -23 -57t-55 -23t-55 24t-23 56zM223 326q0 -105 59 -167.5t164 -62.5q107 0 163.5 62t58.5 168 v243q0 101 -59.5 164.5t-162.5 63.5q-105 0 -164 -62.5t-59 -163.5v-245zM530 1133q0 32 24 55.5t56 23.5t55 -23.5t23 -55.5q0 -33 -22 -56.5t-54 -23.5q-34 0 -58 24t-24 56z" />
<glyph unicode="&#xfb;" horiz-adv-x="907" d="M100 322v555q0 18 17 18h94q14 0 14 -16v-553q0 -102 49.5 -165t155.5 -63t172 65t66 163v551q0 18 16 18h94q19 0 19 -16v-861q0 -18 -19 -18h-88q-16 0 -16 16v52q0 13 -8 16t-17 -6q-38 -41 -105 -65.5t-130 -24.5q-156 0 -235 91t-79 243zM180 1067l195 240 q18 18 39 18h57q21 0 39 -18l195 -238q17 -21 -3 -35l-22 -20q-15 -15 -35 2l-192 180q-13 13 -27 2l-186 -182q-17 -20 -35 -4l-23 20q-21 16 -2 35z" />
<glyph unicode="&#xfc;" horiz-adv-x="907" d="M100 322v555q0 18 17 18h94q14 0 14 -16v-553q0 -102 49.5 -165t155.5 -63t172 65t66 163v551q0 18 16 18h94q19 0 19 -16v-861q0 -18 -19 -18h-88q-16 0 -16 16v52q0 13 -8 16t-17 -6q-38 -41 -105 -65.5t-130 -24.5q-156 0 -235 91t-79 243zM211 1133q0 32 23 55.5 t55 23.5t55 -23.5t23 -55.5q0 -34 -23 -57t-55 -23t-55 24t-23 56zM532 1133q0 32 24 55.5t56 23.5t55 -23.5t23 -55.5q0 -33 -22 -56.5t-54 -23.5q-34 0 -58 24t-24 56z" />
<glyph unicode="&#x11e;" horiz-adv-x="964" d="M119 326v616q0 149 107.5 243.5t269.5 94.5q101 0 191.5 -38.5t137.5 -111.5q6 -12 4.5 -18.5t-12.5 -15.5l-57 -45q-9 -7 -20 -4t-19 14q-37 52 -97.5 77t-125.5 25q-115 0 -181.5 -66.5t-66.5 -166.5v-600q0 -102 69 -166t177 -64q103 0 167 60.5t64 167.5v223 q0 16 -12 16h-166q-21 0 -21 19v78q0 20 21 20h291q9 0 15.5 -5.5t6.5 -14.5v-338q0 -149 -101.5 -243.5t-264.5 -94.5q-166 0 -271.5 90.5t-105.5 247.5zM252 1559q0 18 18 18h35q11 0 15.5 -5.5t7.5 -19.5q15 -63 55 -97t100 -34q58 0 100.5 34.5t55.5 96.5q2 9 3 11 l3.5 7t6 6t10.5 1h34q19 0 19 -18q-3 -101 -70 -169.5t-164 -68.5q-93 0 -159.5 68.5t-69.5 169.5z" />
<glyph unicode="&#x11f;" horiz-adv-x="874" d="M74 588q0 129 100.5 223t237.5 94q141 0 223 -71q10 -8 22 2q88 67 179 67q16 1 22 -5t6 -21v-82q0 -15 -5.5 -19.5t-22.5 -3.5q-54 3 -109 -12q-15 -5 -8 -19q41 -65 41 -149q0 -145 -102.5 -236.5t-247.5 -91.5q-62 0 -76 -6q-51 -20 -87.5 -65t-37.5 -91 q0 -15 4.5 -19t17.5 -1q53 12 125 20.5t109 8.5q76 0 144 -15t126 -46t92.5 -84.5t34.5 -123.5q0 -79 -49 -146t-127 -102q-21 -12 -35 9l-35 55q-11 18 11 27q104 69 104 151q0 42 -26 74.5t-66.5 50.5t-84 26.5t-85.5 8.5q-93 0 -303 -33q-33 -5 -49 19q-29 48 -29 120 q0 50 35.5 104t91.5 87q21 12 -8 31q-133 97 -133 264zM193 1253q0 21 16 21h37q4 0 6.5 -0.5t5 -2t3.5 -3t2.5 -4.5t1.5 -4.5t1.5 -6t1.5 -6.5q15 -57 55.5 -97t98.5 -40q59 0 98.5 39.5t54.5 97.5q0 1 1 5t1.5 5t1.5 4t1.5 4t2 3t2.5 2.5l3 1.5t4.5 1.5t5.5 0.5h37 q16 0 16 -21q0 -93 -69 -163t-160 -70t-160 70t-69 163zM195 584q0 -89 57.5 -154t159.5 -65q107 0 165 64t58 157q0 88 -62.5 151.5t-154.5 63.5q-98 0 -160.5 -64.5t-62.5 -152.5z" />
<glyph unicode="&#x130;" horiz-adv-x="452" d="M141 1475q0 33 22.5 56t55.5 23q32 0 55 -22.5t23 -54.5t-22.5 -55t-53.5 -23q-34 0 -57 22t-23 54zM158 18v1227q0 19 20 19h92q9 0 15 -5.5t6 -13.5v-1225q0 -20 -21 -20h-92q-20 0 -20 18z" />
<glyph unicode="&#x131;" horiz-adv-x="385" d="M125 16v861q0 18 18 18h93q16 0 16 -18v-861q0 -16 -16 -16h-93q-18 0 -18 16z" />
<glyph unicode="&#x15e;" horiz-adv-x="901" d="M57 133q-16 16 6 33l52 49q17 12 37 -8q51 -47 121 -76t139 -29q130 0 209 60t79 174q0 54 -19 95.5t-59 71t-76 47t-95 40.5q-151 56 -214 96q-155 97 -155 256q0 156 103.5 247t254.5 91q199 0 332 -100q8 -6 9 -13t-0.5 -10t-6.5 -12l-37 -58q-13 -21 -41 -2 q-125 78 -241 78q-66 0 -118.5 -20t-89 -72t-36.5 -131q0 -36 17 -67.5t40 -53t63 -43.5t69 -34t75 -29q49 -19 77.5 -31t71 -33t67.5 -39.5t54.5 -47.5t45.5 -59.5t27 -72.5t11 -90q0 -144 -90.5 -234.5t-242.5 -109.5l-21 -84q-6 -21 12 -21h25q70 0 115 -39.5t45 -107.5 q0 -61 -51.5 -105.5t-133.5 -44.5q-89 0 -153 44q-6 6 -6 10q0 5 6 14l22 33q8 11 21 4q61 -33 106 -33q48 0 75.5 22.5t27.5 53.5q0 13 -3 24t-11.5 24.5t-28 21.5t-47.5 8h-50q-74 0 -59 57l31 113h-4q-110 0 -206.5 37.5t-150.5 105.5z" />
<glyph unicode="&#x15f;" horiz-adv-x="749" d="M59 172q-7 14 9 21l73 34q14 7 23 -10q29 -57 88.5 -91t130.5 -34q80 0 131 38.5t51 98.5q0 32 -12 56.5t-37 43t-48.5 30t-61.5 26.5q-13 5 -48.5 18t-54.5 20t-52.5 22.5t-52.5 28.5t-44 33.5t-38 42t-22.5 50.5t-9.5 62q0 114 86 177.5t207 65.5q182 0 285 -112 q12 -14 -5 -31l-41 -47q-15 -19 -36 2q-92 82 -203 82q-69 0 -120.5 -33t-51.5 -94q0 -29 14 -53t41.5 -42.5t53 -30.5t63.5 -26q133 -50 180 -78q127 -79 129 -209q0 -94 -71.5 -162.5t-200.5 -78.5l-19 -80q-6 -21 13 -21h24q70 0 115 -39.5t45 -107.5q0 -61 -51 -105.5 t-133 -44.5q-90 0 -154 44q-6 6 -6 10q0 5 6 14l22 33q8 11 21 4q61 -33 106 -33q48 0 75.5 22.5t27.5 53.5q0 13 -3 24t-11.5 24.5t-28 21.5t-47.5 8h-49q-37 0 -52 14t-8 43l31 115q-94 8 -169 53.5t-110 126.5z" />
<glyph unicode="&#x2c6;" horiz-adv-x="884" d="M193 1067l194 240q18 18 39 18h57q21 0 39 -18l195 -238q18 -21 -2 -35l-23 -20q-15 -15 -35 2l-192 180q-13 13 -27 2l-186 -182q-17 -20 -35 -4l-22 20q-21 16 -2 35z" />
<glyph unicode="&#x2da;" horiz-adv-x="839" d="M283 1149q0 68 45 116t112 48q66 0 113 -46.5t47 -113.5q0 -66 -46.5 -113t-113.5 -47q-66 0 -111.5 45.5t-45.5 110.5zM356 1151q0 -37 24.5 -62.5t59.5 -25.5q36 0 62 26t26 62q0 37 -26.5 63.5t-61.5 26.5t-59.5 -26.5t-24.5 -63.5z" />
<glyph unicode="&#x2dc;" horiz-adv-x="845" d="M166 1110q63 113 151 113q42 0 115.5 -35t104.5 -35q47 0 84 64q6 8 7.5 9t12.5 -3l51 -23q16 -6 6 -29q-28 -58 -70.5 -85t-84.5 -27q-46 0 -121 33.5t-109 33.5q-20 0 -40.5 -17t-32.5 -42q-11 -16 -31 -8l-41 22q-11 7 -2 29z" />
<glyph unicode="&#x2000;" horiz-adv-x="796" />
<glyph unicode="&#x2001;" horiz-adv-x="1593" />
<glyph unicode="&#x2002;" horiz-adv-x="796" />
<glyph unicode="&#x2003;" horiz-adv-x="1593" />
<glyph unicode="&#x2004;" horiz-adv-x="531" />
<glyph unicode="&#x2005;" horiz-adv-x="398" />
<glyph unicode="&#x2006;" horiz-adv-x="265" />
<glyph unicode="&#x2007;" horiz-adv-x="265" />
<glyph unicode="&#x2008;" horiz-adv-x="199" />
<glyph unicode="&#x2009;" horiz-adv-x="318" />
<glyph unicode="&#x200a;" horiz-adv-x="88" />
<glyph unicode="&#x2010;" horiz-adv-x="653" d="M115 451v75q0 17 16 17h379q16 0 16 -17v-75q0 -19 -14 -19h-379q-18 0 -18 19z" />
<glyph unicode="&#x2011;" horiz-adv-x="653" d="M115 451v75q0 17 16 17h379q16 0 16 -17v-75q0 -19 -14 -19h-379q-18 0 -18 19z" />
<glyph unicode="&#x2012;" horiz-adv-x="653" d="M115 451v75q0 17 16 17h379q16 0 16 -17v-75q0 -19 -14 -19h-379q-18 0 -18 19z" />
<glyph unicode="&#x2013;" horiz-adv-x="1024" d="M59 449v61q0 18 15 18h872q19 0 19 -18v-61q0 -19 -17 -19h-872q-17 0 -17 19z" />
<glyph unicode="&#x2014;" horiz-adv-x="2048" d="M59 449v61q0 18 15 18h1892q19 0 19 -18v-61q0 -19 -19 -19h-1890q-17 0 -17 19z" />
<glyph unicode="&#x2018;" horiz-adv-x="372" d="M76 940l90 348q6 23 29 23h45q22 0 18 -33l-20 -346q0 -11 -7.5 -19t-19.5 -8h-111q-17 0 -22.5 8t-1.5 27z" />
<glyph unicode="&#x2019;" horiz-adv-x="378" d="M100 936l23 346q0 12 7.5 20.5t19.5 8.5h108q19 0 25 -8.5t2 -28.5l-90 -346q-6 -23 -29 -23h-45q-11 0 -17 9t-4 22z" />
<glyph unicode="&#x201a;" horiz-adv-x="389" d="M104 -195l21 340q0 12 7.5 19.5t19.5 7.5h110q34 0 23 -35l-90 -340q-5 -22 -27 -22h-45q-23 0 -19 30z" />
<glyph unicode="&#x201c;" horiz-adv-x="573" d="M63 940l93 348q6 23 26 23h45q19 0 19 -33l-21 -346q0 -11 -7.5 -19t-20.5 -8h-109q-33 0 -25 35zM297 940l88 348q9 23 27 23h43q24 0 20 -33l-20 -346q0 -11 -7.5 -19t-19.5 -8h-109q-31 0 -22 35z" />
<glyph unicode="&#x201d;" horiz-adv-x="573" d="M90 936l23 346q0 12 7 20.5t19 8.5h109q17 0 22 -8.5t0 -28.5l-88 -346q-6 -23 -26 -23h-45q-11 0 -17 9t-4 22zM322 936l20 346q4 29 29 29h106q19 0 24.5 -8.5t0.5 -28.5l-88 -346q-9 -23 -29 -23h-43q-20 0 -20 31z" />
<glyph unicode="&#x201e;" horiz-adv-x="630" d="M104 -195l21 340q0 12 7.5 19.5t19.5 7.5h110q34 0 23 -35l-90 -340q-5 -22 -27 -22h-45q-23 0 -19 30zM352 -195l21 340q0 27 26 27h111q19 0 24.5 -8t0.5 -27l-93 -340q-6 -22 -26 -22h-45q-23 0 -19 30z" />
<glyph unicode="&#x2026;" horiz-adv-x="1282" d="M119 76q0 36 26 62t62 26q40 0 66 -25t26 -63q0 -39 -25.5 -65.5t-64.5 -26.5q-37 0 -63.5 27.5t-26.5 64.5zM547 76q0 37 25.5 62.5t60.5 25.5q40 0 67 -25t27 -63q0 -39 -26.5 -65.5t-65.5 -26.5q-36 0 -62 27.5t-26 64.5zM971 76q0 36 26 62t62 26q40 0 67 -25t27 -63 t-27 -65t-67 -27q-35 0 -61.5 27.5t-26.5 64.5z" />
<glyph unicode="&#x202f;" horiz-adv-x="318" />
<glyph unicode="&#x2039;" horiz-adv-x="614" d="M119 438l248 310q21 24 51 24h76q17 0 21.5 -9t-5.5 -20l-260 -321q-8 -14 -7.5 -18t7.5 -15l256 -317q10 -14 5.5 -24.5t-17.5 -10.5h-76q-31 0 -53 31l-244 303q-26 37 -2 67z" />
<glyph unicode="&#x203a;" horiz-adv-x="614" d="M106 763q4 9 21 9h78q20 0 29 -5.5t20 -18.5l248 -310q27 -30 -2 -67l-244 -303q-22 -31 -53 -31h-76q-13 0 -17.5 10.5t5.5 24.5l256 317q8 12 8.5 15t-8.5 18l-258 321q-11 11 -7 20z" />
<glyph unicode="&#x205f;" horiz-adv-x="398" />
<glyph unicode="&#x20ac;" d="M86 514v59q0 15 18 15h564q16 0 16 -17v-57q0 -18 -18 -18h-336q-17 0 -17 -11v-163q0 -98 63 -162t161 -64q61 0 114 28t88 75q19 26 43 10l64 -45q12 -12 2 -29q-109 -147 -311 -147q-162 0 -256.5 87.5t-94.5 243.5v162q0 17 -12 17h-72q-16 0 -16 16zM86 713v57 q0 18 18 18h68q14 0 14 21v135q0 153 97 244.5t256 91.5q98 0 179.5 -38.5t129.5 -113.5q12 -18 -6 -30l-66 -41q-19 -13 -35 8q-69 104 -202 104q-101 0 -163.5 -62.5t-62.5 -162.5v-143q0 -15 17 -15h338q16 0 16 -16v-57q0 -17 -16 -17h-566q-16 0 -16 17z" />
<glyph unicode="&#x2122;" horiz-adv-x="1210" d="M47 1206v45q0 13 10 13h400q12 0 12 -13v-45q0 -12 -10 -12h-154q-8 0 -8 -8v-547q0 -10 -12 -10h-54q-14 0 -14 10v547q0 8 -8 8h-152q-10 0 -10 12zM537 639v610q0 15 14 15h41q14 0 19 -10q0 -1 1 -3l2 -4l209 -481q4 0 6 2l205 479q10 17 25 17h43q12 0 12 -13v-612 q0 -10 -12 -10h-47q-11 0 -11 8v430l-4 4l-2 -2q-173 -389 -176 -397q-11 -15 -22 -15h-31q-12 0 -21 15l-174 397v2l-4 -4v-428q0 -10 -12 -10h-51q-10 0 -10 10z" />
<glyph unicode="&#x25fc;" horiz-adv-x="890" d="M0 0v891h891v-891h-891z" />
</font>
</defs>
</svg>
