<?xml version="1.0" standalone="no"?>
<!DOCTYPE svg PUBLIC "-//W3C//DTD SVG 1.1//EN" "http://www.w3.org/Graphics/SVG/1.1/DTD/svg11.dtd" >
<svg xmlns="http://www.w3.org/2000/svg">
<metadata></metadata>
<defs>
<font id="00279regular" horiz-adv-x="1255" >
<font-face units-per-em="2048" ascent="1638" descent="-410" />
<missing-glyph horiz-adv-x="629" />
<glyph horiz-adv-x="2048" />
<glyph horiz-adv-x="2048" />
<glyph unicode="&#xd;" horiz-adv-x="629" />
<glyph unicode=" "  horiz-adv-x="629" />
<glyph unicode="&#x09;" horiz-adv-x="629" />
<glyph unicode="&#xa0;" horiz-adv-x="629" />
<glyph unicode="!" horiz-adv-x="688" d="M172 133q0 72 50 121t122 49t121 -49t49 -121q0 -73 -49 -122.5t-121 -49.5q-70 0 -121 51t-51 121zM201 457v1040h284v-1040h-284z" />
<glyph unicode="&#x22;" horiz-adv-x="678" d="M80 879v559h192v-559h-192zM406 879v559h192v-559h-192z" />
<glyph unicode="#" horiz-adv-x="1575" d="M45 406l76 200h282l86 242h-299l74 201h297l148 415h221l-146 -415h242l148 415h221l-148 -415h283l-74 -201h-280l-84 -242h290l-71 -200h-291l-148 -416h-221l148 416h-244l-149 -416h-220l146 416h-287zM621 604h251l86 244h-249z" />
<glyph unicode="$" d="M111 219l174 187q75 -166 274 -166v389q-236 100 -332 201t-96 241q0 175 147 284q126 93 312 109v115h94v-116q108 0 205 -48q88 -44 158 -133l-185 -168q-61 104 -178 121v-367q412 -164 412 -436q0 -187 -129 -302q-119 -105 -312 -124v-158h-96v156q-150 0 -276 60 q-114 55 -172 155zM436 1075q0 -107 154 -172v332q-154 -33 -154 -160zM655 250q148 38 148 174q0 102 -148 164v-338z" />
<glyph unicode="%" horiz-adv-x="1731" d="M39 1075q0 179 85 286q93 118 267 118q176 0 267 -117q83 -105 83 -287q0 -180 -83 -287q-93 -118 -267 -118q-175 0 -268 117q-84 107 -84 288zM254 1075q0 -262 137 -262t137 262q0 260 -137 260t-137 -260zM360 -39l857 1518h149l-856 -1518h-150zM987 367 q0 179 85 286q93 117 267 117q177 0 269 -116q84 -105 84 -287q0 -180 -85 -288q-93 -118 -268 -118t-268 118q-84 107 -84 288zM1202 365q0 -261 137 -261q140 0 140 263q0 260 -138 260q-139 0 -139 -262z" />
<glyph unicode="&#x26;" horiz-adv-x="1464" d="M96 385q0 244 310 430q-152 150 -152 320q0 160 120 248q107 79 273 79q158 0 261 -74q116 -83 116 -235q0 -180 -268 -362l248 -287q112 107 213 227l161 -172l-105 -115l-118 -120l268 -324h-329l-125 143q-182 -178 -402 -178q-205 0 -333 106q-138 113 -138 314z M367 403q0 -82 62 -140t144 -58q154 0 246 112l-276 332l-31 -22q-145 -103 -145 -224zM498 1137q0 -32 11 -59.5t34 -55.5l71 -88l52 31q114 68 114 174q0 62 -37.5 101.5t-99.5 39.5q-64 0 -104.5 -39.5t-40.5 -103.5z" />
<glyph unicode="'" horiz-adv-x="352" d="M80 879v559h192v-559h-192z" />
<glyph unicode="(" horiz-adv-x="688" d="M164 514q0 577 237 1002l226 -50q-211 -422 -211 -938q0 -556 211 -944l-226 -53q-237 446 -237 983z" />
<glyph unicode=")" horiz-adv-x="688" d="M61 -416q211 392 211 944q0 508 -211 938l226 50q237 -422 237 -1002q0 -535 -237 -983z" />
<glyph unicode="*" horiz-adv-x="973" d="M129 971l233 121l-229 120l82 138l209 -150l-14 264h161l-14 -260l205 146l80 -138l-224 -122l220 -115l-76 -139l-207 147l16 -250h-159l16 246l-213 -145z" />
<glyph unicode="+" horiz-adv-x="1706" d="M254 512v199h498v510h202v-510h498v-199h-498v-512h-202v512h-498z" />
<glyph unicode="," horiz-adv-x="629" d="M63 -332l193 627h307l-309 -627h-191z" />
<glyph unicode="-" horiz-adv-x="854" d="M147 362v252h560v-252h-560z" />
<glyph unicode="." horiz-adv-x="629" d="M141 141q0 73 50 123.5t122 50.5q71 0 121.5 -51t50.5 -123q0 -71 -50 -120.5t-122 -49.5q-71 0 -121.5 49.5t-50.5 120.5z" />
<glyph unicode="/" horiz-adv-x="930" d="M0 -190l717 1687h213l-717 -1687h-213z" />
<glyph unicode="0" d="M88 721q0 311 113 510q141 248 428 248q289 0 429 -247q111 -197 111 -511q0 -358 -143 -559t-397 -201q-289 0 -429 248q-112 199 -112 512zM391 719q0 -488 236 -488q237 0 237 492q0 487 -235 487q-238 0 -238 -491z" />
<glyph unicode="1" d="M219 1204l123 246h465v-1450h-295v1204h-293z" />
<glyph unicode="2" d="M80 0l520 682q110 144 150 222q43 83 43 143q0 87 -52.5 135.5t-140.5 48.5q-91 0 -141 -70q-43 -62 -43 -157v-7h-295v25q0 223 129 342q125 115 350 115q217 0 346 -93q148 -105 148 -313q0 -236 -338 -638l-21 -25l-135 -168h494v-242h-1014z" />
<glyph unicode="3" d="M106 375v12h289v-4q0 -85 67 -134q60 -44 148 -44q232 0 232 211q0 106 -63 162q-70 61 -183 55l-39 -2v256l35 -2q102 -6 163 46q54 46 54 138q0 80 -49.5 127t-130.5 47q-172 0 -193 -151h-278q0 177 134 286q125 101 347 101q198 0 323 -93q140 -105 140 -296 q0 -122 -63 -208q-66 -90 -183 -112q133 -28 209 -135q72 -101 72 -240q0 -218 -163 -333q-142 -101 -370 -101q-207 0 -345 101q-153 113 -153 313z" />
<glyph unicode="4" d="M47 281v135l705 1063h268v-990h154v-208h-154v-281h-268v281h-705zM348 489h408v504q0 16 2 112q1 29 8 70q-35 -100 -102 -202z" />
<glyph unicode="5" d="M92 80l64 237q175 -118 338 -118q136 0 219 64q92 70 92 202q0 135 -91 204q-82 62 -222 62q-157 0 -273 -86l-69 43l182 762h755v-246h-565l-71 -297q79 23 143 29q21 2 49 2q208 0 338.5 -129t130.5 -336q0 -252 -177 -389q-161 -123 -421 -123q-241 0 -422 119z" />
<glyph unicode="6" d="M119 465q0 260 243 631l232 354h350l-418 -576q80 41 189 41q192 0 311 -131q115 -127 115 -321q0 -232 -150 -369q-145 -133 -379 -133q-225 0 -359 139t-134 365zM403 451q0 -106 60 -169t166 -63q101 0 161 65t60 167q0 110 -60 172.5t-169 62.5q-98 0 -158 -67.5 t-60 -167.5z" />
<glyph unicode="7" d="M127 1204v246h1044v-92l-657 -1358h-313l585 1204h-659z" />
<glyph unicode="8" d="M102 387q0 139 69 241q72 106 202 146q-217 92 -217 316q0 187 144 294q129 95 323 95q200 0 327 -98q140 -108 140 -302q0 -221 -218 -305q127 -38 200 -144q69 -101 69 -237q0 -217 -155 -331q-138 -101 -363 -101q-222 0 -362 100q-159 113 -159 326zM397 422 q0 -101 62 -158t164 -57q103 0 163 56.5t60 158.5q0 103 -59.5 160t-163.5 57q-103 0 -164.5 -57.5t-61.5 -159.5zM440 1073q0 -81 51 -126q48 -44 130 -44q184 0 184 168q0 80 -49.5 125t-130.5 45q-82 0 -132 -42q-53 -46 -53 -126z" />
<glyph unicode="9" d="M121 977q0 231 149 368q144 134 377 134q226 0 361 -137t135 -363q0 -265 -246 -633l-231 -346h-351l418 567q-46 -23 -87 -33t-101 -10q-187 0 -305.5 126.5t-118.5 326.5zM410 991q0 -109 60 -172t169 -63q100 0 160 69q57 65 57 166q0 105 -59.5 168.5t-163.5 63.5 q-102 0 -162.5 -65t-60.5 -167z" />
<glyph unicode=":" horiz-adv-x="688" d="M172 143q0 72 50 121t122 49t121 -49t49 -121t-49 -122t-121 -50q-70 0 -121 51t-51 121zM172 797q0 72 50 121t122 49t121 -49t49 -121q0 -73 -49 -122.5t-121 -49.5q-71 0 -121.5 50.5t-50.5 121.5z" />
<glyph unicode=";" horiz-adv-x="688" d="M80 -332l190 627h310l-310 -627h-190zM264 797q0 71 50.5 120.5t121.5 49.5q73 0 122.5 -49t49.5 -121t-50 -122t-122 -50q-71 0 -121.5 50.5t-50.5 121.5z" />
<glyph unicode="&#x3c;" horiz-adv-x="1706" d="M264 512v199l1178 483v-219l-893 -365l893 -364v-219z" />
<glyph unicode="=" horiz-adv-x="1706" d="M254 297v199h1198v-199h-1198zM254 727v199h1198v-199h-1198z" />
<glyph unicode="&#x3e;" horiz-adv-x="1706" d="M264 27v219l895 364l-895 365v219l1178 -483v-199z" />
<glyph unicode="?" horiz-adv-x="1186" d="M129 1055v32q0 194 136 306q126 104 325 104q202 0 320 -114.5t118 -315.5q0 -312 -321 -381v-258h-275v428h88q102 0 158.5 59t56.5 162q0 197 -162 197q-77 0 -120 -48q-49 -54 -43 -141l2 -30h-283zM397 133q0 71 50.5 120.5t121.5 49.5q73 0 122.5 -49t49.5 -121 t-50 -122t-122 -50q-70 0 -121 51t-51 121z" />
<glyph unicode="@" horiz-adv-x="2048" d="M90 520q0 343 207 594q303 367 819 367q350 0 576 -174q268 -206 268 -543t-254 -543q-142 -115 -324 -115q-215 0 -215 166q-105 -163 -297 -163q-323 0 -323 340q0 224 127 387q138 176 356 176q159 0 236 -131l53 98h178l-154 -639q0 -33 24.5 -51.5t70.5 -18.5 q40 0 81.5 20.5t79.5 55.5q175 164 175 422q0 260 -208 412q-187 137 -456 137q-284 0 -483 -135q-353 -239 -353 -660q0 -322 223 -504q208 -170 537 -170q336 0 604 191l82 -117q-311 -231 -682 -231q-390 0 -639 192q-309 238 -309 637zM760 444q0 -188 158 -188 q90 0 159 71q63 63 86 156l54 217q-24 166 -175 166q-134 0 -215 -151q-67 -125 -67 -271z" />
<glyph unicode="A" horiz-adv-x="1460" d="M-10 0l557 1464h358l565 -1464h-356l-119 311h-567l-102 -311h-336zM516 557h406l-164 473l-18 72l-23 125q-15 -86 -25 -128l-18 -75z" />
<glyph unicode="B" horiz-adv-x="1223" d="M164 0v1464h274q205 0 310 -17t172 -54q178 -99 178 -310q0 -259 -307 -313q358 -52 358 -352q0 -231 -195 -336q-83 -45 -190 -63q-111 -19 -361 -19h-239zM477 244h123q240 0 240 202q0 191 -236 191h-127v-393zM477 879h70q123 0 179 27q81 39 81 147q0 105 -80 143 q-55 27 -174 27h-76v-344z" />
<glyph unicode="C" horiz-adv-x="1470" d="M100 731q0 343 233 558q226 210 572 210q249 0 449 -102l-11 -314q-138 123 -297 154q-52 10 -112 10q-235 0 -373.5 -140.5t-138.5 -375.5q0 -228 126 -363q129 -139 355 -139q254 0 438 170l-2 -321q-196 -117 -440 -117q-345 0 -569 212q-230 216 -230 558z" />
<glyph unicode="D" horiz-adv-x="1542" d="M164 0v1464h399q235 0 371 -32.5t240 -110.5q270 -201 270 -592q0 -393 -275 -594q-99 -72 -221.5 -103.5t-359.5 -31.5h-424zM477 264h174q245 0 358 111.5t113 355.5t-113.5 355.5t-357.5 111.5h-174v-934z" />
<glyph unicode="E" horiz-adv-x="1169" d="M164 0v1464h862v-264h-549v-301h549v-266h-549v-367h549v-266h-862z" />
<glyph unicode="F" horiz-adv-x="1104" d="M164 0v1464h862v-264h-549v-301h549v-266h-549v-633h-313z" />
<glyph unicode="G" horiz-adv-x="1645" d="M104 731q0 336 223 551t560 215q357 0 594 -299l-211 -156q-147 185 -367 185t-350 -139q-127 -135 -127 -357q0 -218 126 -354q129 -141 345 -141q137 0 233 61q113 71 113 201v16h-352v258h667l2 -28l1 -46v-22q0 -306 -188 -511q-188 -204 -486 -204 q-340 0 -561.5 215.5t-221.5 554.5z" />
<glyph unicode="H" horiz-adv-x="1587" d="M164 0v1464h313v-587h635v587h313v-1464h-313v612h-635v-612h-313z" />
<glyph unicode="I" horiz-adv-x="653" d="M170 0v1464h313v-1464h-313z" />
<glyph unicode="J" horiz-adv-x="909" d="M0 264l227 108q16 -139 111 -139q77 0 98 88q8 34 8 150v993h314v-964q0 -162 -13 -242q-30 -184 -171 -254q-86 -43 -209 -43q-310 0 -365 303z" />
<glyph unicode="K" horiz-adv-x="1327" d="M164 0v1464h313v-663l488 663h362l-524 -667l543 -797h-377l-492 766v-766h-313z" />
<glyph unicode="L" horiz-adv-x="1010" d="M164 0v1464h313v-1198h500v-266h-813z" />
<glyph unicode="M" horiz-adv-x="1819" d="M37 0l223 1464h328l282 -862q8 -24 19 -79l10 -55q5 -26 10 -64q14 131 37 200l287 860h323l224 -1464h-297l-127 1158q0 15 2 21q-14 -85 -29 -153q-11 -50 -24 -90l-310 -936h-176l-323 1008l-37 172v-43q0 -101 -18 -250l-1 -4l-106 -883h-297z" />
<glyph unicode="N" horiz-adv-x="1708" d="M164 0v1464h325l648 -852q53 -69 131 -256q-11 77 -16 129q0 27 -2.5 80t-2.5 80v819h299v-1464h-307l-666 868q-52 68 -131 258q13 -73 16 -128q5 -80 5 -162v-836h-299z" />
<glyph unicode="O" horiz-adv-x="1763" d="M100 729q0 324 226 542q234 226 557 226q232 0 433 -130t289 -342q58 -140 58 -296q0 -325 -228 -543q-236 -225 -552 -225q-279 0 -498 176q-285 229 -285 592zM422 729q0 -209 125 -347q129 -142 336 -142q203 0 333 144q125 139 125 345q0 204 -126 345 q-131 147 -332 147q-203 0 -334 -146q-127 -141 -127 -346z" />
<glyph unicode="P" horiz-adv-x="1139" d="M164 0v1464h360q563 0 563 -450q0 -225 -152 -345q-139 -110 -370 -110h-86v-559h-315zM479 803h45q124 0 182 49q62 53 62 174q0 207 -244 207h-45v-430z" />
<glyph unicode="Q" horiz-adv-x="1763" d="M98 731q0 235 133 428.5t351 280.5q145 57 301 57q322 0 552 -222.5t230 -543.5q0 -349 -279 -586l269 -315h-312l-159 188q-212 -53 -307 -53q-319 0 -549 223t-230 543zM422 729q0 -210 129 -349q130 -141 299 -141q13 0 27 1l47 3q23 1 73 11l-211 242h306l108 -127 q141 145 141 360q0 204 -126 345q-131 147 -332 147q-203 0 -334 -146q-127 -141 -127 -346z" />
<glyph unicode="R" horiz-adv-x="1241" d="M164 0v1464h448q533 0 533 -415q0 -150 -89 -256.5t-237 -126.5l404 -666h-361l-385 684v-684h-313zM477 840h47q152 0 211 23q101 39 101 163q0 127 -99 171q-64 28 -213 28h-47v-385z" />
<glyph unicode="S" horiz-adv-x="1147" d="M70 186l174 197q33 -81 107 -127.5t163 -46.5q100 0 165 45q73 51 73 147q0 101 -213 207l-109 54q-185 92 -265 195q-75 97 -75 228q0 199 164 313q144 101 352 101q130 0 228.5 -47t171.5 -145l-185 -177q-66 127 -219 127q-86 0 -142 -40q-65 -45 -65 -127 q0 -114 226 -212l69 -30q180 -78 275 -191q90 -108 90 -245q0 -217 -154 -339q-141 -112 -364 -112q-344 0 -467 225z" />
<glyph unicode="T" horiz-adv-x="1110" d="M39 1198v266h1032v-266h-360v-1198h-314v1198h-358z" />
<glyph unicode="U" horiz-adv-x="1583" d="M158 553v911h311v-862q0 -364 319 -364q324 0 324 364v862h311v-911q0 -592 -630 -592q-635 0 -635 592z" />
<glyph unicode="V" horiz-adv-x="1370" d="M-6 1464h346l310 -1017l36 -173q21 168 59 287l289 903h342l-545 -1464h-296z" />
<glyph unicode="W" horiz-adv-x="2058" d="M37 1464h313l193 -813q17 -73 36 -248q5 -47 5 -81q9 68 70 322l5 21l215 799h308l217 -794q41 -150 73 -358q0 82 13 179q10 75 35 179l190 794h309l-383 -1464h-301l-262 934q-19 69 -30 129q-15 84 -15 135q0 -46 -16 -151q-7 -43 -27 -113l-264 -934h-301z" />
<glyph unicode="X" horiz-adv-x="1229" d="M-6 0l452 766l-440 698h334l209 -383q44 -81 63 -139q11 32 29 71q10 20 39 74l207 377h332l-437 -698l451 -766h-338l-217 406q-23 44 -36 77q-4 12 -10.5 31t-17.5 53q-32 -98 -67 -164l-217 -403h-336z" />
<glyph unicode="Y" horiz-adv-x="1241" d="M-31 1464h367l217 -401q20 -37 33 -76l35 -106q26 101 71 184l215 399h365l-494 -796v-668h-313v668z" />
<glyph unicode="Z" horiz-adv-x="1298" d="M6 0l758 1214h-680v250h1182l-758 -1212h727v-252h-1229z" />
<glyph unicode="[" horiz-adv-x="688" d="M182 -451v1948h451v-231h-199v-1483h199v-234h-451z" />
<glyph unicode="\" horiz-adv-x="930" d="M0 1497h213l717 -1687h-213z" />
<glyph unicode="]" horiz-adv-x="688" d="M55 -217h199v1483h-199v231h451v-1948h-451v234z" />
<glyph unicode="^" horiz-adv-x="2048" d="M416 899l481 561h252l481 -561h-235l-371 371l-373 -371h-235z" />
<glyph unicode="_" horiz-adv-x="1024" d="M0 -279h1024v-204h-1024v204z" />
<glyph unicode="`" horiz-adv-x="1024" d="M219 1495h258l197 -369h-142z" />
<glyph unicode="a" horiz-adv-x="1251" d="M78 489q0 231 104 370q117 155 340 155q219 0 330 -195v162h270v-981h-276l4 141q-112 -180 -338 -180q-211 0 -329 163q-105 145 -105 365zM367 492q0 -126 59 -200q65 -81 188 -81q124 0 189 80q59 74 59 201q0 124 -60 201q-66 85 -186 85q-123 0 -189 -83 q-60 -76 -60 -203z" />
<glyph unicode="b" horiz-adv-x="1262" d="M139 0v1550h273v-570q0 -42 -4 -81l-9 -88q133 203 340 203q224 0 341 -155q104 -138 104 -370q0 -220 -104 -365q-117 -163 -328 -163q-226 0 -338 180l2 -141h-277zM399 492q0 -126 60 -200q65 -81 188 -81t188 81q60 74 60 200t-61 203q-66 83 -189 83 q-120 0 -186 -85q-60 -77 -60 -201z" />
<glyph unicode="c" horiz-adv-x="938" d="M76 492q0 232 147.5 377t380.5 145q156 0 258 -62l-2 -286q-96 96 -229 96q-122 0 -193 -73t-71 -195q0 -124 74 -197.5t198 -73.5q135 0 221 103l2 -297q-113 -68 -262 -68q-234 0 -379 148t-145 383z" />
<glyph unicode="d" horiz-adv-x="1262" d="M78 489q0 232 104 371q116 156 340 156q203 0 340 -204l-8 79l-2 100v559h270v-1550h-276l4 141q-112 -180 -338 -180q-211 0 -329 163q-105 145 -105 365zM367 494q0 -126 59 -201q65 -82 188 -82q124 0 189 80q59 74 59 201q0 124 -60 201q-66 85 -186 85 q-123 0 -189 -82q-60 -76 -60 -202z" />
<glyph unicode="e" horiz-adv-x="1174" d="M78 485q0 231 144 380t374 149q234 0 370 -139q136 -140 136 -357v-24l-1 -29l-4 -45h-737q34 -211 240 -211q153 0 229 121l230 -115q-156 -254 -465 -254q-238 0 -377 142.5t-139 381.5zM369 592h446q-24 188 -219 188t-227 -188z" />
<glyph unicode="f" horiz-adv-x="678" d="M47 758v223h127v221q0 201 96 287q91 82 295 82q28 0 53 -5q41 -6 80 -16v-227q-50 27 -100 27q-139 0 -139 -176v-193h182v-223h-182v-758h-285v758h-127z" />
<glyph unicode="g" horiz-adv-x="1262" d="M78 494q0 229 105 367q117 153 339 153q104 0 189 -49.5t141 -145.5v162h268v-965q0 -123 -9 -174q-16 -92 -73 -153q-126 -135 -407 -135q-357 0 -461 171q-37 61 -37 136h313q12 -111 185 -111q123 0 174 71q45 61 45 189v140q-113 -179 -328 -179q-216 0 -336 158 q-108 142 -108 365zM367 492q0 -126 60 -198q64 -79 187 -79q122 0 188 79q60 73 60 198q0 123 -61 198q-66 82 -185 82q-122 0 -188 -80q-61 -75 -61 -200z" />
<glyph unicode="h" horiz-adv-x="1266" d="M139 0v1550h279l-3 -643l-9 -88q166 195 374 195q228 0 314 -156q41 -74 41 -254v-604h-285v485q0 146 -24 203q-40 94 -162 94q-120 0 -191 -94q-26 -34 -38 -80q-11 -41 -11 -137v-471h-285z" />
<glyph unicode="i" horiz-adv-x="584" d="M125 1384q0 68 49 117t117 49q70 0 119 -48.5t49 -117.5t-49 -118t-119 -49q-67 0 -116.5 49.5t-49.5 117.5zM150 0v981h284v-981h-284z" />
<glyph unicode="j" horiz-adv-x="584" d="M125 1384q0 68 49 117t117 49q70 0 119 -48.5t49 -117.5t-49 -118t-119 -49q-67 0 -116.5 49.5t-49.5 117.5zM150 -446v1427h284v-1427h-284z" />
<glyph unicode="k" horiz-adv-x="1157" d="M139 0v1550h285v-1003l364 434h342l-395 -434l434 -547h-352l-393 520v-520h-285z" />
<glyph unicode="l" horiz-adv-x="584" d="M150 0v1550h284v-1550h-284z" />
<glyph unicode="m" horiz-adv-x="1862" d="M135 0v981h285v-154q134 187 330 187q242 0 307 -201q138 201 344 201q208 0 289 -154q39 -74 39 -256v-604h-285v485q0 143 -18 197q-34 100 -146 100q-129 0 -177 -119q-32 -79 -32 -231v-432h-285v485q0 136 -16 190q-32 105 -135 105q-131 0 -181 -116 q-34 -79 -34 -232v-432h-285z" />
<glyph unicode="n" horiz-adv-x="1266" d="M139 0v981h279v-154q150 187 362 187q229 0 314 -156q41 -75 41 -254v-604h-285v485q0 146 -24 203q-40 94 -162 94q-120 0 -191 -94q-26 -34 -38 -80q-11 -41 -11 -137v-471h-285z" />
<glyph unicode="o" horiz-adv-x="1247" d="M76 487q0 230 160 380q157 147 389 147q235 0 389 -145q157 -149 157 -382q0 -232 -156.5 -379t-389.5 -147q-234 0 -390 145q-159 149 -159 381zM367 489q0 -120 68.5 -192t187.5 -72q118 0 188 73t70 191q0 120 -69 191.5t-189 71.5q-119 0 -187.5 -71.5t-68.5 -191.5z " />
<glyph unicode="p" horiz-adv-x="1262" d="M139 -446v1427h273v-162q81 143 225 182q48 13 102 13q223 0 340 -155q105 -139 105 -370q0 -220 -104 -365q-117 -163 -328 -163q-226 0 -338 180l7 -81l3 -99v-407h-285zM399 492q0 -126 60 -200q65 -81 188 -81t188 81q60 74 60 200t-61 203q-66 83 -189 83 q-120 0 -186 -85q-60 -77 -60 -201z" />
<glyph unicode="q" horiz-adv-x="1262" d="M78 489q0 231 104 370q117 155 340 155q219 0 330 -195v162h270v-1427h-284l3 499l9 88q-112 -180 -338 -180q-211 0 -329 163q-105 145 -105 365zM367 492q0 -126 59 -200q65 -81 188 -81q124 0 189 80q59 74 59 201q0 124 -60 201q-66 85 -186 85q-123 0 -189 -83 q-60 -76 -60 -203z" />
<glyph unicode="r" horiz-adv-x="834" d="M139 0v981h281l-6 -252q63 213 213 267q50 18 110 18q29 0 89 -10l18 -3l-43 -306q-71 26 -133 26q-138 0 -195 -78q-49 -67 -49 -211v-432h-285z" />
<glyph unicode="s" horiz-adv-x="934" d="M43 172l219 113q23 -123 178 -123q150 0 150 96q0 68 -142 119l-70 25q-170 61 -240 131q-66 66 -66 163q0 159 131 246q113 76 280 76q276 0 369 -203l-209 -104q-33 112 -164 112q-141 0 -141 -94q0 -75 194 -136l35 -11q297 -93 297 -303q0 -162 -134 -247 q-112 -71 -284 -71q-134 0 -237 46q-124 55 -166 165z" />
<glyph unicode="t" horiz-adv-x="633" d="M37 758v223h137v326h285v-326h137v-223h-137v-758h-285v758h-137z" />
<glyph unicode="u" horiz-adv-x="1268" d="M135 465v516h283v-516q0 -123 45 -179q51 -63 170 -63q118 0 169 63q46 57 46 179v516h285v-516q0 -257 -120 -380.5t-376 -123.5q-259 0 -380.5 122.5t-121.5 381.5z" />
<glyph unicode="v" horiz-adv-x="1053" d="M-18 981h329l166 -510q19 -58 32 -114q4 -20 11 -66l6 -39q20 134 52 229l167 500h324l-403 -981h-285z" />
<glyph unicode="w" horiz-adv-x="1673" d="M-12 981h311l183 -607l22 -109q13 108 45 227l131 489h311l152 -561l24 -156l22 97q1 6 34 114l153 506h310l-340 -981h-304l-160 553q-35 121 -48 188q-14 -78 -25 -122l-10 -42q-8 -36 -17 -65l-151 -512h-303z" />
<glyph unicode="x" horiz-adv-x="1020" d="M-18 0l348 498l-330 483h356l97 -182q8 -15 17 -35q25 -56 42 -115q22 76 66 152l104 180h338l-336 -477l354 -504h-354l-115 201l-36 75q-10 22 -25 76q-9 -37 -26 -76q-13 -29 -42 -77l-121 -199h-337z" />
<glyph unicode="y" horiz-adv-x="1053" d="M-14 981h329l170 -449q18 -47 28 -97q8 -39 17 -121q14 89 62 229l149 438h326l-584 -1427h-315l213 522z" />
<glyph unicode="z" horiz-adv-x="985" d="M0 0l520 758h-457v223h889l-514 -758h502v-223h-940z" />
<glyph unicode="{" horiz-adv-x="1024" d="M158 426v209l41 -2q115 -6 171 58q52 59 52 196v250q0 145 23 201q24 60 81 92q38 22 113 36q79 15 168 13l76 -2v-209l-47 2q-95 4 -133.5 -36.5t-38.5 -164.5v-240q0 -137 -38 -198q-44 -70 -169 -101q125 -29 169 -99q38 -61 38 -198v-241q0 -123 35 -161 q39 -42 137 -38l47 2v-209l-76 -2q-85 -2 -166 12q-156 28 -196 128q-23 59 -23 200v252q0 135 -51 194q-57 64 -172 58z" />
<glyph unicode="|" horiz-adv-x="1024" d="M410 -483v2048h206v-2048h-206z" />
<glyph unicode="}" horiz-adv-x="1024" d="M143 -205l47 -2q96 -4 136 38q36 39 36 161v239q0 137 38 198q44 72 169 101q-125 29 -169 101q-38 61 -38 198v242q0 121 -35 160q-40 43 -137 39l-47 -2v209h68q201 0 289 -50q69 -39 91 -127q13 -52 13 -163v-252q0 -136 51 -194q56 -64 172 -58l41 2v-209h-37 q-128 0 -180 -62q-47 -56 -47 -188v-252q0 -113 -12 -163q-22 -90 -92 -128q-41 -22 -112 -36q-80 -15 -169 -13l-76 2v209z" />
<glyph unicode="~" horiz-adv-x="1706" d="M178 418v221q210 143 387 143q59 0 291 -58l4 -1l55 -19q159 -55 240 -55q83 0 175 37q89 36 200 117v-221q-204 -138 -379 -138q-46 0 -90 8q-52 8 -94 23l-71 25q-213 75 -333 75q-83 0 -178.5 -38.5t-206.5 -118.5z" />
<glyph unicode="&#xa2;" d="M174 733q0 205 129 343q124 133 330 165v166h112v-164q110 -12 216 -61l-3 -287q-90 94 -229 94q-121 0 -192.5 -72.5t-71.5 -193.5q0 -124 74 -197t198 -73q134 0 221 100l3 -297q-70 -38 -153 -55q-27 -6 -63 -11v-202h-112v202q-221 39 -340 179t-119 364z" />
<glyph unicode="&#xa3;" d="M59 102q128 164 277 181q22 22 32.5 51t10.5 76q0 48 -14 95.5t-41 84.5h-226v143h162q-106 156 -106 303q0 204 172 330q154 113 366 113q210 0 350 -120q146 -125 146 -304l-277 -37q0 98 -66 161q-59 56 -163 56q-94 0 -157 -50q-68 -54 -68 -145q0 -66 83 -266 l17 -41h367v-143h-315l5 -70q5 -62 -29 -128q-29 -58 -98 -118h17q60 0 176 -45t174 -45q108 0 172 111l154 -164q-109 -174 -291 -174q-93 0 -251.5 56.5t-215.5 56.5q-111 0 -207 -121z" />
<glyph unicode="&#xa5;" d="M-6 1452h332l227 -399q16 -28 40 -85q0 -1 23 -62q13 -34 15 -42q11 43 35 101q18 44 43 88l229 399h330l-262 -420h231v-168h-338l-98 -159h436v-168h-463v-537h-285v537h-475v168h447l-99 159h-348v168h244z" />
<glyph unicode="&#xa8;" horiz-adv-x="1024" d="M195 1309q0 52 39.5 90.5t91.5 38.5q53 0 91 -38t38 -91q0 -56 -36.5 -93.5t-92.5 -37.5t-93.5 37.5t-37.5 93.5zM569 1309q0 52 39.5 90.5t91.5 38.5q54 0 91.5 -37.5t37.5 -91.5q0 -56 -36.5 -93.5t-92.5 -37.5t-93.5 37.5t-37.5 93.5z" />
<glyph unicode="&#xa9;" horiz-adv-x="1706" d="M111 733q0 307 219 529q214 217 522 217q311 0 528 -217t217 -529q0 -308 -217 -521q-226 -222 -528 -222q-297 0 -522 221q-219 215 -219 522zM233 735q0 -255 182.5 -437.5t438.5 -182.5q189 0 345 104q49 33 97 80q179 176 179 436q0 124 -47 238q-73 176 -229 279.5 t-345 103.5q-129 0 -240 -46t-198 -134q-183 -186 -183 -441zM453 729q0 197 101 320q109 131 302 131q151 0 250 -78q106 -83 106 -205h-188q-17 147 -172 147q-105 0 -156 -109q-39 -82 -39 -200q0 -301 203 -301q149 0 170 161l193 1q0 -132 -109 -223q-100 -84 -260 -84 q-193 0 -300 125q-101 118 -101 315z" />
<glyph unicode="&#xab;" horiz-adv-x="1059" d="M63 487l357 455l153 -106l-276 -351l270 -346l-149 -106zM485 487l357 455l153 -106l-278 -351l270 -346l-149 -106z" />
<glyph unicode="&#xad;" horiz-adv-x="854" d="M147 362v252h560v-252h-560z" />
<glyph unicode="&#xae;" horiz-adv-x="1706" d="M111 733q0 204 108 387q101 171 267.5 265t365.5 94q313 0 534 -224q211 -214 211 -522q0 -315 -217 -526q-223 -217 -528 -217q-308 0 -527 223q-214 218 -214 520zM233 735q0 -258 179 -435q188 -187 440 -187q120 0 233 47q243 101 342 331q48 111 48 232 q0 266 -177 447q-182 186 -444 186q-191 0 -339 -99q-48 -32 -93 -77q-189 -189 -189 -445zM545 336v825h323q353 0 353 -237q0 -172 -181 -219l185 -369h-224l-157 338h-99v-338h-200zM745 795h99q170 0 170 116q0 123 -180 123h-89v-239z" />
<glyph unicode="&#xb4;" horiz-adv-x="1024" d="M350 1126l197 369h258l-313 -369h-142z" />
<glyph unicode="&#xb8;" horiz-adv-x="1024" d="M238 -311q109 -28 206 -40q30 -3 52 -3q100 0 100 75q0 68 -121 68h-32q-16 0 -25 -2v213h102v-90h15q235 0 235 -193q0 -198 -266 -198q-78 0 -190 24q-38 8 -76 19v127z" />
<glyph unicode="&#xbb;" horiz-adv-x="1059" d="M63 836l154 106l356 -455l-352 -454l-149 106l270 346zM485 836l154 106l356 -455l-354 -454l-147 106l268 346z" />
<glyph unicode="&#xc2;" horiz-adv-x="1460" d="M-10 0l557 1464h358l565 -1464h-356l-119 311h-567l-102 -311h-336zM416 1603l196 369h238l196 -369h-141l-174 217l-176 -217h-139zM516 557h406l-164 473l-18 72l-23 125q-15 -86 -25 -128l-18 -75z" />
<glyph unicode="&#xc7;" horiz-adv-x="1470" d="M100 731q0 343 233 558q226 210 572 210q249 0 449 -102l-11 -314q-138 123 -297 154q-52 10 -112 10q-235 0 -373.5 -140.5t-138.5 -375.5q0 -228 126 -363q129 -139 355 -139q254 0 438 170l-2 -321q-196 -117 -440 -117v-51h15q235 0 235 -193q0 -198 -266 -198 q-78 0 -190 24q-38 8 -76 19v127q109 -28 206 -40q30 -3 52 -3q100 0 100 75q0 68 -121 68h-32q-16 0 -25 -2v179q-282 27 -473 212q-224 216 -224 553z" />
<glyph unicode="&#xce;" horiz-adv-x="653" d="M13 1603l196 369h238l196 -369h-141l-174 217l-176 -217h-139zM170 0v1464h313v-1464h-313z" />
<glyph unicode="&#xd6;" horiz-adv-x="1763" d="M100 729q0 324 226 542q234 226 557 226q232 0 433 -130t289 -342q58 -140 58 -296q0 -325 -228 -543q-236 -225 -552 -225q-279 0 -498 176q-285 229 -285 592zM422 729q0 -209 125 -347q129 -142 336 -142q203 0 333 144q125 139 125 345q0 204 -126 345 q-131 147 -332 147q-203 0 -334 -146q-127 -141 -127 -346zM566 1786q0 52 39.5 90.5t91.5 38.5q53 0 91 -38t38 -91q0 -56 -36.5 -93.5t-92.5 -37.5t-93.5 37.5t-37.5 93.5zM940 1786q0 52 39.5 90.5t91.5 38.5q54 0 91.5 -37.5t37.5 -91.5q0 -56 -36.5 -93.5t-92.5 -37.5 t-93.5 37.5t-37.5 93.5z" />
<glyph unicode="&#xdb;" horiz-adv-x="1583" d="M158 553v911h311v-862q0 -364 319 -364q324 0 324 364v862h311v-911q0 -592 -630 -592q-635 0 -635 592zM478 1603l196 369h238l196 -369h-141l-174 217l-176 -217h-139z" />
<glyph unicode="&#xdc;" horiz-adv-x="1583" d="M158 553v911h311v-862q0 -364 319 -364q324 0 324 364v862h311v-911q0 -592 -630 -592q-635 0 -635 592zM476 1786q0 52 39.5 90.5t91.5 38.5q53 0 91 -38t38 -91q0 -56 -36.5 -93.5t-92.5 -37.5t-93.5 37.5t-37.5 93.5zM850 1786q0 52 39.5 90.5t91.5 38.5 q54 0 91.5 -37.5t37.5 -91.5q0 -56 -36.5 -93.5t-92.5 -37.5t-93.5 37.5t-37.5 93.5z" />
<glyph unicode="&#xe2;" horiz-adv-x="1251" d="M78 489q0 231 104 370q117 155 340 155q219 0 330 -195v162h270v-981h-276l4 141q-112 -180 -338 -180q-211 0 -329 163q-105 145 -105 365zM330 1126l196 369h238l196 -369h-141l-174 217l-176 -217h-139zM367 492q0 -126 59 -200q65 -81 188 -81q124 0 189 80 q59 74 59 201q0 124 -60 201q-66 85 -186 85q-123 0 -189 -83q-60 -76 -60 -203z" />
<glyph unicode="&#xe7;" horiz-adv-x="938" d="M76 492q0 232 147.5 377t380.5 145q156 0 258 -62l-2 -286q-96 96 -229 96q-122 0 -193 -73t-71 -195q0 -124 74 -197.5t198 -73.5q135 0 221 103l2 -297q-113 -68 -262 -68h-21v-51h15q235 0 235 -193q0 -198 -266 -198q-78 0 -190 24q-38 8 -76 19v127q109 -28 206 -40 q30 -3 52 -3q100 0 100 75q0 68 -121 68h-32q-16 0 -25 -2v186q-150 29 -255 135q-146 147 -146 384z" />
<glyph unicode="&#xee;" horiz-adv-x="584" d="M-22 1126l196 369h238l196 -369h-141l-174 217l-176 -217h-139zM150 0v981h284v-981h-284z" />
<glyph unicode="&#xf6;" horiz-adv-x="1247" d="M76 487q0 230 160 380q157 147 389 147q235 0 389 -145q157 -149 157 -382q0 -232 -156.5 -379t-389.5 -147q-234 0 -390 145q-159 149 -159 381zM308 1309q0 52 39.5 90.5t91.5 38.5q53 0 91 -38t38 -91q0 -56 -36.5 -93.5t-92.5 -37.5t-93.5 37.5t-37.5 93.5zM367 489 q0 -120 68.5 -192t187.5 -72q118 0 188 73t70 191q0 120 -69 191.5t-189 71.5q-119 0 -187.5 -71.5t-68.5 -191.5zM682 1309q0 52 39.5 90.5t91.5 38.5q54 0 91.5 -37.5t37.5 -91.5q0 -56 -36.5 -93.5t-92.5 -37.5t-93.5 37.5t-37.5 93.5z" />
<glyph unicode="&#xfb;" horiz-adv-x="1268" d="M135 465v516h283v-516q0 -123 45 -179q51 -63 170 -63q118 0 169 63q46 57 46 179v516h285v-516q0 -257 -120 -380.5t-376 -123.5q-259 0 -380.5 122.5t-121.5 381.5zM320 1126l196 369h238l196 -369h-141l-174 217l-176 -217h-139z" />
<glyph unicode="&#xfc;" horiz-adv-x="1268" d="M135 465v516h283v-516q0 -123 45 -179q51 -63 170 -63q118 0 169 63q46 57 46 179v516h285v-516q0 -257 -120 -380.5t-376 -123.5q-259 0 -380.5 122.5t-121.5 381.5zM318 1309q0 52 39.5 90.5t91.5 38.5q53 0 91 -38t38 -91q0 -56 -36.5 -93.5t-92.5 -37.5t-93.5 37.5 t-37.5 93.5zM692 1309q0 52 39.5 90.5t91.5 38.5q54 0 91.5 -37.5t37.5 -91.5q0 -56 -36.5 -93.5t-92.5 -37.5t-93.5 37.5t-37.5 93.5z" />
<glyph unicode="&#x11e;" horiz-adv-x="1645" d="M104 731q0 336 223 551t560 215q357 0 594 -299l-211 -156q-147 185 -367 185t-350 -139q-127 -135 -127 -357q0 -218 126 -354q129 -141 345 -141q137 0 233 61q113 71 113 201v16h-352v258h667l2 -28l1 -46q7 -321 -188 -533q-188 -204 -486 -204q-340 0 -561.5 215.5 t-221.5 554.5zM514 1939h123q0 -72 51 -113q44 -36 135 -36q169 0 184 149h123q0 -146 -86 -231q-73 -72 -221 -72t-224 74q-85 83 -85 229z" />
<glyph unicode="&#x11f;" horiz-adv-x="1262" d="M78 494q0 229 105 367q117 153 339 153q104 0 189 -49.5t141 -145.5v162h268v-965q0 -123 -9 -174q-16 -92 -73 -153q-126 -135 -407 -135q-357 0 -461 171q-37 61 -37 136h313q12 -111 185 -111q123 0 174 71q45 61 45 189v140q-113 -179 -328 -179q-216 0 -336 158 q-108 142 -108 365zM322 1462h123q0 -72 51 -113q44 -36 135 -36q169 0 184 149h123q0 -146 -86 -231q-73 -72 -221 -72t-224 74q-85 83 -85 229zM367 492q0 -126 60 -198q64 -79 187 -79q122 0 188 79q60 73 60 198q0 123 -61 198q-66 82 -185 82q-122 0 -188 -80 q-61 -75 -61 -200z" />
<glyph unicode="&#x130;" horiz-adv-x="653" d="M170 0v1464h313v-1464h-313zM193 1784q0 54 41 95.5t94 41.5q55 0 96 -41t41 -96q0 -58 -39.5 -97t-97.5 -39q-55 0 -95 40.5t-40 95.5z" />
<glyph unicode="&#x131;" horiz-adv-x="584" d="M150 0v981h284v-981h-284z" />
<glyph unicode="&#x15e;" horiz-adv-x="1147" d="M70 186l174 197q33 -81 107 -127.5t163 -46.5q100 0 165 45q73 51 73 147q0 101 -213 207l-109 54q-185 92 -265 195q-75 97 -75 228q0 199 164 313q144 101 352 101q130 0 228.5 -47t171.5 -145l-185 -177q-66 127 -219 127q-86 0 -142 -40q-65 -45 -65 -127 q0 -114 226 -212l69 -30q180 -78 275 -191q90 -108 90 -245q0 -217 -154 -339q-141 -112 -364 -112q-344 0 -467 225zM299 -311q109 -28 206 -40q30 -3 52 -3q100 0 100 75q0 68 -121 68h-32q-16 0 -25 -2v213h102v-90h15q235 0 235 -193q0 -198 -266 -198q-78 0 -190 24 q-38 8 -76 19v127z" />
<glyph unicode="&#x15f;" horiz-adv-x="934" d="M43 172l219 113q23 -123 178 -123q150 0 150 96q0 68 -142 119l-70 25q-170 61 -240 131q-66 66 -66 163q0 159 131 246q113 76 280 76q276 0 369 -203l-209 -104q-33 112 -164 112q-141 0 -141 -94q0 -75 194 -136l35 -11q297 -93 297 -303q0 -162 -134 -247 q-112 -71 -284 -71q-134 0 -237 46q-124 55 -166 165zM193 -311q109 -28 206 -40q30 -3 52 -3q100 0 100 75q0 68 -121 68h-32q-16 0 -25 -2v213h102v-90h15q235 0 235 -193q0 -198 -266 -198q-78 0 -190 24q-38 8 -76 19v127z" />
<glyph unicode="&#x2c6;" horiz-adv-x="1024" d="M197 1126l196 369h238l196 -369h-141l-174 217l-176 -217h-139z" />
<glyph unicode="&#x2da;" horiz-adv-x="1024" d="M248 1372q0 111 76.5 188.5t187.5 77.5t188.5 -77.5t77.5 -188.5q0 -112 -77 -189t-189 -77t-188 77t-76 189zM391 1372q0 -52 34.5 -86.5t86.5 -34.5q51 0 87 35t36 86t-36 87t-87 36t-86 -36t-35 -87z" />
<glyph unicode="&#x2dc;" horiz-adv-x="1024" d="M195 1174q49 235 204 235h23q15 -2 43 -8q14 -5 20 -6l118 -31l30 -2q32 -2 53 19t33 65h110q-52 -242 -208 -242h-27q-8 2 -12 2l-36 9l-87 26l-36 8l-30 2q-31 2 -53.5 -17.5t-34.5 -59.5h-110z" />
<glyph unicode="&#x2000;" horiz-adv-x="986" />
<glyph unicode="&#x2001;" horiz-adv-x="1972" />
<glyph unicode="&#x2002;" horiz-adv-x="986" />
<glyph unicode="&#x2003;" horiz-adv-x="1972" />
<glyph unicode="&#x2004;" horiz-adv-x="657" />
<glyph unicode="&#x2005;" horiz-adv-x="493" />
<glyph unicode="&#x2006;" horiz-adv-x="328" />
<glyph unicode="&#x2007;" horiz-adv-x="328" />
<glyph unicode="&#x2008;" horiz-adv-x="246" />
<glyph unicode="&#x2009;" horiz-adv-x="394" />
<glyph unicode="&#x200a;" horiz-adv-x="109" />
<glyph unicode="&#x2010;" horiz-adv-x="854" d="M147 362v252h560v-252h-560z" />
<glyph unicode="&#x2011;" horiz-adv-x="854" d="M147 362v252h560v-252h-560z" />
<glyph unicode="&#x2012;" horiz-adv-x="854" d="M147 362v252h560v-252h-560z" />
<glyph unicode="&#x2013;" horiz-adv-x="1024" d="M0 393v191h1024v-191h-1024z" />
<glyph unicode="&#x2014;" horiz-adv-x="2048" d="M0 393v191h2048v-191h-2048z" />
<glyph unicode="&#x2018;" horiz-adv-x="629" d="M63 838l310 626h190l-190 -626h-310z" />
<glyph unicode="&#x2019;" horiz-adv-x="629" d="M63 838l193 626h307l-309 -626h-191z" />
<glyph unicode="&#x201a;" horiz-adv-x="629" d="M63 -332l193 627h307l-309 -627h-191z" />
<glyph unicode="&#x201c;" horiz-adv-x="1090" d="M51 838l309 626h191l-191 -626h-309zM539 838l309 626h190l-190 -626h-309z" />
<glyph unicode="&#x201d;" horiz-adv-x="1090" d="M51 838l193 626h307l-309 -626h-191zM539 838l190 626h309l-309 -626h-190z" />
<glyph unicode="&#x201e;" horiz-adv-x="1090" d="M51 -332l193 627h307l-309 -627h-191zM539 -332l190 627h309l-309 -627h-190z" />
<glyph unicode="&#x2026;" horiz-adv-x="2048" d="M168 141q0 73 50 123.5t122 50.5q71 0 121.5 -51t50.5 -123q0 -71 -50 -120.5t-122 -49.5q-71 0 -121.5 49.5t-50.5 120.5zM850 141q0 73 50 123.5t122 50.5q71 0 121.5 -51t50.5 -123q0 -71 -50 -120.5t-122 -49.5q-71 0 -121.5 49.5t-50.5 120.5zM1534 141 q0 73 50 123.5t122 50.5q71 0 121.5 -51t50.5 -123q0 -71 -50 -120.5t-122 -49.5q-71 0 -121.5 49.5t-50.5 120.5z" />
<glyph unicode="&#x202f;" horiz-adv-x="394" />
<glyph unicode="&#x2039;" horiz-adv-x="639" d="M66 487l356 455l153 -106l-278 -351l270 -346l-149 -106z" />
<glyph unicode="&#x203a;" horiz-adv-x="639" d="M66 836l153 106l356 -455l-354 -454l-149 106l270 346z" />
<glyph unicode="&#x205f;" horiz-adv-x="493" />
<glyph unicode="&#x2122;" horiz-adv-x="1706" d="M207 1350v112h485v-112h-168v-435h-149v435h-168zM803 915v547h196l127 -332l123 332h197v-547h-135v410l-154 -410h-61l-158 410v-410h-135z" />
<glyph unicode="&#x25fc;" horiz-adv-x="980" d="M0 0v980h980v-980h-980z" />
</font>
</defs>
</svg>
